<?xml version="1.0" encoding="iso-8859-1"?>
<!-- Uploaded to: SVG Repo, www.svgrepo.com, Generator: SVG Repo Mixer Tools -->
<svg height="800px" width="800px" version="1.1" id="Layer_1" xmlns="http://www.w3.org/2000/svg" xmlns:xlink="http://www.w3.org/1999/xlink" 
	 viewBox="0 0 512 512" xml:space="preserve">
<circle style="fill:#2196F3;" cx="256" cy="256" r="244.87"/>
<circle style="fill:#FFFFFF;" cx="256" cy="256" r="175.304"/>
<path style="fill:#B71C1C;" d="M258.808,292.056c8.301-0.643,16.422-4.128,22.771-10.477c6.349-6.349,9.834-14.47,10.477-22.771
	l88.297-127.161l-127.161,88.297c-8.3,0.642-16.422,4.128-22.771,10.477c-6.349,6.349-9.834,14.47-10.477,22.771l-88.297,127.161
	L258.808,292.056z"/>
<g>
	<path style="fill:#231F20;" d="M437.019,74.98C388.667,26.628,324.38,0,256,0S123.333,26.628,74.981,74.98
		C26.628,123.333,0,187.619,0,256s26.628,132.667,74.981,181.02C123.333,485.372,187.62,512,256,512s132.667-26.628,181.019-74.98
		C485.372,388.667,512,324.381,512,256S485.372,123.333,437.019,74.98z M256,489.739C127.116,489.739,22.261,384.884,22.261,256
		S127.116,22.261,256,22.261S489.739,127.116,489.739,256S384.884,489.739,256,489.739z"/>
	<path style="fill:#231F20;" d="M454.122,244.87h-12.029c-2.547-43.038-19.758-82.188-46.698-112.524l8.568-8.568
		c4.346-4.346,4.346-11.394,0-15.742c-4.346-4.345-11.394-4.345-15.742,0l-8.568,8.568c-30.334-26.939-69.485-44.15-112.523-46.697
		V57.878c0-6.146-4.983-11.13-11.13-11.13s-11.13,4.984-11.13,11.13v12.029c-43.038,2.547-82.189,19.758-112.524,46.698
		l-8.568-8.568c-4.346-4.345-11.394-4.345-15.742,0c-4.346,4.346-4.346,11.394,0,15.742l8.568,8.568
		c-26.939,30.335-44.15,69.485-46.697,112.523H57.878c-6.147,0-11.13,4.984-11.13,11.13s4.983,11.13,11.13,11.13h12.029
		c2.547,43.038,19.758,82.188,46.698,112.524l-8.568,8.568c-4.346,4.346-4.346,11.394,0,15.742c2.174,2.173,5.022,3.26,7.87,3.26
		c2.848,0,5.698-1.087,7.87-3.26l8.568-8.568c30.335,26.94,69.486,44.151,112.524,46.698v12.027c0,6.146,4.983,11.13,11.13,11.13
		s11.13-4.984,11.13-11.13v-12.029c43.038-2.547,82.189-19.758,112.524-46.698l8.568,8.568c2.174,2.173,5.022,3.26,7.87,3.26
		s5.698-1.087,7.87-3.26c4.346-4.346,4.346-11.394,0-15.742l-8.568-8.568c26.94-30.335,44.15-69.486,46.698-112.524h12.029
		c6.147,0,11.13-4.984,11.13-11.13C465.252,249.853,460.269,244.87,454.122,244.87z M256,91.826
		c40.401,0,77.433,14.678,106.064,38.97l-112.919,78.407c-10.04,1.467-19.385,6.138-26.595,13.348
		c-7.209,7.21-11.88,16.555-13.348,26.595l-78.407,112.919C106.504,333.433,91.826,296.401,91.826,256
		C91.826,165.474,165.474,91.826,256,91.826z M336.016,175.984l-53.102,76.476c-1.128,1.623-1.802,3.518-1.954,5.49
		c-0.461,5.947-3.035,11.543-7.249,15.758c-4.215,4.214-9.811,6.79-15.758,7.25c-1.971,0.152-3.866,0.827-5.49,1.954l-76.476,53.102
		l53.102-76.476c1.128-1.623,1.802-3.518,1.954-5.49c0.461-5.947,3.035-11.543,7.249-15.758c4.215-4.214,9.811-6.79,15.758-7.25
		c1.971-0.152,3.866-0.827,5.49-1.954L336.016,175.984z M256,420.174c-40.401,0-77.433-14.678-106.064-38.97l112.919-78.407
		c10.04-1.467,19.385-6.138,26.595-13.348c7.209-7.21,11.88-16.555,13.348-26.595l78.407-112.919
		c24.291,28.632,38.969,65.664,38.969,106.065C420.174,346.526,346.526,420.174,256,420.174z"/>
	<path style="fill:#231F20;" d="M359.634,293.701c-5.532-2.679-12.19-0.364-14.867,5.17c-16.37,33.825-51.212,55.681-88.766,55.681
		c-6.147,0-11.13,4.984-11.13,11.13c0,6.146,4.983,11.13,11.13,11.13c23.141,0,45.631-6.565,65.04-18.985
		c18.884-12.083,34.018-29.118,43.766-49.26C367.482,303.035,365.168,296.378,359.634,293.701z"/>
	<path style="fill:#231F20;" d="M365.683,244.87c-6.147,0-11.13,4.984-11.13,11.13c0,1.668-0.042,3.352-0.125,5.004
		c-0.306,6.14,4.423,11.365,10.563,11.67c0.188,0.01,0.376,0.014,0.563,0.014c5.892,0,10.81-4.625,11.107-10.576
		c0.1-2.019,0.151-4.077,0.151-6.113C376.813,249.854,371.83,244.87,365.683,244.87z"/>
</g>
</svg>