<svg id="Capa_1" data-name="Capa 1" xmlns="http://www.w3.org/2000/svg" viewBox="0 0 371.55 106.47"><defs><style>.cls-1,.cls-2{fill:#fff;}.cls-2{font-size:23.93px;font-family:Biennale-Regular, Biennale;}</style></defs><path d="M351.94,106.47H19.61C8.78,106.47,0,98.76,0,89.25v-72C0,7.71,8.78,0,19.61,0H351.94c10.83,0,19.61,7.71,19.61,17.22v72c0,9.51-8.78,17.22-19.61,17.22"/><path class="cls-1" d="M62.28,33.73c5.49-.79,7.91,2.46,12.11,2.36,2.68-.07,5-2,7.46-2.38,6.05-1,11,.81,14.81,5.53-8.94,5.94-8.61,19,1.27,23.78l.13.64C98,65.86,92.56,74.3,90.81,76c-6.44,6.39-10.12.3-16.93.7-5.87.34-8.54,5.25-14.44-.21-10.76-10-16.66-40,2.84-42.8"/><path class="cls-1" d="M240.1,54.19l-4.83-.06c-.84-8-16.53-6.81-14.16,1.19,1.44,4.88,18.15,3.07,19.45,11.41,2.57,16.5-24.89,17.46-25.92,2.67l4.59.06c1.21,1.2,1.32,2.94,2.78,4.08,4.49,3.54,15.41,1.65,13-5.65-1.57-4.72-18-3-19.33-11.52C213.25,41,239.57,39.89,240.1,54.19"/><path class="cls-1" d="M177.93,54.19h4.9v3.93c11-11.16,21.9.79,18,13.84-2,6.59-9.9,9.92-15.49,5.49-1-.78-1.14-1.67-2-2.17V86.81l-.81.65a8.45,8.45,0,0,1-1.88.11c-1,0-2.07.17-2.69-.76Zm7.51,5.56c-3.3,3.21-3,13.35,1.76,14.82,12,3.69,12.17-18.68,1-16.25a8,8,0,0,0-2.74,1.43"/><path class="cls-1" d="M147.09,79.2l-5.32-.06-3-9-13-.23c-3.16,4.29-.93,11-8.64,9.25L129,44.94c1.7.12,5.18-.77,6.26.71ZM137.3,65.47l-4.9-14.71c-.68.05-.78.72-1,1.2-1.92,4.21-2.69,9.2-4.38,13.51Z"/><path class="cls-1" d="M155.41,75.28V87.54h-4.9V54.19h4.9v3.93c5.71-7.9,16.79-4.36,18.38,4.88,2.21,12.76-7.95,22.14-18.38,12.28M166.5,59.75a8.07,8.07,0,0,0-3.14-1.53c-10.6-1.79-10.51,20,1.38,16.35,4.89-1.51,5.06-11.6,1.76-14.82"/><path class="cls-1" d="M324.3,67.93H306.19c.13,5.12,4.24,8.45,9.31,7.12,2.32-.61,2.54-2.41,3.42-3,1.08-.66,3.53,0,4.89-.24-2.72,10.44-18.81,9.86-21.89-.38-6.19-20.56,23.3-25.22,22.38-3.54m-5.38-3.44c.46-8.86-12.64-8.57-12.24,0Z"/><path class="cls-1" d="M269.35,53.83c18-2.56,19.55,28.19-1.06,25.33-11.63-1.61-12.29-23.42,1.06-25.33m6.32,19.81c3.43-3.33,3.19-14-2.25-15.31-8.46-2-10.85,8-7.48,13.87a6.43,6.43,0,0,0,9.73,1.44"/><path class="cls-1" d="M247,58.12H243V54.19l3.71-.46.5-5.43h4.61V54.2h4.9v3.93h-4.9v15c0,1.63,3.51,2.48,4.89,2.21l-.45,3.7C254,80.23,247,78.41,247,75.53Z"/><path class="cls-1" d="M287.59,54.19h4.89v3c3-4,9.22-6,7.83,1.47-2.45,0-4.78-.53-6.58,1.51a16.1,16.1,0,0,0-1.26,2.17V79.21h-4.89Z"/><path class="cls-1" d="M85.89,18.89c.12,7-4.76,14-12.23,13.73A13.25,13.25,0,0,1,85.89,18.89"/><path d="M185.44,59.75a8,8,0,0,1,2.74-1.43c11.19-2.43,11,19.94-1,16.25-4.78-1.47-5.06-11.61-1.76-14.82"/><path d="M137.3,65.47H127c1.69-4.31,2.46-9.3,4.38-13.51.22-.48.32-1.15,1-1.2Z"/><path d="M166.5,59.75c3.3,3.22,3.13,13.31-1.76,14.82-11.89,3.68-12-18.14-1.38-16.35a8.07,8.07,0,0,1,3.14,1.53"/><path d="M275.67,73.64a6.43,6.43,0,0,1-9.73-1.44c-3.37-5.86-1-15.91,7.48-13.87,5.44,1.31,5.68,12,2.25,15.31"/><text class="cls-2" transform="translate(118.68 34.05)">Descárgalo en</text></svg>