<svg id="Capa_1" data-name="Capa 1" xmlns="http://www.w3.org/2000/svg" viewBox="0 0 120.6 84.99"><defs><style>.cls-1{fill:#000;}.cls-2{fill:#fff;}</style></defs><path class="cls-1" d="M90.27,60.79c-.14,2.6.74,10.12,3.63,11.09a19.5,19.5,0,0,0,2.82.28c7.47.36,15.24-.28,22.74,0a1.22,1.22,0,0,1,.17,2.42H36.47c-4.12-.38-4.78-3-7.5-5.08-.17-.13-.21-.33-.51-.26V84a1.24,1.24,0,0,1-2.41.16l.09-18.67a1.37,1.37,0,0,1,2-.26c2.7,2.13,5.2,6.66,8.86,7,2.59.22,12.82.35,14.94-.23a5.09,5.09,0,0,0,3.76-5.21c-.3-7.69-12.09-3.49-16.66-5L26.68,49.31a6.46,6.46,0,0,0-3.17-1.91H6.2a4.68,4.68,0,0,0-3.48,3.06c-.32.94-.15,3.19-1.82,2.68-2-.62-.15-4.67.78-5.79a7.73,7.73,0,0,1,5.68-2.58c4.07-.28,9.49-.16,13.62,0s5,.61,8,3.36l11,11.2c3.51.36,7.25-.18,10.73.11,5.26.44,8.77,5,7,10.19-.32.91-1,1.65-1.34,2.53,2.37-.09,4.79.13,7.15,0a16.59,16.59,0,0,0,2.79-.32c1.51-.56,2.54-3.39,2.89-4.85a24.86,24.86,0,0,0,.6-6.2H61.26a1.23,1.23,0,0,1,.34-2.42h51.81c1.85,0,4.58-2.38,4.58-4.2v-6.8H42.06v5.42a1.23,1.23,0,0,1-2.41-.34V7a7.6,7.6,0,0,1,7.15-7h66.64a7.63,7.63,0,0,1,7,6.62l0,47.85c-.19,2.8-3.66,6.31-6.44,6.31ZM118,45V6.63c0-2-3.22-4.43-5.25-4.21-22.35.16-44.76-.34-67.07.25-1.52.31-3.61,2.61-3.61,4.14V44.69l.26.26h18V41.76a25.6,25.6,0,0,1,1.31-2.48A16.82,16.82,0,0,1,75,31.51c8.76-.51,17.8-.67,23.18,7.32a30.38,30.38,0,0,1,1.54,2.76V45ZM97.33,45V42.28a19.12,19.12,0,0,0-2-3.17c-4.91-5.94-12.66-5.59-19.78-5.18a14.34,14.34,0,0,0-11.18,5.69C63.21,41.18,62.08,43,63,45ZM90.27,72c-.39-.85-.84-1.66-1.16-2.54a25.34,25.34,0,0,1-1.25-6.16c-.06-.81.24-1.87-.26-2.49H72.36c-.25,3.86-.52,7.79-2.58,11.19Z"/><path class="cls-1" d="M90.27,60.79c-.14,2.6.74,10.12,3.63,11.09a19.5,19.5,0,0,0,2.82.28c7.47.36,15.24-.28,22.74,0a1.22,1.22,0,0,1,.17,2.42H36.47c-4.12-.38-4.78-3-7.5-5.08-.17-.13-.21-.33-.51-.26V84a1.24,1.24,0,0,1-2.41.16l.09-18.67a1.37,1.37,0,0,1,2-.26c2.7,2.13,5.2,6.66,8.86,7,2.59.22,12.82.35,14.94-.23a5.09,5.09,0,0,0,3.76-5.21c-.3-7.69-12.09-3.49-16.66-5L26.68,49.31a6.46,6.46,0,0,0-3.17-1.91H6.2a4.68,4.68,0,0,0-3.48,3.06c-.32.94-.15,3.19-1.82,2.68-2-.62-.15-4.67.78-5.79a7.73,7.73,0,0,1,5.68-2.58c4.07-.28,9.49-.16,13.62,0s5,.61,8,3.36l11,11.2c3.51.36,7.25-.18,10.73.11,5.26.44,8.77,5,7,10.19-.32.91-1,1.65-1.34,2.53,2.37-.09,4.79.13,7.15,0a16.59,16.59,0,0,0,2.79-.32c1.51-.56,2.54-3.39,2.89-4.85a24.86,24.86,0,0,0,.6-6.2H61.26a1.23,1.23,0,0,1,.34-2.42h51.81c1.85,0,4.58-2.38,4.58-4.2v-6.8H42.06v5.42a1.23,1.23,0,0,1-2.41-.34V7a7.6,7.6,0,0,1,7.15-7h66.64a7.63,7.63,0,0,1,7,6.62l0,47.85c-.19,2.8-3.66,6.31-6.44,6.31ZM118,45V6.63c0-2-3.22-4.43-5.25-4.21-22.35.16-44.76-.34-67.07.25-1.52.31-3.61,2.61-3.61,4.14V44.69l.26.26h18V41.76a25.6,25.6,0,0,1,1.31-2.48A16.82,16.82,0,0,1,75,31.51c8.76-.51,17.8-.67,23.18,7.32a30.38,30.38,0,0,1,1.54,2.76V45ZM97.33,45V42.28a19.12,19.12,0,0,0-2-3.17c-4.91-5.94-12.66-5.59-19.78-5.18a14.34,14.34,0,0,0-11.18,5.69C63.21,41.18,62.08,43,63,45ZM90.27,72c-.39-.85-.84-1.66-1.16-2.54a25.34,25.34,0,0,1-1.25-6.16c-.06-.81.24-1.87-.26-2.49H72.36c-.25,3.86-.52,7.79-2.58,11.19Z"/><path class="cls-1" d="M14.82,9.87c13.66-1.39,20.3,15.64,9.73,23.68C15,40.8,1.65,32.77,3.37,21A13.39,13.39,0,0,1,14.82,9.87m.34,2.41A10.82,10.82,0,1,0,26.31,27.56,10.86,10.86,0,0,0,15.16,12.28"/><path class="cls-1" d="M14.82,9.87c13.66-1.39,20.3,15.64,9.73,23.68C15,40.8,1.65,32.77,3.37,21A13.39,13.39,0,0,1,14.82,9.87Zm.34,2.41A10.82,10.82,0,1,0,26.31,27.56,10.86,10.86,0,0,0,15.16,12.28Z"/><path class="cls-1" d="M118,45H99.74V41.59a30.38,30.38,0,0,0-1.54-2.76C92.82,30.84,83.77,31,75,31.51a16.8,16.8,0,0,0-13.4,7.77,25.6,25.6,0,0,0-1.31,2.48V45h-18l-.26-.26V6.81c0-1.53,2.09-3.83,3.61-4.14,22.31-.59,44.72-.09,67.07-.25,2-.22,5.25,2.16,5.25,4.22ZM79.39,7.12c-13.25.82-12.39,21.59,2,20.26,12.38-1.14,11.32-21.09-2-20.26"/><path class="cls-2" d="M118,45H99.74V41.59a30.38,30.38,0,0,0-1.54-2.76C92.82,30.84,83.77,31,75,31.51a16.8,16.8,0,0,0-13.4,7.77,25.6,25.6,0,0,0-1.31,2.48V45h-18l-.26-.26V6.81c0-1.53,2.09-3.83,3.61-4.14,22.31-.59,44.72-.09,67.07-.25,2-.22,5.25,2.16,5.25,4.22ZM79.39,7.12c-13.25.82-12.39,21.59,2,20.26C93.78,26.24,92.72,6.29,79.39,7.12Z"/><path class="cls-1" d="M97.33,45H63c-.9-1.94.23-3.77,1.39-5.33a14.34,14.34,0,0,1,11.18-5.69c7.12-.41,14.87-.76,19.78,5.18a19.12,19.12,0,0,1,2,3.17Z"/><path class="cls-1" d="M97.33,45H63c-.9-1.94.23-3.77,1.39-5.33a14.34,14.34,0,0,1,11.18-5.69c7.12-.41,14.87-.76,19.78,5.18a19.12,19.12,0,0,1,2,3.17Z"/><path class="cls-1" d="M90.27,72H69.78c2.06-3.4,2.33-7.33,2.58-11.19H87.6c.5.62.2,1.68.26,2.49a25.34,25.34,0,0,0,1.25,6.16c.32.88.77,1.69,1.16,2.54"/><path class="cls-1" d="M90.27,72H69.78c2.06-3.4,2.33-7.33,2.58-11.19H87.6c.5.62.2,1.68.26,2.49a25.34,25.34,0,0,0,1.25,6.16C89.43,70.32,89.88,71.13,90.27,72Z"/><path class="cls-1" d="M15.16,12.28A10.82,10.82,0,1,1,7.08,28.36a10.86,10.86,0,0,1,8.08-16.08"/><path class="cls-2" d="M15.16,12.28A10.82,10.82,0,1,1,7.08,28.36,10.86,10.86,0,0,1,15.16,12.28Z"/><path class="cls-1" d="M79.39,7.12c13.33-.83,14.39,19.12,2,20.26C67,28.71,66.14,7.94,79.39,7.12m-.7,2.57c-8.56,1.16-8.3,14.5.48,15.28,11.49,1,11.25-16.86-.48-15.28"/><path class="cls-1" d="M79.39,7.12c13.33-.83,14.39,19.12,2,20.26C67,28.71,66.14,7.94,79.39,7.12Zm-.7,2.57c-8.56,1.16-8.3,14.5.48,15.28C90.66,26,90.42,8.11,78.69,9.69Z"/><path class="cls-1" d="M78.69,9.69C90.42,8.11,90.66,26,79.17,25c-8.78-.78-9-14.12-.48-15.28"/><path class="cls-1" d="M78.69,9.69C90.42,8.11,90.66,26,79.17,25,70.39,24.19,70.13,10.85,78.69,9.69Z"/></svg>