<svg id="Capa_1" data-name="Capa 1" xmlns="http://www.w3.org/2000/svg" viewBox="0 0 67.91 113.29"><defs><style>.cls-1{fill:#000;}</style></defs><path class="cls-1" d="M67.85,6.4C67.21,3.11,65.09.61,62,0H5.76A7.21,7.21,0,0,0,0,6.34v100.6a7.17,7.17,0,0,0,6.13,6.35H61.78c3.35-.49,5.73-3.41,6.13-7Zm-3.34,99.33c-.37,2.28-1.34,3.7-3.59,3.93H6.61a3.55,3.55,0,0,1-3.13-2.81c-.63-33-.08-66.21-.28-99.3.21-2,1.41-3.71,3.41-3.92H60.92c2.66.23,3.42,2.15,3.59,4.73Z"/><path class="cls-1" d="M46.36,56.24H60.52a1.39,1.39,0,0,1,.57,2.7H45.27A1.28,1.28,0,0,1,44,57.85L39.8,41.3l-.22.14L33,72.06a1.4,1.4,0,0,1-2.75.18L26.27,52l-2.54,5.94a1.61,1.61,0,0,1-1,.83l-15.47.07a1.39,1.39,0,0,1-.42-2.71L21.43,56c1.48-3.07,2.68-6.33,4.07-9.46,1.18-1.41,2.27-.68,2.67.86C29.59,53,30.24,59,31.54,64.58c.05.22-.1.25.28.22l6.42-30.12a1.34,1.34,0,0,1,2.6,0Z"/><path class="cls-1" d="M35.68,9.34A1.73,1.73,0,1,1,34,7.61a1.73,1.73,0,0,1,1.73,1.73"/><polygon class="cls-1" points="2.03 12.5 66.51 12.5 66.51 5.33 63.78 2.6 4.15 2.6 1.47 5.29 2.03 12.5"/><polygon class="cls-1" points="65.95 100.73 1.47 100.73 1.47 107.89 4.2 110.63 63.83 110.63 66.52 107.94 65.95 100.73"/></svg>