<svg id="Capa_1" data-name="Capa 1" xmlns="http://www.w3.org/2000/svg" viewBox="0 0 75.38 118.12"><defs><style>.cls-1{fill:#000;}.cls-2{fill:#fff;}</style></defs><path class="cls-1" d="M69.45,66.53h-3.7V19.19a3.08,3.08,0,0,0-1.91-2.29l-10.69,0c-.13.81-.18,1.67-.37,2.47s-.84,2.36-.87,2.85c-.1,1.48,1.41,4.79,1.23,7.64-1.24,19.62-30.9,19.62-32.13,0-.18-2.85,1.33-6.16,1.23-7.64,0-.49-.69-2.11-.87-2.85s-.24-1.66-.37-2.47l-10.69,0A3.06,3.06,0,0,0,8.4,19.19V66.53H4.7v-55c0-3.26,3.85-6.76,7-7,4.4-.4,9.38.33,13.84,0,5.48-4.31,12.07-6,18.67-2.82,1.12.54,3.48,2.64,4.13,2.79,3.47.78,10.09-.32,14.05,0,3.18.29,7,3.79,7,7ZM46.38,6.8C33.61-5.95,14.82,14.58,28.67,26.12,41.4,36.73,58,18.39,46.38,6.8M49.92,26a16.58,16.58,0,0,1-25.7,0,13.28,13.28,0,0,0,6.2,14A13.13,13.13,0,0,0,49.92,26"/><path d="M42.76,109.53H31.39v3H42.76Zm17.68,8.39a5.79,5.79,0,0,0,1,0Z"/><path class="cls-1" d="M69.45,74.68V110.4c0,3.73-4.29,7.23-8,7.52H36.56c-6.68.18-13.34.34-19.74,0-1.29-.07-2.55-.16-3.81-.26-3.71-.33-8.31-3.07-8.31-7.26V74.68H8.41v27.8a3,3,0,0,0,2,2.49l52.79.12a2.9,2.9,0,0,0,2.59-2.61V74.68Z"/><path class="cls-1" d="M42,75.67h2.72v2.72h8.15V89.26H42Zm8.65,5.19H44.49v5.93h6.18Z"/><path class="cls-1" d="M32.13,89.26H21.26V78.39H32.13Zm-2.47-8.4H23.48v5.93h6.18Z"/><path class="cls-1" d="M32.13,56.89v10.5l-.37.37H21.26V56.89Zm-2.47,8.4V59.48l-.37-.37H23.85l-.37.37v5.81Z"/><path class="cls-1" d="M52.89,56.89V67.76H42.39L42,67.39V56.89Zm-2.22,8.4V59.48l-.37-.37H44.86l-.37.37v5.81Z"/><path class="cls-1" d="M29.66,72V69.24h4.2v-6c0-1.73,2.8-1.37,4-1.36V59.36c.65.11,2.45-.33,2.69.4,0,1.14.5,4.33-.88,4.74-.76.23-2.75-.32-3,.45-.3,1.84.3,4.4,0,6.14,0,.27-.42.87-.61.87Z"/><path class="cls-1" d="M75.38,69.24V72H56.11c.11-.88-.34-2.06.37-2.72Z"/><path class="cls-1" d="M18,72H0V69.24H17.67c.71.66.26,1.84.37,2.72"/><path class="cls-1" d="M48.94,73.69h4v2.72h-6c-1.31-1.16,0-3.23-1-4.45H42l.23-2.61a25.6,25.6,0,0,1,5.47,0c1.93.47,1,2.82,1.22,4.34"/><path class="cls-1" d="M23.23,51c-.11.89.34,2.07-.37,2.72h-4.2l-.37.37v4.33H15.57V53.55c0-.68,1.65-2.6,2.35-2.6Z"/><path class="cls-1" d="M58.58,58.37H55.86V54l-.37-.37h-4.2C50.58,53,51,51.84,50.92,51h5.31c.7,0,2.35,1.92,2.35,2.6Z"/><path class="cls-1" d="M18.29,87.29v4.32l.37.37h4.2c.71.66.26,1.84.37,2.72H17.92c-.7,0-2.35-1.91-2.35-2.59V87.29Z"/><path class="cls-1" d="M58.58,87.29v4.82c0,.68-1.65,2.59-2.35,2.59H50.92c.11-.88-.34-2.06.37-2.72h4.2l.37-.37V87.29Z"/><path class="cls-1" d="M40.53,78.39V84.2a4,4,0,0,1-.61.86H34.85V82.34h3v-4Z"/><path class="cls-1" d="M24.22,76.66v-3h4.57l.34.41a3.21,3.21,0,0,1,.05.69c.05.62.12,1.49-.39,1.87Z"/><rect class="cls-1" x="33.37" y="75.67" width="2.72" height="2.72"/><rect class="cls-1" x="33.86" y="56.89" width="2.72" height="2.47"/><rect class="cls-1" x="21.01" y="69.49" width="2.72" height="2.47"/><path class="cls-2" d="M46.38,6.8C58,18.39,41.4,36.73,28.67,26.12,14.82,14.58,33.61-5.95,46.38,6.8M38.19,19.07H32.63v2.72h2.73l.23,2.12,2.48.1,0-2.19a4,4,0,0,0,2.8-6.44c-1.21-1.69-3.17-1.75-5.07-1.85A1.46,1.46,0,0,1,36,11.66h5.56V8.94h-3l0-1.82c-.22-.68-2.08-.43-2.7-.3-.49.34,0,1.57-.35,2.12-.13.22-1,.53-1.37.85a3.8,3.8,0,0,0-.25,5.46c1.51,1.58,2.4.79,4,1.15a1.43,1.43,0,0,1,.3,2.67"/><path class="cls-2" d="M49.92,26a13.13,13.13,0,0,1-19.5,14A13.28,13.28,0,0,1,24.22,26a16.58,16.58,0,0,0,25.7,0"/><rect class="cls-2" x="31.39" y="109.53" width="11.37" height="2.97"/><path class="cls-2" d="M50.67,86.79H44.49V80.86h6.18Zm-2-4.2H46.47v2.23h2.22Z"/><path class="cls-2" d="M29.66,86.79H23.48V80.86h6.18Zm-2-4.2H25.46v2.23h2.22Z"/><path class="cls-2" d="M29.66,65.29H23.48V59.48l.37-.37h5.44l.37.37Zm-2-4.2H25.46v2.22h2.22Z"/><path class="cls-2" d="M50.67,65.29H44.49V59.48l.37-.37H50.3l.37.37Zm-2-4.2H46.47v2.22h2.22Z"/><path class="cls-1" d="M38.19,19.07a1.43,1.43,0,0,0-.3-2.67c-1.64-.36-2.53.43-4-1.15a3.8,3.8,0,0,1,.25-5.46c.38-.32,1.24-.63,1.37-.85.34-.55-.14-1.78.35-2.12.62-.13,2.48-.38,2.7.3l0,1.82h3v2.72H36a1.46,1.46,0,0,0-.14,1.87c1.9.1,3.86.16,5.07,1.85a4,4,0,0,1-2.8,6.44l0,2.19-2.48-.1-.23-2.12H32.62V19.07Z"/><rect class="cls-1" x="46.47" y="82.59" width="2.23" height="2.23"/><rect class="cls-1" x="25.46" y="82.59" width="2.23" height="2.23"/><rect class="cls-1" x="25.46" y="61.09" width="2.23" height="2.23"/><rect class="cls-1" x="46.47" y="61.09" width="2.23" height="2.23"/></svg>