<svg xmlns="http://www.w3.org/2000/svg" viewBox="0 0 78.82 25.32"><defs><style>.cls-1{fill:#fff;}.cls-2,.cls-3{fill:none;stroke:#fff;stroke-linecap:round;stroke-width:0.99px;}.cls-2{stroke-miterlimit:10;}.cls-3{stroke-linejoin:round;}</style></defs><g id="Sobre_Nosotros" data-name="Sobre Nosotros"><path class="cls-1" d="M22.27,2.12s1.16,0,4.44,0a4.79,4.79,0,0,1,2.34.8,3.64,3.64,0,0,1,1.21,1.94l-2.62.09s-.33-1.9-3-1.71c-.23,1.77-1,7.56-1,7.56s3.86,1.22,4.12-5c1.85.32,2.56.37,2.56.37s.18,5-4.56,5.68H21Z"/><path class="cls-1" d="M32.46,2.05H38l-.1,1H34.8l-.24,1.62s-2-.66-2.38-.72C32.37,3,32.46,2.05,32.46,2.05Z"/><path class="cls-1" d="M33.67,10.76h3.16L36.72,12H31.05l.76-5.36a7.65,7.65,0,0,1,2.27,1.29C34,8.93,33.67,10.76,33.67,10.76Z"/><polygon class="cls-1" points="39.67 2.05 38.29 11.86 43.78 11.86 43.89 10.79 40.85 10.79 42.22 2.05 39.67 2.05"/><path class="cls-1" d="M51.4,2h-2l-4.81,10h1.34l1.3-2.81h3.29L51,11.9h2.68ZM47.61,8l1.81-3.5.8,3.5Z"/><path class="cls-1" d="M67.74,2h-2l-4.81,10h1.34l1.3-2.8h3.29l.48,2.77H70ZM64,8l1.81-3.5.8,3.5Z"/><path class="cls-1" d="M62.28,4c-.2-1.84-3.25-2.08-4.41-2l-2.28,0-1.33,9.81h2.5s.47-3.88.47-3.93C58.29,8.14,62.36,8,62.28,4ZM59.63,5.34A1.78,1.78,0,0,1,57.4,6.82L57.88,3C59.11,3,60.11,3.47,59.63,5.34Z"/><polygon class="cls-1" points="71.33 3.12 75.9 3.12 70.16 10.76 70.16 11.88 77.43 11.88 77.64 10.81 73.05 10.81 78.82 3.17 78.82 2.08 71.51 2.08 71.33 3.12"/><path class="cls-1" d="M31.76,4.24A9.77,9.77,0,0,1,37.9,7.71C35.81,6.58,35,6.87,35,7s.05,1.33,0,1.3c-2.56-2.61-5.35-2.66-8-3a18.77,18.77,0,0,1,5.13,0C32.54,5.39,31.76,4.24,31.76,4.24Z"/><path class="cls-1" d="M33.63,22.25l2.94-6.65h.74l2.95,6.65h-.9l-.81-1.88.41.22h-4l.4-.22-.8,1.88Zm3.3-5.66-1.47,3.48-.23-.19h3.42l-.22.19L37,16.59Z"/><path class="cls-1" d="M41.09,24V17.66h.84v1.05h-.09a1.49,1.49,0,0,1,.59-.83,1.85,1.85,0,0,1,1.07-.31,1.88,1.88,0,0,1,1.77,1.11,3.35,3.35,0,0,1,0,2.54,1.85,1.85,0,0,1-.7.83,2,2,0,0,1-1.07.29A1.84,1.84,0,0,1,42.44,22a1.49,1.49,0,0,1-.6-.82H42V24Zm2.21-2.29a1.25,1.25,0,0,0,1-.44A2,2,0,0,0,44.66,20a1.93,1.93,0,0,0-.37-1.26,1.25,1.25,0,0,0-1-.44,1.22,1.22,0,0,0-1,.44A1.88,1.88,0,0,0,41.94,20a1.91,1.91,0,0,0,.37,1.27A1.22,1.22,0,0,0,43.3,21.66Z"/><path class="cls-1" d="M46.63,24V17.66h.84v1.05h-.1a1.51,1.51,0,0,1,.6-.83A1.85,1.85,0,0,1,49,17.57a1.88,1.88,0,0,1,1.77,1.11,3.35,3.35,0,0,1,0,2.54,1.85,1.85,0,0,1-.7.83,2,2,0,0,1-1.07.29A1.84,1.84,0,0,1,48,22a1.49,1.49,0,0,1-.6-.82h.11V24Zm2.21-2.29a1.25,1.25,0,0,0,1-.44A2,2,0,0,0,50.2,20a1.93,1.93,0,0,0-.37-1.26,1.25,1.25,0,0,0-1-.44,1.22,1.22,0,0,0-1,.44A1.88,1.88,0,0,0,47.48,20a1.91,1.91,0,0,0,.37,1.27A1.22,1.22,0,0,0,48.84,21.66Z"/><path class="cls-1" d="M52.28,22.25V15.6h.88v5.9h3.33v.75Z"/><path class="cls-1" d="M58.89,22.34a1.88,1.88,0,0,1-.93-.21,1.2,1.2,0,0,1-.55-.62,2.5,2.5,0,0,1-.18-1V17.66h.85V20.5a1.67,1.67,0,0,0,.11.64.76.76,0,0,0,.32.38,1.2,1.2,0,0,0,.57.12,1.3,1.3,0,0,0,.66-.17,1.21,1.21,0,0,0,.44-.48,1.54,1.54,0,0,0,.16-.73v-2.6h.86v4.59h-.84v-1h.12a1.58,1.58,0,0,1-.61.83A1.71,1.71,0,0,1,58.89,22.34Z"/><path class="cls-1" d="M62.4,22.25v-.56l2.72-3.59v.22H62.4v-.66h3.51v.56l-2.76,3.61v-.24H66v.66Z"/><path class="cls-2" d="M15.86,17.33l.53,4.73a1.39,1.39,0,0,1-1.23,1.55L4.69,24.8c-1.77.2-1.93-1.2-1.93-1.2L.51,3.67a1.83,1.83,0,0,1,1.62-2L12.1.51a1.84,1.84,0,0,1,2,1.62l1.72,15.2"/><path class="cls-2" d="M3.92,1.43l.1.9a1,1,0,0,0,1.11.88l4.41-.5a1,1,0,0,0,.88-1.1l-.11-.9"/><path class="cls-3" d="M7.47,21.59a.24.24,0,0,1-.2.26A.23.23,0,0,1,7,21.64a.22.22,0,0,1,.2-.25A.24.24,0,0,1,7.47,21.59Z"/><path class="cls-3" d="M9.64,21.35a.23.23,0,0,1-.2.25.23.23,0,0,1-.25-.2.21.21,0,0,1,.2-.25A.22.22,0,0,1,9.64,21.35Z"/><circle class="cls-3" cx="11.58" cy="21.13" r="0.23"/><polyline class="cls-3" points="10.13 6.7 5.97 11.91 10.65 11.38 6.65 16.4"/></g></svg>