<svg id="Capa_1" data-name="Capa 1" xmlns="http://www.w3.org/2000/svg" viewBox="0 0 371.23 108.16"><defs><style>.cls-1{fill:none;stroke:#a2a2a2;stroke-miterlimit:10;stroke-width:1.69px;}.cls-2{fill:#fbfbfb;}.cls-3{fill:#f8f8f8;}.cls-4{fill:#86ef7d;}.cls-5{fill:#79d5fc;}.cls-6{fill:#f0c92f;}.cls-7{fill:#d83a47;}.cls-8{fill:#090909;}</style></defs><path d="M370.38,95.47a11.94,11.94,0,0,1-11.66,11.84h-346A11.92,11.92,0,0,1,.86,95.82V12.51A11.89,11.89,0,0,1,12,.92L358.54.85a11.93,11.93,0,0,1,11.83,11.49Z"/><path class="cls-1" d="M370.38,95.47a11.94,11.94,0,0,1-11.66,11.84h-346A11.92,11.92,0,0,1,.86,95.82V12.51A11.89,11.89,0,0,1,12,.92L358.54.85a11.93,11.93,0,0,1,11.83,11.49Z"/><path class="cls-2" d="M141,67.6H129.22V62.44H146c1.51,7.75-2.15,15.79-9.61,18.78-10.24,4.09-22.48-1.79-25.19-12.55C106.69,51,128.7,38.33,141.68,51l-3.5,3.46A13.25,13.25,0,1,0,125.62,77c6.85,1.8,15-1.66,15.35-9.39"/><path class="cls-2" d="M222.13,83.18C221,94,207.28,96.57,201.52,88a6.71,6.71,0,0,1-.92-1.75c0-.4.06-.2.25-.28a29.46,29.46,0,0,1,4.26-1.6,6.47,6.47,0,0,0,7.77,3.85c3.86-.94,4.6-4.78,4.44-8.28L214.6,81.7c-9.06,3.46-17.33-5.89-14.41-14.77,2-6,9.55-10.4,15.34-6.7.67.43,1.09,1.06,1.79,1.32v-2h4.8ZM210.88,63.56c-8.42.6-8.1,15.16,1.37,14.19,7.59-.78,7-14.78-1.37-14.19"/><path class="cls-2" d="M271.61,68.67V81.84h-5.16V47.14h13.62a13.73,13.73,0,0,1,4.9,1.68,10.54,10.54,0,0,1-1.67,19,16.32,16.32,0,0,1-3.23.86Zm0-4.8h8.1c3.18,0,5.53-3.73,5.26-6.69-.22-2.4-2.8-5.24-5.26-5.24h-8.1Z"/><path class="cls-2" d="M321.45,81.67h-5v-2.5c-.68.19-1,1-1.6,1.52-4.25,3.61-12.47,1.37-13.67-4.32-1.71-8.14,9.37-11.4,15.18-8.05.29-4.36-5.68-6.06-8.8-3.82-.49.35-1.14,1.49-1.52,1.5-.72,0-3.38-1.69-4.37-1.78,3.11-7.3,15.72-7.1,18.9.06a11.71,11.71,0,0,1,.86,3.06Zm-5.19-9.41a10.57,10.57,0,0,0-1.43-.61c-2.21-.69-5.48-.77-7.35.77-2.22,1.83-1.27,4.77,1.5,5.25a6.25,6.25,0,0,0,6.32-2.43c.42-.57,1.35-2.35,1-3"/><path class="cls-2" d="M184.54,58.94c14.87-1.29,17.65,20.11,4,23.21-16.85,3.81-20.4-21.79-4-23.21m.53,4.62c-8.73.79-7.84,15.44,1.71,14.18,7.89-1,7-15-1.71-14.18"/><path class="cls-2" d="M158.73,58.94c14.9-1.29,17.68,20.11,4,23.21-16.82,3.81-20.34-21.8-4-23.21m.72,4.62c-8.72.52-8.24,15.17,1.36,14.19,7.91-.81,7.4-14.71-1.36-14.19"/><path class="cls-2" d="M249.84,75.91c.33-.29.75-1.31,1.35-1.16a26.18,26.18,0,0,1,3.66,2.55,11.57,11.57,0,0,1-6.58,4.78c-10,2.48-17.78-7-13.89-16.38a10.73,10.73,0,0,1,19.71-.59c.22.43,1.07,2.39.89,2.68l-15.4,6.51c1,3.16,4.84,4.1,7.79,3.14a7.46,7.46,0,0,0,2.47-1.53m-11.33-5.64L249,65.9c-3.28-5.3-10.83-1.19-10.49,4.37"/><path class="cls-2" d="M327.24,59.6l6.23,14.95L339.7,59.6h5.6L331,92.35H325.9a2,2,0,0,1,.08-.72c.86-2.94,3.24-6.64,4.4-9.67a5,5,0,0,0,.5-1.43L321.81,59.6Z"/><path class="cls-2" d="M231,47.14V81.58a1.66,1.66,0,0,1-.27.26H226a1.66,1.66,0,0,1-.27-.26V47.14Z"/><path class="cls-3" d="M298.31,47.14V81.58a2.13,2.13,0,0,1-.26.26h-4.81a1.66,1.66,0,0,1-.27-.26V47.14Z"/><path class="cls-3" d="M262.89,17.77c2.36,4,4.83,8.07,7.48,11.92V17.77h2.85V35h-2.85l-8-12.81L262.54,35h-2.85V17.77Z"/><path class="cls-3" d="M182.44,17.77c2.36,4,4.83,8.07,7.47,11.92V17.77h2.59c.14,0,.31.43.27.61-.46,5.05.58,11.11,0,16,0,.18-.08.61-.27.61h-2.59l-8-12.81a8.16,8.16,0,0,0,.18,2,82,82,0,0,1,0,10.16c0,.18-.08.61-.27.61h-2.59V17.77Z"/><path class="cls-3" d="M208.87,17.77c4,.54,6.24,5.9,2.4,8.27,3.34,1.72,3.32,6,.24,8.07a9.82,9.82,0,0,1-2.28.92h-7.39V17.77c2.19.21,4.91-.29,7,0m-4.36,7.12h4.36c.72,0,1.69-1.5,1.69-2.23s-1-2.22-1.69-2.22h-4.36Zm0,7.47h4.72c.82,0,1.78-1.64,1.8-2.43s-1-2.37-1.8-2.37h-4.72Z"/><path class="cls-3" d="M166.91,17.46c12.13-1.37,13.48,17,1.91,17.93-11.72.9-13-16.68-1.91-17.93m0,2.67c-6.67,1-6.55,11.89.31,12.59,9.28.93,9.07-13.95-.31-12.59"/><path class="cls-3" d="M111.15,17.77h6.23c6.94,0,10,9.46,5.7,14.42a8.93,8.93,0,0,1-5.7,2.84h-6.23a1.66,1.66,0,0,1-.26-.27V18c0-.05.2-.17.26-.26m2.58,14.59h3.83a14.15,14.15,0,0,0,1.85-.64c3.86-1.83,3.87-8.68.11-10.58a12.62,12.62,0,0,0-2-.7h-3.83Z"/><path class="cls-3" d="M238.33,17.77v2.67h-7.48v4.62h6.77v2.67h-6.77v4.63h7.48V35H228.27a2.13,2.13,0,0,1-.26-.26V18a2.13,2.13,0,0,1,.26-.26Z"/><polygon class="cls-3" points="257.02 17.77 257.02 20.44 249.36 20.44 249.36 25.07 256.31 25.07 256.31 27.73 249.36 27.73 249.36 32.36 257.02 32.36 257.02 35.03 246.69 35.03 246.69 17.77 257.02 17.77"/><path class="cls-3" d="M141.15,22.22a2.73,2.73,0,0,0-.21-.78c-2.09-3.32-7.41,0-4.49,2.17,2.37,1.77,7.21,1.55,7.7,5.66.94,7.77-10.69,8-11.83,1.13.5-.15,1.88-1,2.31-.87a22.67,22.67,0,0,0,1.44,2.3c2.33,2.09,6.69.27,5.08-2.77-1.18-2.22-7.52-2-8.15-5.73-.95-5.57,6.1-7.79,9.57-4.23.39.41,1.46,1.85.89,2.32a9.22,9.22,0,0,1-2.31.8"/><path class="cls-3" d="M149.51,28.27v6.5a2.23,2.23,0,0,1-.27.26h-2.58V17.77h6.86c2.32,0,4.68,3,4.69,5.27s-2.27,5.23-4.52,5.23Zm-.18-2.67h4.19c1.49,0,2.32-2.72,1.41-4.09a4.19,4.19,0,0,0-1.41-1.07h-4.19Z"/><polygon class="cls-3" points="218.75 17.77 218.75 32.36 226.05 32.36 226.05 35.03 216.08 35.03 216.08 17.77 218.75 17.77"/><path class="cls-3" d="M127.44,35V17.77H130c.15,0,.32.43.28.61-.46,5.05.57,11.11,0,16,0,.18-.09.61-.28.61Z"/><rect class="cls-3" x="195.97" y="17.77" width="2.67" height="17.27"/><path class="cls-4" d="M72.09,42.51l-.18.18L60.51,54.07h-.17L25.8,19.73a3.51,3.51,0,0,1,3.61-1.21c1.72.26,5.58,2.73,7.3,3.7,11.77,6.62,23.6,13.56,35.38,20.29"/><path class="cls-5" d="M60.34,54.07c-1.83,1.9-3.66,3.84-5.52,5.71-.06,0-.51.14-.71.35-2.37,2.35-4.58,4.93-7,7.3-.61.61-1.34,1.16-2,1.77-2.51,2.52-5,5.14-7.47,7.66C33.85,80.74,29.9,84.58,26,88.43c0,0-.31,0-.43-.18a7,7,0,0,1-1-3.29c0-11.83,0-23.68,0-35.51,0-6.17,0-12.35,0-18.51,0-3.05-.67-9,1.24-11.21Z"/><path class="cls-6" d="M88.47,54.34A4,4,0,0,1,87,56.93a9.46,9.46,0,0,1-2.19,1.63c-4.11,2.54-8.58,4.7-12.75,7.09h-.18L60.51,54.07l11.4-11.38.18-.18c4.3,2.46,8.9,4.61,13.1,7.27,1.83,1.14,3.37,2.14,3.28,4.56"/><path class="cls-7" d="M72.09,65.65c-13.7,7.83-27.38,15.86-41.24,23.46-1.28.62-3.34.91-4.51-.06-.32-.27-.29-.55-.36-.62,3.92-3.85,7.87-7.69,11.75-11.57,2.52-2.52,5-5.14,7.47-7.66.62-.61,1.35-1.16,2-1.77,2.37-2.37,4.58-5,7-7.3.2-.21.65-.3.71-.35,1.86-1.87,3.69-3.81,5.52-5.71h.17l11.4,11.58Z"/><path class="cls-8" d="M210.88,63.56c8.38-.59,9,13.41,1.37,14.19-9.47,1-9.79-13.59-1.37-14.19"/><path class="cls-8" d="M271.61,63.87V51.94h8.1c2.46,0,5,2.84,5.26,5.24.27,3-2.08,6.69-5.26,6.69Z"/><path class="cls-8" d="M316.26,72.26c.39.63-.54,2.41-1,3A6.25,6.25,0,0,1,309,77.67c-2.77-.48-3.72-3.42-1.5-5.25,1.87-1.54,5.14-1.46,7.35-.77a10.57,10.57,0,0,1,1.43.61"/><path class="cls-8" d="M185.07,63.56c8.71-.79,9.6,13.13,1.71,14.18-9.55,1.26-10.44-13.39-1.71-14.18"/><path class="cls-8" d="M159.45,63.56c8.76-.52,9.27,13.38,1.36,14.19-9.6,1-10.08-13.67-1.36-14.19"/><path class="cls-8" d="M238.51,70.27c-.34-5.56,7.21-9.67,10.49-4.37Z"/><path class="cls-8" d="M204.51,32.36v-4.8h4.72c.83,0,1.83,1.53,1.8,2.37s-1,2.43-1.8,2.43Z"/><path class="cls-8" d="M204.51,24.89V20.44h4.36c.72,0,1.69,1.5,1.69,2.22s-1,2.23-1.69,2.23Z"/><path class="cls-8" d="M166.91,20.13c9.38-1.36,9.59,13.52.31,12.59-6.86-.7-7-11.62-.31-12.59"/><path class="cls-8" d="M113.73,32.36V20.44h3.83a12.62,12.62,0,0,1,2,.7c3.76,1.9,3.75,8.75-.11,10.58a14.15,14.15,0,0,1-1.85.64Z"/><path class="cls-8" d="M149.33,25.6V20.44h4.19a4.19,4.19,0,0,1,1.41,1.07c.91,1.37.08,4.09-1.41,4.09Z"/></svg>