<svg id="Capa_1" data-name="Capa 1" xmlns="http://www.w3.org/2000/svg" viewBox="0 0 125.64 113.94"><defs><style>.cls-1{fill:#000;}</style></defs><path class="cls-1" d="M12.39,108.13a13.72,13.72,0,0,0,2.22-1.28C20.43,103.13,26.1,99.16,32,95.53a3.42,3.42,0,0,1,1.74,0c10.2-.48,21,.61,31.09,0A12,12,0,0,0,74,90.87c.66-.83,1-2.07,2.17-2.3a2,2,0,0,1,2.31,2.61,10.91,10.91,0,0,1-1.57,2.45,15.9,15.9,0,0,1-9.33,5.54c-11.43.48-22.93,0-34.39.25-7.15,4.24-14,9.69-21.12,13.83-.69.39-1,.74-1.85.69a2,2,0,0,1-1.85-1.58l0-14.69a27.21,27.21,0,0,0-2.66-2A16,16,0,0,1,.19,84.12c-.55-10,.29-20.7.17-30.77A15.71,15.71,0,0,1,14.09,40L34.41,40a27.86,27.86,0,0,0,.3-3.27C37,17.93,52.68,4.12,70.8.81,92-3.06,115.58,7.13,123.29,27.94c5.67,15.31.78,31.77-11.24,42.37l3,15.21a2,2,0,0,1-2.49,2L94.53,80c-2,.1-5.12,1.76-7,1a2,2,0,0,1-.16-3.41L94,75.9l.71-.05c5.29,2,10.41,4.44,15.69,6.4L107.88,70a2.42,2.42,0,0,1,.42-1.77c20.67-17,16.49-46.26-6.59-58.84C78.91-3.06,45,6.93,39.2,33.9c-5.18,24,14.64,41.62,36.91,44,1.46.16,3.77-.37,4.17,1.63a2,2,0,0,1-1.38,2.35c-1.82.37-6.39-.41-8.37-.78C51.9,77.67,36.2,63.35,34.53,43.9l-19.1,0A11.73,11.73,0,0,0,4.2,54.81c.44,9.68-.56,19.84,0,29.46A11.89,11.89,0,0,0,8.68,93c.93.74,3.71,1.76,3.71,3Z"/><path class="cls-1" d="M24.45,57.55c2.42.39,5.55,3.18,5.9,5.63a2,2,0,0,1-3.54,1.6c-.73-.92-.61-1.89-1.94-2.81-4-2.79-8.72,2.71-5.42,6.31,1.47,1.6,3.34,1.13,5.21,1.63,7.68,2.06,7.47,13.5-.16,15.61-.05,1.72.15,4.59-2.37,4.32-2.19-.23-1.67-2.77-1.72-4.31-2.61-.12-6.66-4-5.84-6.67a2,2,0,0,1,3.32-.55c.8.94.59,1.84,2,2.79a4.18,4.18,0,0,0,5.68-6c-1.68-2.24-4.26-1.22-6.61-2.32-6.69-3.14-5.66-13.3,1.42-15.23.23-1.56-.51-3.94,1.67-4.29,2.51-.4,2.55,2.52,2.43,4.26"/><path class="cls-1" d="M99.56,44.66c-.22,1.35.43,3.44-.62,4.51a2.08,2.08,0,0,1-3.16-.42c-.48-.91-.35-4.25,0-5.27,1.28-3.71,6-2.33,7.33-6.8,2.36-7.63-9.17-10.85-11.24-3.35-.37,1.33.13,3-1.58,3.47a2.08,2.08,0,0,1-2.65-1.93c-.21-3.4,2.4-7.25,5.37-8.73a9.83,9.83,0,0,1,13.58,12.54c-1.28,3.15-3.88,5-7,6"/><path class="cls-1" d="M53.33,33.43a2.07,2.07,0,0,1,1.21-3.52H79.23a2,2,0,0,1,.15,4H54.69a2.23,2.23,0,0,1-1.36-.5"/><path class="cls-1" d="M54.28,39.91l25.1,0a2,2,0,0,1,.15,3.87H54.39c-2.1-.25-2.12-3.34-.11-3.83"/><path class="cls-1" d="M54.13,49.87l25.4,0a2,2,0,0,1-.15,3.88H54.54a2,2,0,0,1-.41-3.84"/><path class="cls-1" d="M97.41,54.63a2,2,0,1,1,.11,4c-2.65.06-2.6-3.85-.11-4"/></svg>