<svg xmlns="http://www.w3.org/2000/svg" viewBox="0 0 52.37 57.14"><defs><style>.cls-1,.cls-2{fill:none;stroke:#000;stroke-linejoin:round;stroke-width:2px;}.cls-1{stroke-linecap:round;}</style></defs><g id="Layer_2" data-name="Layer 2"><g id="Layer_1-2" data-name="Layer 1"><path class="cls-1" d="M13,15.38H1L15.38,1V13A2.39,2.39,0,0,1,13,15.38Z"/><path class="cls-1" d="M46.55,34.72v19a2.39,2.39,0,0,1-2.4,2.4H3.4A2.39,2.39,0,0,1,1,53.74V20.33"/><path class="cls-1" d="M20.18,1h24a2.39,2.39,0,0,1,2.4,2.4v12"/><polygon class="cls-1" points="31.03 44.74 21.71 48.98 25.95 39.66 46.29 19.31 51.37 24.4 31.03 44.74"/><line class="cls-2" x1="47.39" y1="28.38" x2="42.28" y2="23.3"/><line class="cls-2" x1="31.02" y1="44.75" x2="25.93" y2="39.65"/></g></g></svg>