<svg xmlns="http://www.w3.org/2000/svg" viewBox="0 0 28.43 32.34"><defs><style>.cls-1{fill:#fff;}</style></defs><g id="Sobre_Nosotros" data-name="Sobre Nosotros"><path class="cls-1" d="M10.17,10.45V4.24h2.48a2.33,2.33,0,0,1,1.48.42,1.48,1.48,0,0,1,.53,1.2,1.45,1.45,0,0,1-.34,1,1.61,1.61,0,0,1-.92.51V7.22a1.85,1.85,0,0,1,.76.25,1.27,1.27,0,0,1,.48.52,1.6,1.6,0,0,1,.17.75,1.75,1.75,0,0,1-.24.94,1.6,1.6,0,0,1-.7.58,3.06,3.06,0,0,1-1.11.19ZM10.87,7h1.67a1.66,1.66,0,0,0,1.05-.29.94.94,0,0,0,.35-.81,1,1,0,0,0-.35-.82,1.73,1.73,0,0,0-1.05-.28H10.87Zm0,2.85h1.82a2.57,2.57,0,0,0,.5,0,1.37,1.37,0,0,0,.39-.13,1,1,0,0,0,.29-.23A1,1,0,0,0,14,9.15a1.38,1.38,0,0,0,.05-.42A1.34,1.34,0,0,0,14,8.31,1,1,0,0,0,13.87,8a1,1,0,0,0-.29-.23,1.37,1.37,0,0,0-.39-.13,2.6,2.6,0,0,0-.5,0H10.87Z"/><path class="cls-1" d="M17.47,10.53a2.76,2.76,0,0,1-.65-.07,2.62,2.62,0,0,1-.58-.18,1.72,1.72,0,0,1-.46-.29l.22-.5a3.14,3.14,0,0,0,.46.28,3.22,3.22,0,0,0,.5.16,3.05,3.05,0,0,0,.52.05,1.31,1.31,0,0,0,.76-.18.6.6,0,0,0,.26-.5.51.51,0,0,0-.17-.4,1.26,1.26,0,0,0-.53-.22L17,8.5a1.47,1.47,0,0,1-.82-.39,1,1,0,0,1-.27-.73,1.22,1.22,0,0,1,.2-.69,1.41,1.41,0,0,1,.59-.44,2.19,2.19,0,0,1,.88-.16,2.62,2.62,0,0,1,.57.06,2.28,2.28,0,0,1,.52.18,1.6,1.6,0,0,1,.42.3l-.24.5a1.46,1.46,0,0,0-.38-.27A2.35,2.35,0,0,0,18,6.69a2.3,2.3,0,0,0-.45-.05,1.22,1.22,0,0,0-.75.19.61.61,0,0,0-.25.51.54.54,0,0,0,.16.41,1,1,0,0,0,.49.23l.8.16a1.86,1.86,0,0,1,.86.39,1,1,0,0,1,.28.73,1.09,1.09,0,0,1-.21.67,1.26,1.26,0,0,1-.59.44A2.29,2.29,0,0,1,17.47,10.53Z"/><path class="cls-1" d="M4.74,32.34H.47A.47.47,0,0,1,0,31.87V19.92a.47.47,0,0,1,.47-.47H4.74a.47.47,0,0,1,.47.47v12A.47.47,0,0,1,4.74,32.34ZM.94,31.4H4.27v-11H.94Z"/><path class="cls-1" d="M11.71,25.5a.47.47,0,0,1-.45-.33.46.46,0,0,1,.31-.59l3.06-.95a.44.44,0,0,1,.2,0l5.73.81a.67.67,0,0,0,.73-.51l.05-.22a.65.65,0,0,0-.49-.78l-6-1.43a2,2,0,0,0-.77,0L4.83,23.17a.47.47,0,0,1-.55-.38.47.47,0,0,1,.38-.55l9.22-1.7a2.83,2.83,0,0,1,1.16,0l6,1.42a1.61,1.61,0,0,1,1.19,1.91l-.05.22a1.62,1.62,0,0,1-1.78,1.23l-5.62-.79-3,.92Z"/><path class="cls-1" d="M11.31,30a56.65,56.65,0,0,1-6.62-.39.47.47,0,0,1-.42-.52.47.47,0,0,1,.53-.41,55.31,55.31,0,0,0,21-1.57L27,26.79a.63.63,0,0,0,.48-.56.61.61,0,0,0-.34-.65.55.55,0,0,0-.31-.08l-6.35-.15a.46.46,0,0,1-.46-.48.49.49,0,0,1,.48-.46l6.34.15h0a1.58,1.58,0,0,1,.75.19,1.6,1.6,0,0,1-.34,2.95L26.09,28A56.17,56.17,0,0,1,11.31,30Z"/><path class="cls-1" d="M14.21,15a7.52,7.52,0,1,1,7.52-7.52A7.52,7.52,0,0,1,14.21,15Zm0-14.09a6.58,6.58,0,1,0,6.58,6.57A6.58,6.58,0,0,0,14.21.94Z"/></g></svg>