<svg xmlns="http://www.w3.org/2000/svg" viewBox="0 0 21.43 21.43"><defs><style>.cls-1{fill:#1f58ec;}.cls-2{fill:#fff;}</style></defs><g id="Sobre_Nosotros" data-name="Sobre Nosotros"><circle class="cls-1" cx="10.71" cy="10.71" r="10.71"/><path class="cls-2" d="M11.14,4.79,12.7,8a.42.42,0,0,0,.31.22l3.48.51a.41.41,0,0,1,.23.69l-2.53,2.46a.43.43,0,0,0-.11.36l.59,3.47a.4.4,0,0,1-.58.42L11,14.45a.37.37,0,0,0-.38,0L7.48,16.08a.4.4,0,0,1-.59-.42l.59-3.47a.4.4,0,0,0-.11-.36L4.84,9.37a.41.41,0,0,1,.23-.69l3.48-.51A.4.4,0,0,0,8.86,8l1.56-3.16A.4.4,0,0,1,11.14,4.79Z"/></g></svg>