<svg xmlns="http://www.w3.org/2000/svg" viewBox="0 0 104.45 118.82"><defs><style>.cls-1,.cls-2{fill:#fff;}.cls-2{stroke:#fff;stroke-miterlimit:10;stroke-width:3px;}</style></defs><g id="Sobre_Nosotros" data-name="Sobre Nosotros"><path class="cls-1" d="M36.81,37.63V14.23h9.37a8.74,8.74,0,0,1,5.58,1.59,5.47,5.47,0,0,1,2,4.52A5.36,5.36,0,0,1,52.47,24,6.16,6.16,0,0,1,49,25.91v-.46a6.72,6.72,0,0,1,2.85.95,5,5,0,0,1,1.83,2,6.1,6.1,0,0,1,.63,2.84,6.47,6.47,0,0,1-.91,3.54,5.59,5.59,0,0,1-2.64,2.17,10.67,10.67,0,0,1-4.18.73Zm2.66-12.94h6.31a6.2,6.2,0,0,0,3.93-1.07,3.64,3.64,0,0,0,1.35-3.05,3.7,3.7,0,0,0-1.35-3.11,6.33,6.33,0,0,0-3.93-1H39.47Zm0,10.75h6.84a10.09,10.09,0,0,0,1.91-.16,4.88,4.88,0,0,0,1.48-.52,3.86,3.86,0,0,0,1.06-.84,3.39,3.39,0,0,0,.65-1.2,6,6,0,0,0,0-3.14,3.46,3.46,0,0,0-1.71-2,5.47,5.47,0,0,0-1.48-.5,10.09,10.09,0,0,0-1.91-.16H39.47Z"/><path class="cls-1" d="M62,37.93a11.54,11.54,0,0,1-2.44-.25A10.77,10.77,0,0,1,57.39,37a6.94,6.94,0,0,1-1.74-1.08L56.51,34a8.2,8.2,0,0,0,1.73,1,9.5,9.5,0,0,0,1.89.62,9.8,9.8,0,0,0,2,.19,4.87,4.87,0,0,0,2.85-.69,2.22,2.22,0,0,0,1-1.9,1.85,1.85,0,0,0-.63-1.47,4.51,4.51,0,0,0-2-.85l-3-.66a5.79,5.79,0,0,1-3.1-1.5,3.79,3.79,0,0,1-1-2.75,4.29,4.29,0,0,1,.78-2.58,5.1,5.1,0,0,1,2.2-1.67,8.55,8.55,0,0,1,3.32-.6,10,10,0,0,1,2.16.23,8.73,8.73,0,0,1,1.94.68,5.89,5.89,0,0,1,1.58,1.11l-.9,1.9a6,6,0,0,0-1.42-1,7.72,7.72,0,0,0-1.65-.64,7,7,0,0,0-1.71-.21,4.58,4.58,0,0,0-2.82.73,2.31,2.31,0,0,0-1,1.92,2.07,2.07,0,0,0,.6,1.53,3.51,3.51,0,0,0,1.86.86l3,.64a6.7,6.7,0,0,1,3.23,1.47,3.58,3.58,0,0,1,1.08,2.74,4.15,4.15,0,0,1-.79,2.54,5.06,5.06,0,0,1-2.24,1.66A9.09,9.09,0,0,1,62,37.93Z"/><path class="cls-1" d="M17.42,118.82H1.73A1.72,1.72,0,0,1,0,117.1V73.19a1.72,1.72,0,0,1,1.73-1.73H17.42a1.72,1.72,0,0,1,1.73,1.73V117.1A1.72,1.72,0,0,1,17.42,118.82Zm-14-3.45H15.69V74.92H3.46Z"/><path class="cls-1" d="M43,93.68a1.73,1.73,0,0,1-1.65-1.22A1.71,1.71,0,0,1,42.5,90.3l11.24-3.49a1.59,1.59,0,0,1,.75-.06l21,3a2.45,2.45,0,0,0,2.7-1.87l.18-.79a2.43,2.43,0,0,0-1.81-2.89L54.45,78.93a6.75,6.75,0,0,0-2.83-.07L17.73,85.12a1.73,1.73,0,1,1-.62-3.4L51,75.46a10.2,10.2,0,0,1,4.26.1l22.14,5.23a5.91,5.91,0,0,1,4.39,7l-.18.79A5.92,5.92,0,0,1,75,93.13L54.4,90.23,43.52,93.6A1.81,1.81,0,0,1,43,93.68Z"/><path class="cls-1" d="M41.55,110.22a209.34,209.34,0,0,1-24.33-1.43,1.73,1.73,0,1,1,.4-3.44A202.84,202.84,0,0,0,94.93,99.6l4.27-1.16A2.43,2.43,0,0,0,99.72,94a2.45,2.45,0,0,0-1.15-.29l-23.32-.53a1.73,1.73,0,0,1-1.69-1.77,1.77,1.77,0,0,1,1.76-1.69l23.29.53h0a5.88,5.88,0,0,1,1.5,11.56l-4.27,1.16A206.72,206.72,0,0,1,41.55,110.22Z"/><path class="cls-1" d="M52.22,55.22A27.61,27.61,0,1,1,79.83,27.61,27.64,27.64,0,0,1,52.22,55.22Zm0-51.76A24.15,24.15,0,1,0,76.38,27.61,24.18,24.18,0,0,0,52.22,3.46Z"/><line class="cls-2" x1="69.36" y1="9.72" x2="33.63" y2="45.45"/></g></svg>