<svg xmlns="http://www.w3.org/2000/svg" viewBox="0 0 93.42 109.65"><defs><style>.cls-1{fill:#fff;}</style></defs><g id="Sobre_Nosotros" data-name="Sobre Nosotros"><path class="cls-1" d="M43.34,77.28H25.66A1.73,1.73,0,0,1,24,76.06a1.71,1.71,0,0,1,.7-1.93l13.68-9.07A7,7,0,0,0,41.61,59a2.69,2.69,0,0,0,0-.4,7.1,7.1,0,0,0-11.94-4.44,7,7,0,0,0-2.23,5.16,1.72,1.72,0,1,1-3.43,0,10.54,10.54,0,0,1,21-1.05c0,.2,0,.39,0,.58a10.5,10.5,0,0,1-4.76,9.09l-8.93,5.91h12a1.72,1.72,0,0,1,0,3.44Z"/><path class="cls-1" d="M63.47,77.28a1.72,1.72,0,0,1-1.71-1.72V68.45h-11a1.72,1.72,0,0,1-1.55-1,1.74,1.74,0,0,1,.19-1.82L62.12,49.44a1.72,1.72,0,0,1,3.07,1.05V65h2.58a1.72,1.72,0,0,1,0,3.44H65.19v7.11A1.72,1.72,0,0,1,63.47,77.28ZM54.32,65h7.44V55.49Z"/><path class="cls-1" d="M46.71,101.59A38.65,38.65,0,1,1,85.36,62.94,38.7,38.7,0,0,1,46.71,101.59Zm0-73.86A35.21,35.21,0,1,0,81.92,62.94,35.25,35.25,0,0,0,46.71,27.73Z"/><path class="cls-1" d="M46.71,109.65A46.71,46.71,0,1,1,93.42,62.94,46.76,46.76,0,0,1,46.71,109.65Zm0-90A43.27,43.27,0,1,0,90,62.94,43.32,43.32,0,0,0,46.71,19.67Z"/><path class="cls-1" d="M57,12.06H36.45a1.72,1.72,0,0,1-1.72-1.72V1.72A1.72,1.72,0,0,1,36.45,0H57a1.72,1.72,0,0,1,1.72,1.72v8.62A1.72,1.72,0,0,1,57,12.06ZM38.17,8.62H55.25V3.44H38.17Z"/><path class="cls-1" d="M51.05,19.67H42.38A1.72,1.72,0,0,1,40.66,18V10.34a1.72,1.72,0,0,1,1.72-1.72h8.67a1.72,1.72,0,0,1,1.72,1.72V18A1.72,1.72,0,0,1,51.05,19.67ZM44.1,16.23h5.23V12.06H44.1Z"/><path class="cls-1" d="M14.3,33.46A1.72,1.72,0,0,1,13.08,33L6.19,26.06a1.72,1.72,0,0,1,2.43-2.43l6.89,6.89a1.72,1.72,0,0,1,0,2.43A1.68,1.68,0,0,1,14.3,33.46Z"/><path class="cls-1" d="M4,30a1.72,1.72,0,0,1-1.21-2.94L9.64,20.2a1.72,1.72,0,0,1,2.44,2.43L5.19,29.52A1.75,1.75,0,0,1,4,30Z"/><path class="cls-1" d="M79.17,33.46A1.73,1.73,0,0,1,78,30.52l6.89-6.89a1.72,1.72,0,0,1,2.43,0,1.7,1.7,0,0,1,0,2.43L80.38,33A1.68,1.68,0,0,1,79.17,33.46Z"/><path class="cls-1" d="M89.5,30a1.75,1.75,0,0,1-1.22-.5l-6.89-6.89a1.72,1.72,0,0,1,0-2.43,1.7,1.7,0,0,1,2.43,0l6.89,6.88a1.73,1.73,0,0,1,0,2.44A1.71,1.71,0,0,1,89.5,30Z"/></g></svg>