<svg xmlns="http://www.w3.org/2000/svg" xmlns:xlink="http://www.w3.org/1999/xlink" viewBox="0 0 91.49 91.22"><defs><style>.cls-1,.cls-4{fill:none;}.cls-2{fill:#82242c;}.cls-3{clip-path:url(#clip-path);}.cls-4{stroke-miterlimit:10;stroke-width:0.58px;stroke:url(#ROJO_DELAPAZ);}.cls-5{fill:#fff;}</style><clipPath id="clip-path"><rect class="cls-1" x="-498.16" y="-59.74" width="382.21" height="220.82"/></clipPath><pattern id="ROJO_DELAPAZ" data-name="ROJO DELAPAZ" width="144.14" height="144.14" patternTransform="translate(252.13 583.23) scale(0.55 1.11)" patternUnits="userSpaceOnUse" viewBox="0 0 144.14 144.14"><rect class="cls-1" width="144.14" height="144.14"/><rect class="cls-2" width="144.14" height="144.14"/></pattern></defs><g id="Sobre_Nosotros" data-name="Sobre Nosotros"><g class="cls-3"><path class="cls-4" d="M-256.12-38.77S-71.75-16.89,32.34,124.3C-66,71.4-102.95,84.72-103.52,92c-1,9.9,2.47,62.41,1.33,61.08C-222.45,30.3-353.36,28-477.23,11.28c72.5-8,144.23-12.75,241.09,1.33C-219.59,15.08-256.12-38.77-256.12-38.77Z"/></g><path class="cls-5" d="M77.2,65.75a1.42,1.42,0,0,1-1.42-1.42V32.87a30,30,0,0,0-60.07,0V64.33a1.42,1.42,0,0,1-2.84,0V32.87a32.88,32.88,0,0,1,65.75,0V64.33A1.43,1.43,0,0,1,77.2,65.75Z"/><path class="cls-5" d="M14.29,65.75H6.87A6.88,6.88,0,0,1,0,58.88V45.49a6.88,6.88,0,0,1,6.87-6.87h7.42A1.41,1.41,0,0,1,15.71,40V64.33A1.42,1.42,0,0,1,14.29,65.75ZM6.87,41.46a4,4,0,0,0-4,4V58.88a4,4,0,0,0,4,4h6V41.46Z"/><path class="cls-5" d="M84.62,65.75H77.2a1.42,1.42,0,0,1-1.42-1.42V40a1.41,1.41,0,0,1,1.42-1.42h7.42a6.88,6.88,0,0,1,6.87,6.87V58.88A6.88,6.88,0,0,1,84.62,65.75Zm-6-2.85h6a4,4,0,0,0,4-4V45.49a4,4,0,0,0-4-4h-6Z"/><path class="cls-5" d="M41.11,91.22a6.16,6.16,0,1,1,6.16-6.16A6.16,6.16,0,0,1,41.11,91.22Zm0-9.48a3.32,3.32,0,1,0,3.32,3.32A3.32,3.32,0,0,0,41.11,81.74Z"/><path class="cls-5" d="M36.37,86.48H35A22.18,22.18,0,0,1,12.87,64.33a1.42,1.42,0,1,1,2.84,0A19.34,19.34,0,0,0,35,83.64h1.35a1.42,1.42,0,0,1,0,2.84Z"/></g></svg>