<svg xmlns="http://www.w3.org/2000/svg" viewBox="0 0 39.58 39.58"><defs><style>.cls-1{fill:#231815;}</style></defs><g id="Sobre_Nosotros" data-name="Sobre Nosotros"><path class="cls-1" d="M16.8,33.28A10.51,10.51,0,1,1,27.31,22.77,10.51,10.51,0,0,1,16.8,33.28Zm0-19.72A9.22,9.22,0,1,0,26,22.77,9.22,9.22,0,0,0,16.8,13.56Z"/><path class="cls-1" d="M16.8,27A4.21,4.21,0,1,1,21,22.77,4.2,4.2,0,0,1,16.8,27Zm0-7.13a2.93,2.93,0,1,0,2.93,2.92A2.92,2.92,0,0,0,16.8,19.85Z"/><path class="cls-1" d="M16.8,39.58A16.81,16.81,0,1,1,33.61,22.77,16.83,16.83,0,0,1,16.8,39.58Zm0-32.32A15.52,15.52,0,1,0,32.32,22.77,15.53,15.53,0,0,0,16.8,7.26Z"/><path class="cls-1" d="M16.8,23.42a.63.63,0,0,1-.45-.19.65.65,0,0,1,0-.91L35.09,3.58a.64.64,0,1,1,.91.91L17.26,23.23A.63.63,0,0,1,16.8,23.42Z"/><path class="cls-1" d="M30.5,9.72a.64.64,0,0,1-.64-.64V3.55a.65.65,0,1,1,1.29,0V9.08A.65.65,0,0,1,30.5,9.72Z"/><path class="cls-1" d="M33.4,6.82a.64.64,0,0,1-.64-.64V.64a.65.65,0,0,1,1.29,0V6.18A.65.65,0,0,1,33.4,6.82Z"/><path class="cls-1" d="M36,9.72H30.5a.65.65,0,0,1,0-1.29H36a.65.65,0,1,1,0,1.29Z"/><path class="cls-1" d="M38.94,6.82H33.4a.65.65,0,0,1,0-1.29h5.54a.65.65,0,0,1,0,1.29Z"/></g></svg>