<svg xmlns="http://www.w3.org/2000/svg" xmlns:xlink="http://www.w3.org/1999/xlink" viewBox="0 0 36.44 39.4"><defs><style>.cls-1{fill:none;}.cls-2{clip-path:url(#clip-path);}.cls-3{fill:#2a5736;}.cls-4{fill:#231815;}</style><clipPath id="clip-path"><rect class="cls-1" x="-2214.6" y="-1059.26" width="1920" height="1080"/></clipPath></defs><g id="Sobre_Nosotros" data-name="Sobre Nosotros"><g class="cls-2"><path class="cls-3" d="M-564.95-310.35S-90.2-254,177.79,109.53C-75.51-26.67-170.55,7.62-172,26.24c-2.45,25.48,6.37,160.7,3.43,157.27-309.64-316-646.72-321.89-965.67-365,186.67-20.58,371.37-32.83,620.75,3.43C-470.88-171.7-564.95-310.35-564.95-310.35Z"/></g><path class="cls-4" d="M18.06,39.4A4.09,4.09,0,0,1,14,35.45L14,35a21.55,21.55,0,0,0-3.66-11.21,9.42,9.42,0,0,1-1.54-6.35A9.55,9.55,0,0,1,17.13,9a9.42,9.42,0,0,1,7.44,2.36,9.55,9.55,0,0,1,3.18,7.1A9.43,9.43,0,0,1,26,23.93a21.41,21.41,0,0,0-3.88,11.52A4.09,4.09,0,0,1,18.06,39.4Zm.17-29.15a7.69,7.69,0,0,0-.95.06,8.23,8.23,0,0,0-5.92,12.74,22.85,22.85,0,0,1,3.88,11.87l0,.48a2.81,2.81,0,0,0,5.61,0A22.77,22.77,0,0,1,25,23.19a8.24,8.24,0,0,0-6.76-12.94Z"/><path class="cls-4" d="M18.09,32.47a8.63,8.63,0,0,1-4-.92.64.64,0,1,1,.64-1.12h0a7.76,7.76,0,0,0,6.8,0,.64.64,0,0,1,.54,1.17A9.47,9.47,0,0,1,18.09,32.47Z"/><path class="cls-4" d="M18.22,6.43a.64.64,0,0,1-.64-.64V.64a.64.64,0,0,1,1.28,0V5.79A.64.64,0,0,1,18.22,6.43Z"/><path class="cls-4" d="M10.05,9.4a.62.62,0,0,1-.49-.23L6.26,5.23a.64.64,0,1,1,1-.82l3.31,3.94a.64.64,0,0,1-.08.9A.66.66,0,0,1,10.05,9.4Z"/><path class="cls-4" d="M5.71,16.93H5.6L.53,16a.65.65,0,0,1,.23-1.27l5.06.89a.65.65,0,0,1,.52.75A.63.63,0,0,1,5.71,16.93Z"/><path class="cls-4" d="M2.76,28.06a.65.65,0,0,1-.55-.32.64.64,0,0,1,.23-.88L6.9,24.29a.64.64,0,0,1,.88.23.65.65,0,0,1-.24.88L3.09,28A.68.68,0,0,1,2.76,28.06Z"/><path class="cls-4" d="M33.68,28.06a.62.62,0,0,1-.32-.09L28.9,25.4a.64.64,0,0,1,.65-1.11L34,26.86a.64.64,0,0,1-.32,1.2Z"/><path class="cls-4" d="M30.73,16.93a.65.65,0,0,1-.11-1.28l5.07-.89a.64.64,0,0,1,.74.52.65.65,0,0,1-.52.75l-5.07.89Z"/><path class="cls-4" d="M26.39,9.4A.66.66,0,0,1,26,9.25a.65.65,0,0,1-.08-.9L29.2,4.41a.64.64,0,0,1,1,.82L26.88,9.17A.62.62,0,0,1,26.39,9.4Z"/></g></svg>