<svg xmlns="http://www.w3.org/2000/svg" viewBox="0 0 53.69 38.46"><defs><style>.cls-1{fill:#231815;}</style></defs><g id="Sobre_Nosotros" data-name="Sobre Nosotros"><path class="cls-1" d="M15.1,31.42a8.07,8.07,0,1,1,5.71-13.78h0A8.07,8.07,0,0,1,15.1,31.42Zm0-14.86a6.79,6.79,0,1,0,4.8,2h0A6.74,6.74,0,0,0,15.1,16.56Z"/><path class="cls-1" d="M16,38.46H14.25a2.39,2.39,0,0,1-2.38-2.39V34.73a11.57,11.57,0,0,1-2.52-1l-.95,1a2.4,2.4,0,0,1-3.37,0L3.82,33.43a2.38,2.38,0,0,1,0-3.37l.95-.95a12.28,12.28,0,0,1-1-2.52H2.38A2.39,2.39,0,0,1,0,24.21V22.5a2.38,2.38,0,0,1,2.38-2.38H3.73a11.84,11.84,0,0,1,1-2.52l-.95-1a2.37,2.37,0,0,1,0-3.36L5,12.07a2.38,2.38,0,0,1,3.37,0l.95.95a11.07,11.07,0,0,1,2.52-1V10.63a2.39,2.39,0,0,1,2.38-2.38H16a2.39,2.39,0,0,1,2.38,2.38V12a11.07,11.07,0,0,1,2.52,1l.95-.95h0a2.38,2.38,0,0,1,3.37,0l1.21,1.21a2.37,2.37,0,0,1,0,3.36l-.95,1a11.84,11.84,0,0,1,1,2.52h1.35a2.38,2.38,0,0,1,2.38,2.38v1.71a2.39,2.39,0,0,1-2.38,2.38H26.48a12.28,12.28,0,0,1-1,2.52l.95.95a2.38,2.38,0,0,1,0,3.37l-1.21,1.21a2.4,2.4,0,0,1-3.37,0l-.95-1a11.57,11.57,0,0,1-2.52,1v1.34A2.39,2.39,0,0,1,16,38.46Zm-2.8-4.19v1.8a1.09,1.09,0,0,0,1.09,1.1H16a1.09,1.09,0,0,0,1.09-1.1V34.26a.66.66,0,0,1,.5-.66,10.18,10.18,0,0,0,3.07-1.27.65.65,0,0,1,.8.09l1.3,1.3a1.11,1.11,0,0,0,1.55,0l1.21-1.2a1.11,1.11,0,0,0,0-1.55l-1.31-1.3a.65.65,0,0,1-.09-.8,10.38,10.38,0,0,0,1.27-3.06s0,0,0-.06A.65.65,0,0,1,26,25.3h1.81a1.09,1.09,0,0,0,1.09-1.09V22.5a1.09,1.09,0,0,0-1.09-1.1H26a.62.62,0,0,1-.67-.48v0a10.18,10.18,0,0,0-1.27-3.07.64.64,0,0,1,.09-.79l1.31-1.31a1.1,1.1,0,0,0,0-1.54L24.27,13a1.09,1.09,0,0,0-1.55,0l-1.3,1.3a.66.66,0,0,1-.8.1,10.47,10.47,0,0,0-3.07-1.28.65.65,0,0,1-.5-.63V10.63A1.09,1.09,0,0,0,16,9.54H14.25a1.09,1.09,0,0,0-1.09,1.09v1.84a.65.65,0,0,1-.5.63,10.52,10.52,0,0,0-3.08,1.28.65.65,0,0,1-.79-.1L7.49,13a1.09,1.09,0,0,0-1.55,0L4.73,14.19a1.09,1.09,0,0,0,0,1.54L6,17a.64.64,0,0,1,.1.79,10.52,10.52,0,0,0-1.28,3.08.64.64,0,0,1-.62.49H2.38a1.09,1.09,0,0,0-1.09,1.1v1.71A1.09,1.09,0,0,0,2.38,25.3H4.23a.64.64,0,0,1,.62.5,10.47,10.47,0,0,0,1.28,3.07.65.65,0,0,1-.1.8L4.73,31a1.1,1.1,0,0,0,0,1.55l1.21,1.2a1.11,1.11,0,0,0,1.55,0l1.3-1.3a.64.64,0,0,1,.79-.09,10.24,10.24,0,0,0,3.08,1.27A.65.65,0,0,1,13.16,34.27Z"/><path class="cls-1" d="M41.35,19.26A6.92,6.92,0,1,1,43.94,5.93a6.92,6.92,0,0,1,3.83,9,6.91,6.91,0,0,1-6.42,4.33Zm0-12.55a5.63,5.63,0,1,0,5.22,7.74,5.64,5.64,0,0,0-3.11-7.33h0A5.54,5.54,0,0,0,41.35,6.71Z"/><path class="cls-1" d="M38,24.68a2,2,0,0,1-.79-.16L35.87,24a2.11,2.11,0,0,1-1.17-2.74l.4-1a10.13,10.13,0,0,1-1.55-1.52l-1,.41A2.1,2.1,0,0,1,29.81,18l-.57-1.33a2.12,2.12,0,0,1,1.12-2.77l1-.41a9.35,9.35,0,0,1,0-2.18l-1-.4A2.1,2.1,0,0,1,29.17,8.2l.54-1.34a2.09,2.09,0,0,1,1.13-1.15,2.11,2.11,0,0,1,1.62,0l1,.4A10.13,10.13,0,0,1,35,4.54l-.41-1A2.1,2.1,0,0,1,35.67.79L37,.23a2.07,2.07,0,0,1,1.62,0,2.09,2.09,0,0,1,1.15,1.13l.42,1a9.84,9.84,0,0,1,2.17,0l.4-1h0A2.09,2.09,0,0,1,43.88.17a2.11,2.11,0,0,1,1.62,0l1.33.54A2.14,2.14,0,0,1,48,1.83a2,2,0,0,1,0,1.61l-.4,1A10.13,10.13,0,0,1,49.15,6l1-.41a2,2,0,0,1,1.61,0A2.08,2.08,0,0,1,52.9,6.65L53.46,8a2.11,2.11,0,0,1,0,1.62,2.14,2.14,0,0,1-1.14,1.15l-1,.41a10.59,10.59,0,0,1,0,2.18l1,.4a2.11,2.11,0,0,1,1.17,2.74L53,17.82A2.13,2.13,0,0,1,50.25,19l-1-.4a10.13,10.13,0,0,1-1.52,1.55l.42,1A2.13,2.13,0,0,1,47,23.89l-1.33.56a2.12,2.12,0,0,1-2.77-1.12l-.41-1a9.93,9.93,0,0,1-2.18,0l-.39,1a2.14,2.14,0,0,1-2,1.32ZM33.75,17.3a.64.64,0,0,1,.52.26,8.77,8.77,0,0,0,2,2,.65.65,0,0,1,.22.77l-.58,1.44a.82.82,0,0,0,.45,1.07l1.34.54a.81.81,0,0,0,.63,0,.78.78,0,0,0,.44-.45l.59-1.44A.63.63,0,0,1,40,21a8.81,8.81,0,0,0,2.76,0,.65.65,0,0,1,.73.4l.6,1.41a.78.78,0,0,0,.45.44.81.81,0,0,0,.63,0l1.32-.56a.86.86,0,0,0,.45-.45.81.81,0,0,0,0-.63l-.61-1.43a.65.65,0,0,1,.21-.77,8.57,8.57,0,0,0,2-2,.65.65,0,0,1,.77-.22l1.44.58a.81.81,0,0,0,.63,0,.84.84,0,0,0,.44-.45L52.34,16a.82.82,0,0,0-.45-1.07l-1.45-.58a.65.65,0,0,1-.39-.7,8.64,8.64,0,0,0,0-2.78h0v-.11a.64.64,0,0,1,.43-.61l1.39-.59a.78.78,0,0,0,.44-.45.86.86,0,0,0,0-.63l-.57-1.32a.78.78,0,0,0-.45-.44.81.81,0,0,0-.63,0l-1.39.59-.09,0a.64.64,0,0,1-.66-.16l-.07-.09a8.8,8.8,0,0,0-2-1.93.64.64,0,0,1-.23-.77L46.81,3a.81.81,0,0,0,0-.63.84.84,0,0,0-.45-.44L45,1.35a.82.82,0,0,0-1.07.45l-.58,1.45a.65.65,0,0,1-.7.39,8.64,8.64,0,0,0-2.78,0,.65.65,0,0,1-.7-.39l-.6-1.43a.84.84,0,0,0-.45-.44.81.81,0,0,0-.63,0L36.17,2a.81.81,0,0,0-.44.45.86.86,0,0,0,0,.63l.61,1.43a.64.64,0,0,1-.21.77,8.72,8.72,0,0,0-2,2,.63.63,0,0,1-.76.23L32,6.89a.81.81,0,0,0-.63,0,.84.84,0,0,0-.44.45l-.54,1.34a.81.81,0,0,0,0,.63.78.78,0,0,0,.45.44l1.44.58a.65.65,0,0,1,.4.7,8.37,8.37,0,0,0,0,2.78.65.65,0,0,1-.38.7l-1.44.61a.82.82,0,0,0-.43,1.08L31,17.52a.82.82,0,0,0,1.08.44l1.43-.61A.74.74,0,0,1,33.75,17.3Z"/></g></svg>