<?xml version="1.0" encoding="utf-8"?>
<!-- Generator: Adobe Illustrator 25.2.3, SVG Export Plug-In . SVG Version: 6.00 Build 0)  -->
<svg version="1.1" id="Capa_1" xmlns="http://www.w3.org/2000/svg" xmlns:xlink="http://www.w3.org/1999/xlink" x="0px" y="0px"
	 viewBox="0 0 20 20" style="enable-background:new 0 0 20 20;" xml:space="preserve">
<style type="text/css">
	.st0{fill:#231815;}
	.st1{fill-rule:evenodd;clip-rule:evenodd;fill:#231815;}
</style>
<g>
	<g>
		<g>
			<path class="st0" d="M19,1.81c-0.72-0.69-1.85-0.89-3.11-0.19c-0.77,0.43-1.63,1.01-2.55,1.69C11.8,4.52,10.17,6.03,8.98,7.3
				c-1.9,2.03-5.77,5.02-6.65,3.23c-0.51-1.04-0.21-1.6,0.05-1.8C2.51,8.63,2.7,8.56,2.85,8.6c-1.1-0.47-2.27,1.85-2.65,3.97
				c-0.41,2.3-0.13,4.5,0.23,5.45c0.4,1.05,1.59,1.08,2.03,0.02c0.28-0.67,0.6-1.4,1.06-2.14l0,0c0.85-1.47,1.17-1.92,2.06-2.83
				c1.73-1.78,3.56-2.54,6.38-3.6C17.16,7.51,20.35,3.4,19,1.81z"/>
			<path class="st1" d="M2.72,8.83C2.51,9,2.25,9.46,2.67,10.31c0.72,1.47,4.1-1.02,5.69-2.69c0.99-1.05,2.13-2.25,3.42-3.25
				C10.17,5.54,8.4,7.06,6.35,8.58c-1.61,1.19-2.59,0.67-3.02,0.3C3.25,8.81,3.18,8.76,3.1,8.73C2.98,8.7,2.82,8.75,2.72,8.83z"/>
			<path class="st1" d="M6.98,12.74c3.97-2.62,7.26-1.51,11.22-5.14c2.03-1.85,2.23-4.5,1.16-5.57c1.26,1.53-2.09,5.81-7.07,7.58
				c-2.71,0.97-4.46,1.66-6.14,3.33c-0.86,0.85-1.17,1.27-2.01,2.66l0,0C4.77,14.62,5.65,13.62,6.98,12.74z"/>
		</g>
	</g>
</g>
</svg>
