<svg xmlns="http://www.w3.org/2000/svg" viewBox="0 0 112.45 135.57"><defs><style>.cls-1{fill:#fff;}.cls-2{fill:none;stroke:#1f58ec;stroke-linecap:round;stroke-miterlimit:10;stroke-width:3.37px;}.cls-3{fill:#1f58ec;}.cls-4{fill:#ee652f;}</style></defs><g id="Sobre_Nosotros" data-name="Sobre Nosotros"><polygon class="cls-1" points="103.56 132.47 4.41 132.47 4.41 4.41 80.5 4.41 103.56 26.67 103.56 132.47"/><polyline class="cls-2" points="57.5 98.63 57.5 106.58 64.67 106.58 52.94 120.42 41.22 106.58 48.38 106.58 48.38 98.63"/><path class="cls-3" d="M103.68,26.67H81.41a2.19,2.19,0,0,1-2.2-2.2V2.2A2.2,2.2,0,0,1,83,.65l22.27,22.26a2.21,2.21,0,0,1-1.56,3.76Zm-20.07-4.4H98.36L83.61,7.52Z"/><path class="cls-3" d="M103.68,135.57H2.2a2.2,2.2,0,0,1-2.2-2.2V2.2A2.21,2.21,0,0,1,2.2,0H81.41A2.2,2.2,0,0,1,83,.65l22.27,22.26a2.24,2.24,0,0,1,.64,1.56v79a2.2,2.2,0,0,1-4.4,0V25.38l-21-21H4.4V131.17h97.08V119.51a2.2,2.2,0,1,1,4.4,0v13.86A2.19,2.19,0,0,1,103.68,135.57Z"/><path class="cls-3" d="M53.4,99.48A38.11,38.11,0,1,1,91.51,61.37,38.16,38.16,0,0,1,53.4,99.48Zm0-71.81a33.71,33.71,0,1,0,33.71,33.7A33.75,33.75,0,0,0,53.4,27.67Z"/><path class="cls-3" d="M104.83,120.42a7.54,7.54,0,0,1-5.36-2.22L73.12,91.85a2.2,2.2,0,0,1,3.12-3.11l26.35,26.35a3.24,3.24,0,0,0,4.48,0,3.2,3.2,0,0,0,.05-4.53l-25.2-25.2A2.2,2.2,0,0,1,85,82.25l25.2,25.19a7.62,7.62,0,0,1-5.4,13Z"/><path class="cls-4" d="M76.28,74.89H30.52a2.2,2.2,0,1,1,0-4.4H76.28a2.2,2.2,0,0,1,0,4.4Z"/><path class="cls-4" d="M47.3,74.89H35.1a2.19,2.19,0,0,1-2.2-2.2V61.79a2.2,2.2,0,0,1,2.2-2.2H47.3a2.2,2.2,0,0,1,2.2,2.2v10.9A2.19,2.19,0,0,1,47.3,74.89Zm-10-4.4h7.8V64H37.3Z"/><path class="cls-4" d="M59.5,74.89H47.3a2.19,2.19,0,0,1-2.2-2.2V54.47a2.2,2.2,0,0,1,2.2-2.2H59.5a2.2,2.2,0,0,1,2.2,2.2V72.69A2.19,2.19,0,0,1,59.5,74.89Zm-10-4.4h7.8V56.68H49.5Z"/><path class="cls-4" d="M71.7,74.89H59.5a2.19,2.19,0,0,1-2.2-2.2V47.15A2.2,2.2,0,0,1,59.5,45H71.7a2.2,2.2,0,0,1,2.2,2.2V72.69A2.19,2.19,0,0,1,71.7,74.89Zm-10-4.4h7.8V49.36H61.7Z"/></g></svg>