<svg xmlns="http://www.w3.org/2000/svg" viewBox="0 0 38.09 25.97"><defs><style>.cls-1{fill:#1b233f;}</style></defs><g id="Capa_2" data-name="Capa 2"><g id="Capa_1-2" data-name="Capa 1"><path class="cls-1" d="M38.09,6.93V19.05A6.92,6.92,0,0,1,31.17,26H6.93A6.93,6.93,0,0,1,0,19.05V6.93a7.19,7.19,0,0,1,.09-1l18.15,9.51a1.78,1.78,0,0,0,.81.19,1.74,1.74,0,0,0,.8-.19L38,5.88A7.2,7.2,0,0,1,38.09,6.93Zm-19,5L36.43,2.8a.85.85,0,0,1,.22-.09A6.9,6.9,0,0,0,31.17,0H6.93A6.88,6.88,0,0,0,1.45,2.71a1,1,0,0,1,.22.09Z"/></g></g></svg>