<svg xmlns="http://www.w3.org/2000/svg" viewBox="0 0 74.18 74.18"><defs><style>.cls-1{fill:#2c709b;}</style></defs><g id="Capa_2" data-name="Capa 2"><g id="Capa_1-2" data-name="Capa 1"><path class="cls-1" d="M54.49,24.68a3.38,3.38,0,0,1,0,4.77l0,0-20,20a3.43,3.43,0,0,1-2.36,1,3.37,3.37,0,0,1-2.39-1L19.59,39.38a3.38,3.38,0,0,1,0-4.77h0a3.36,3.36,0,0,1,4.75,0L32,42.25,49.63,24.58a3.38,3.38,0,0,1,4.77,0ZM74.18,37.09A37.09,37.09,0,1,1,37.09,0,37.1,37.1,0,0,1,74.18,37.09Zm-6.74,0A30.35,30.35,0,1,0,37.09,67.44,30.35,30.35,0,0,0,67.44,37.09Z"/></g></g></svg>