<?xml version="1.0" encoding="utf-8"?>
<svg version="1.1" id="Capa_1" xmlns="http://www.w3.org/2000/svg" xmlns:xlink="http://www.w3.org/1999/xlink" x="0px" y="0px"
	 viewBox="0 0 41.7 41.4" style="enable-background:new 0 0 41.7 41.4;" xml:space="preserve">
<style type="text/css">
	.st0{fill:#FFFFFF;}
	.st1{fill-rule:evenodd;clip-rule:evenodd;fill:#FFFFFF;}
	.st2{fill:#040000;}
	.st3{fill-rule:evenodd;clip-rule:evenodd;fill:#040000;}
	.st4{fill-rule:evenodd;clip-rule:evenodd;}
</style>
<g id="Yk9vj3.tif_1_">
	<g>
		<g>
			<path d="M23.5,41.4c0-5.4,0-10.7,0-16.2c1.6,0,3.2,0,4.9,0c0.3-2,0.5-3.8,0.7-5.9c-1.9,0-3.8,0-5.7,0c0-1.6-0.1-3.1,0-4.6
				c0.1-1.1,0.8-1.7,1.9-1.8c1.2-0.1,2.5,0,3.8,0c0-1.9,0-3.5,0-5.4c-2.5-0.1-5-0.5-7.4,0.3c-2.6,0.9-4.3,3.3-4.4,6.2
				c-0.1,1.7,0,3.4,0,5.2c-1.7,0-3.3,0-5,0c0,2,0,3.9,0,5.9c1.6,0,3.2,0,4.8,0c0,5.4,0,10.7,0,15.9C10.2,41.6,1,31.9,0.1,23.4
				C-1.1,11.3,7.6,0.8,19.6,0c11.4-0.7,20.7,7.6,22,18.2C43.1,31.4,32.9,40.5,23.5,41.4z"/>
		</g>
	</g>
</g>
</svg>
