<svg xmlns="http://www.w3.org/2000/svg" viewBox="0 0 15.05 19.84"><defs><style>.cls-1{fill:#000;}</style></defs><g id="Sobre_Nosotros" data-name="Sobre Nosotros"><path class="cls-1" d="M3.73,4H.3A.32.32,0,0,1,0,3.84a.31.31,0,0,1,.07-.33L3.51.09A.31.31,0,0,1,3.84,0,.32.32,0,0,1,4,.3V3.73A.31.31,0,0,1,3.73,4ZM1,3.42H3.42V1Z"/><path class="cls-1" d="M14.75,19.84H.3a.3.3,0,0,1-.3-.3V3.73a.31.31,0,0,1,.09-.22L3.51.09A.31.31,0,0,1,3.73,0h11a.3.3,0,0,1,.3.3V19.54A.29.29,0,0,1,14.75,19.84ZM.6,19.24H14.45V.6H3.85L.6,3.85Z"/><path class="cls-1" d="M12.14,6.4H5.64a.3.3,0,0,1-.3-.3.29.29,0,0,1,.3-.3h6.5a.29.29,0,0,1,.3.3A.3.3,0,0,1,12.14,6.4Z"/><path class="cls-1" d="M12.14,9.82H2.92a.3.3,0,0,1-.31-.3.31.31,0,0,1,.31-.3h9.22a.3.3,0,0,1,.3.3A.29.29,0,0,1,12.14,9.82Z"/><path class="cls-1" d="M12.14,13.25H2.92a.3.3,0,1,1,0-.6h9.22a.3.3,0,0,1,0,.6Z"/><path class="cls-1" d="M8.79,16.68H2.92a.31.31,0,1,1,0-.61H8.79a.31.31,0,0,1,0,.61Z"/></g></svg>