<svg id="Capa_1" data-name="Capa 1" xmlns="http://www.w3.org/2000/svg" viewBox="0 0 42.05 65.4"><defs><style>.cls-1{fill:#0655f4;}</style></defs><path class="cls-1" d="M18.8,47.71C16.68,35.38,30.63,31,30.63,16c0-7.58-3.64-12.63-9.91-12.63-6.06,0-9.7,4.75-9.7,11.32,0,4,1.31,5.15,1.31,7.37,0,3-2.32,5-5.26,5C2.93,27,0,23.25,0,17.28,0,8.09,6.67,0,21,0c13.45,0,21,7.18,21,16.38,0,14.75-18.7,17.28-20.32,31.33ZM14,59.13a6.17,6.17,0,1,1,12.33,0,6.28,6.28,0,0,1-6.17,6.27A6.28,6.28,0,0,1,14,59.13Z"/></svg>