<svg xmlns="http://www.w3.org/2000/svg" viewBox="0 0 69.47 89.82"><defs><style>.cls-1{fill:#fff;}</style></defs><g id="Sobre_Nosotros" data-name="Sobre Nosotros"><path class="cls-1" d="M62.23,89.82h-55A7.25,7.25,0,0,1,0,82.58V7.24A7.25,7.25,0,0,1,7.24,0h55a7.25,7.25,0,0,1,7.24,7.24V82.58A7.25,7.25,0,0,1,62.23,89.82ZM7.24,3A4.26,4.26,0,0,0,3,7.24V82.58a4.26,4.26,0,0,0,4.26,4.25h55a4.25,4.25,0,0,0,4.25-4.25V7.24A4.25,4.25,0,0,0,62.23,3Z"/><path class="cls-1" d="M58.57,11.68H10.9a1.5,1.5,0,0,1-1.49-1.5V1.49A1.49,1.49,0,0,1,10.9,0H58.57a1.49,1.49,0,0,1,1.49,1.49v8.69A1.5,1.5,0,0,1,58.57,11.68Zm-46.18-3H57.07V3H12.39Z"/><path class="cls-1" d="M18.39,35.37a1.47,1.47,0,0,1-1.06-.44l-3.65-3.65a1.49,1.49,0,1,1,2.1-2.11l2.61,2.6,6.26-6.26a1.49,1.49,0,0,1,2.11,2.11l-7.32,7.31A1.44,1.44,0,0,1,18.39,35.37Z"/><path class="cls-1" d="M18.39,53.66a1.5,1.5,0,0,1-1.06-.44l-3.65-3.65a1.49,1.49,0,0,1,2.1-2.11l2.61,2.6,6.26-6.26a1.49,1.49,0,0,1,2.11,2.11l-7.32,7.31A1.49,1.49,0,0,1,18.39,53.66Z"/><path class="cls-1" d="M18.39,72a1.5,1.5,0,0,1-1.06-.44l-3.65-3.65a1.49,1.49,0,0,1,2.1-2.11l2.61,2.6,6.26-6.26a1.48,1.48,0,0,1,2.11,0,1.5,1.5,0,0,1,0,2.11l-7.32,7.31A1.49,1.49,0,0,1,18.39,72Z"/><path class="cls-1" d="M54.74,35.37H33.93a1.49,1.49,0,0,1,0-3H54.74a1.49,1.49,0,0,1,0,3Z"/><path class="cls-1" d="M54.74,53.66H33.93a1.49,1.49,0,0,1,0-3H54.74a1.49,1.49,0,0,1,0,3Z"/><path class="cls-1" d="M54.74,72H33.93a1.49,1.49,0,1,1,0-3H54.74a1.49,1.49,0,1,1,0,3Z"/></g></svg>