<?xml version="1.0" encoding="utf-8"?>
<!-- Generator: Adobe Illustrator 25.2.3, SVG Export Plug-In . SVG Version: 6.00 Build 0)  -->
<svg version="1.1" id="Capa_1" xmlns="http://www.w3.org/2000/svg" xmlns:xlink="http://www.w3.org/1999/xlink" x="0px" y="0px"
	 viewBox="0 0 41.6 41.6" style="enable-background:new 0 0 41.6 41.6;" xml:space="preserve">
<style type="text/css">
	.st0{fill:#FFFFFF;}
	.st1{fill-rule:evenodd;clip-rule:evenodd;fill:#FFFFFF;}
	.st2{fill:#040000;}
	.st3{fill-rule:evenodd;clip-rule:evenodd;fill:#040000;}
	.st4{fill-rule:evenodd;clip-rule:evenodd;}
</style>
<g id="Ko09xi.tif_1_">
	<g>
		<path class="st2" d="M20.8,0c2.8,0,5.6,0,8.4,0c6.1,0.1,10.9,4,12.1,9.8c0.2,0.9,0.2,1.8,0.2,2.7c0,5.5,0,11.1,0,16.6
			c0,6.4-4.3,11.4-10.6,12.4c-0.6,0.1-1.3,0.1-1.9,0.1c-5.5,0-11,0-16.4,0c-6.2,0.1-11.2-4.3-12.3-9.8C0.1,30.9,0,30,0,29.1
			C0,23.6,0,18,0,12.5C0,6.1,4.3,1.1,10.6,0.1C11.4,0,12.2,0,13,0C15.6,0,18.2,0,20.8,0z M37.8,20.8c0-2.8,0-5.6,0-8.4
			c0-4.9-3.7-8.6-8.5-8.6c-5.6,0-11.3,0-16.9,0c-4.9,0-8.5,3.7-8.5,8.6c0,5.6,0,11.2,0,16.9c0,4.9,3.7,8.6,8.5,8.6
			c5.6,0,11.3,0,16.9,0c4.9,0,8.5-3.7,8.5-8.6C37.8,26.4,37.8,23.6,37.8,20.8z"/>
		<path class="st2" d="M9.4,20.8c0-6.2,5.2-11.4,11.4-11.3c6.2,0,11.3,5.2,11.3,11.4c0,6.2-5.2,11.4-11.4,11.3
			C14.5,32.1,9.4,27,9.4,20.8z M13.2,20.8c0,4.2,3.4,7.6,7.6,7.5c4.2,0,7.5-3.3,7.5-7.5c0-4.2-3.3-7.6-7.5-7.6
			C16.6,13.2,13.2,16.6,13.2,20.8z"/>
		<path class="st2" d="M33.6,9.6c0,1-0.7,1.7-1.7,1.7c-1,0-1.7-0.8-1.7-1.7c0-1,0.8-1.7,1.7-1.6C32.9,7.9,33.6,8.7,33.6,9.6z"/>
	</g>
</g>
</svg>
