<svg xmlns="http://www.w3.org/2000/svg" viewBox="0 0 176.58 30.51"><defs><style>.cls-1{fill:#fff;}</style></defs><g id="Sobre_Nosotros" data-name="Sobre Nosotros"><path class="cls-1" d="M4.05.43S7.58.31,17.59.41a14.93,14.93,0,0,1,7.16,2.42,11.14,11.14,0,0,1,3.68,5.92l-8,.28s-1-5.78-9.09-5.22c-.68,5.4-3.13,23.08-3.13,23.08S20,30.58,20.79,11.67c5.65,1,7.8,1.14,7.8,1.14s.57,15.37-13.92,17.34H0Z"/><path class="cls-1" d="M35.15.23h17l-.31,3H42.27l-.72,4.93s-6-2-7.26-2.18C34.87,3,35.15.23,35.15.23Z"/><path class="cls-1" d="M38.83,26.81h9.64l-.34,3.7H30.82l2.33-16.33a23.57,23.57,0,0,1,6.94,3.93C39.72,21.21,38.83,26.81,38.83,26.81Z"/><polygon class="cls-1" points="57.13 0.23 52.94 30.15 69.65 30.15 70.02 26.89 60.72 26.89 64.91 0.23 57.13 0.23"/><path class="cls-1" d="M92.91,0H86.69L72,30.37h4.1l4-8.54h10l1.47,8.46h8.2ZM81.35,18.33,86.88,7.64l2.44,10.69Z"/><path class="cls-1" d="M142.76,0h-6.22L121.86,30.37H126l4-8.54h10l1.48,8.46h8.19ZM131.2,18.33l5.53-10.69,2.44,10.69Z"/><path class="cls-1" d="M126.11,6.14c-.6-5.61-9.9-6.34-13.46-6-1.57,0-6.94.08-6.94.08l-4,29.92h7.59s1.43-11.85,1.43-12C113.93,18.8,126.36,18.51,126.11,6.14ZM118,10.25c-1.55,6.05-6.81,4.52-6.81,4.52l1.47-11.55C116.44,3,119.48,4.57,118,10.25Z"/><polygon class="cls-1" points="153.71 3.5 167.67 3.5 150.15 26.8 150.15 30.24 172.34 30.24 172.95 26.95 158.99 26.95 176.58 3.65 176.58 0.31 154.29 0.31 153.71 3.5"/><path class="cls-1" d="M33,6.9S45,8.33,51.74,17.5c-6.38-3.44-8.78-2.57-8.83-2.11-.06.64.16,4.05.08,4-7.8-8-16.3-8.11-24.36-9.2a57.07,57.07,0,0,1,15.66.09C35.37,10.4,33,6.9,33,6.9Z"/></g></svg>