<svg xmlns="http://www.w3.org/2000/svg" viewBox="0 0 154.34 57.28"><defs><style>.cls-1,.cls-10,.cls-2{fill:#fff;}.cls-2{fill-rule:evenodd;}.cls-3{fill:#ffdb0c;}.cls-4{fill:#31aae1;}.cls-5{fill:#c3071e;}.cls-6{fill:#f08227;}.cls-7{fill:#008f5d;}.cls-8{fill:#0f7dc2;}.cls-9{fill:#005c9d;}.cls-10{font-size:7.88px;font-family:MyriadPro-Regular, Myriad Pro;}.cls-11{letter-spacing:-0.02em;}.cls-12{letter-spacing:-0.01em;}.cls-13{letter-spacing:-0.01em;}.cls-14{letter-spacing:-0.01em;}.cls-15{letter-spacing:-0.05em;}.cls-16{letter-spacing:0em;}.cls-17{letter-spacing:0em;}</style></defs><g id="Capa_2" data-name="Capa 2"><g id="Capa_1-2" data-name="Capa 1"><path class="cls-1" d="M140.65,17.06a3.46,3.46,0,0,0,1.48.37c.61,0,.93-.26.93-.64s-.28-.58-1-.83c-1-.34-1.61-.89-1.61-1.74,0-1,.84-1.78,2.23-1.78a3.56,3.56,0,0,1,1.5.3l-.3,1.07a2.8,2.8,0,0,0-1.23-.28c-.58,0-.86.27-.86.57s.33.55,1.1.83c1,.39,1.53.93,1.53,1.76,0,1-.76,1.83-2.38,1.83a3.87,3.87,0,0,1-1.67-.36Z"/><path class="cls-1" d="M145.05,17.72a.76.76,0,0,1,.78-.81.81.81,0,0,1,0,1.62A.76.76,0,0,1,145.05,17.72Z"/><path class="cls-1" d="M148.69,16.92l-.42,1.51h-1.38l1.8-5.89h1.75l1.83,5.89h-1.43l-.46-1.51Zm1.5-1-.37-1.25c-.1-.35-.21-.79-.3-1.14h0c-.09.35-.18.8-.27,1.14l-.35,1.25Z"/><path class="cls-1" d="M152.78,17.72a.76.76,0,0,1,.78-.81.81.81,0,0,1,0,1.62A.76.76,0,0,1,152.78,17.72Z"/><path class="cls-1" d="M131.31,4A6.32,6.32,0,0,0,125.39.38h-3.14V18.46h3.64v-14l3.61,6.83h-2.39v3.57h4.28l1.78,3.66h6S132.77,6.71,131.31,4Z"/><path class="cls-1" d="M48.34,14.88H45.7a2.4,2.4,0,0,1-2.23-2.4V.36h-6V12.11A6.48,6.48,0,0,0,44,18.51h9.19V.36H48.34Z"/><path class="cls-1" d="M67.66,11.17l-5-8.52A4.56,4.56,0,0,0,58.9.36l-4.55,0V18.51h4.84V7.63l4.9,8.15a6,6,0,0,0,5.24,2.73h3.16V.36H67.66Z"/><rect class="cls-1" x="73.78" y="0.36" width="6" height="18.15"/><rect class="cls-1" x="99.24" y="0.35" width="4.85" height="18.15"/><path class="cls-2" d="M120.27,3.75a4.59,4.59,0,0,0-.33-.52,5.73,5.73,0,0,0-.57-.73,6.77,6.77,0,0,0-2-1.47A6.62,6.62,0,0,0,114.55.4h-9.23v18h4.94V4h3.29V4a2.41,2.41,0,0,1,1.38.54h0l.17.15a0,0,0,0,1,0,0l.14.15,0,0,.11.15,0,.06a.64.64,0,0,1,.08.14.2.2,0,0,1,0,.08.52.52,0,0,1,.06.13.3.3,0,0,1,0,.1l0,.12,0,.12,0,.1c0,.06,0,.11,0,.17a.17.17,0,0,1,0,.07,1.94,1.94,0,0,1,0,.24v6.06a2.11,2.11,0,0,1,0,.25.17.17,0,0,1,0,.07c0,.06,0,.11,0,.16l0,.1,0,.13,0,.12a.42.42,0,0,1,0,.1.75.75,0,0,1-.06.13.3.3,0,0,1,0,.08,1,1,0,0,1-.08.14l0,.06a.76.76,0,0,1-.11.14l0,0-.14.15v0l-.17.15h0a2.44,2.44,0,0,1-1.52.56h0l-2,.09v3.59l.68-.09h2.49a6.48,6.48,0,0,0,2.82-.63,6.74,6.74,0,0,0,2-1.46,5.73,5.73,0,0,0,.57-.73,5.69,5.69,0,0,0,.33-.52,6.31,6.31,0,0,0,.79-3V6.79A6.28,6.28,0,0,0,120.27,3.75Z"/><path class="cls-2" d="M94.41.35v10.8L89.09,2.57s-1-2-2.76-2.22H81L85.3,7.44V7.39l5.13,8.34a5.36,5.36,0,0,0,4.79,2.75h2.83V.35Z"/><path class="cls-1" d="M37.89,32a5.22,5.22,0,0,0,2.23.55c.93,0,1.42-.38,1.42-1s-.43-.88-1.5-1.26c-1.48-.52-2.45-1.34-2.45-2.63,0-1.52,1.27-2.69,3.38-2.69a5.43,5.43,0,0,1,2.27.45l-.45,1.63a4.23,4.23,0,0,0-1.86-.42c-.88,0-1.3.39-1.3.86s.5.82,1.65,1.25c1.58.58,2.32,1.4,2.32,2.66,0,1.49-1.15,2.76-3.6,2.76a5.76,5.76,0,0,1-2.52-.54Z"/><path class="cls-1" d="M46.2,31.52c.07.83.89,1.23,1.83,1.23a5.7,5.7,0,0,0,1.78-.26l.27,1.36a6.48,6.48,0,0,1-2.34.39A3.1,3.1,0,0,1,44.29,31a3.23,3.23,0,0,1,3.26-3.45c2.09,0,2.89,1.63,2.89,3.23a4.36,4.36,0,0,1-.07.79Zm2.37-1.38a1.16,1.16,0,0,0-1.14-1.3,1.31,1.31,0,0,0-1.24,1.3Z"/><path class="cls-1" d="M57.48,27.65c0,.41,0,1,0,1.91v3.61a3.7,3.7,0,0,1-1,2.91,4,4,0,0,1-2.63.8,5.07,5.07,0,0,1-2.33-.51l.4-1.52a3.94,3.94,0,0,0,1.88.49,1.54,1.54,0,0,0,1.68-1.7v-.43h0a2,2,0,0,1-1.74.85c-1.6,0-2.74-1.3-2.74-3.16,0-2.08,1.35-3.4,2.93-3.4a2,2,0,0,1,1.78.91h0l.07-.76Zm-2.06,2.63a1.35,1.35,0,0,0,0-.37A1.1,1.1,0,0,0,54.3,29c-.73,0-1.33.66-1.33,1.84,0,1,.48,1.72,1.33,1.72a1.11,1.11,0,0,0,1.06-.82,1.84,1.84,0,0,0,.06-.53Z"/><path class="cls-1" d="M64.81,32c0,.84,0,1.53,0,2.07H63.12L63,33.2h0a2.32,2.32,0,0,1-2,1.06c-1.31,0-2.27-.82-2.27-2.82V27.65h2v3.47c0,.94.31,1.51,1,1.51a1.07,1.07,0,0,0,1-.7,1.2,1.2,0,0,0,.07-.44V27.65h2Z"/><path class="cls-1" d="M66.09,29.77c0-.95,0-1.57,0-2.12h1.73l.07,1.19h0a1.91,1.91,0,0,1,1.75-1.34,1.8,1.8,0,0,1,.42,0v1.89a2.53,2.53,0,0,0-.54-.06,1.31,1.31,0,0,0-1.38,1,3.14,3.14,0,0,0,0,.45v3.28h-2Z"/><path class="cls-1" d="M77.07,30.81a3.25,3.25,0,0,1-3.41,3.45,3.17,3.17,0,0,1-3.35-3.33,3.23,3.23,0,0,1,3.45-3.43A3.14,3.14,0,0,1,77.07,30.81Zm-4.68.06c0,1.11.46,1.95,1.32,1.95S75,32,75,30.87c0-1-.37-1.94-1.28-1.94S72.39,29.92,72.39,30.87Z"/><path class="cls-1" d="M78,32.35a3.87,3.87,0,0,0,1.73.49c.61,0,.86-.21.86-.54s-.2-.49-1-.74c-1.34-.45-1.85-1.18-1.84-1.94,0-1.21,1-2.12,2.63-2.12a4.33,4.33,0,0,1,1.83.37l-.36,1.39a3.17,3.17,0,0,0-1.4-.37c-.49,0-.77.2-.77.53s.25.46,1,.74c1.23.42,1.74,1,1.76,2,0,1.21-1,2.09-2.81,2.09a4.53,4.53,0,0,1-2.09-.45Z"/><path class="cls-1" d="M86.45,27.71l1.4,3.78c.14.43.3.93.41,1.31h0c.12-.38.26-.87.41-1.33L90,27.71h1.23l-1.74,4.56c-.84,2.2-1.4,3.32-2.2,4a3.1,3.1,0,0,1-1.43.75l-.29-1a3.22,3.22,0,0,0,1-.57,3.42,3.42,0,0,0,1-1.3.54.54,0,0,0,0-.58l-2.36-5.9Z"/><path class="cls-1" d="M94.43,25.32a12,12,0,0,1,2.21-.19,3.67,3.67,0,0,1,2.58.73,2.23,2.23,0,0,1,.7,1.69,2.35,2.35,0,0,1-1.68,2.28v0a2.21,2.21,0,0,1,1.31,1.8,13.44,13.44,0,0,0,.69,2.44H99.05a11,11,0,0,1-.6-2.13c-.26-1.23-.74-1.69-1.78-1.73H95.58v3.86H94.43Zm1.15,4.06h1.18c1.23,0,2-.68,2-1.69,0-1.16-.83-1.66-2-1.67a5.1,5.1,0,0,0-1.14.1Z"/><path class="cls-1" d="M101.88,31.12a2,2,0,0,0,2.19,2.23,4.14,4.14,0,0,0,1.78-.34l.19.84a5.28,5.28,0,0,1-2.12.39A3,3,0,0,1,100.77,31c0-1.93,1.13-3.45,3-3.45,2.09,0,2.64,1.83,2.64,3a3.31,3.31,0,0,1,0,.54Zm3.41-.83a1.66,1.66,0,0,0-1.61-1.89,1.93,1.93,0,0,0-1.79,1.89Z"/><path class="cls-1" d="M111.07,34.11l-.09-.8h0a2.4,2.4,0,0,1-2,.95,1.82,1.82,0,0,1-2-1.84c0-1.55,1.38-2.39,3.85-2.38v-.13a1.31,1.31,0,0,0-1.45-1.48,3.19,3.19,0,0,0-1.67.47l-.26-.77a4,4,0,0,1,2.1-.56c2,0,2.43,1.33,2.43,2.61v2.4a8.86,8.86,0,0,0,.11,1.53Zm-.17-3.26c-1.27,0-2.71.19-2.71,1.44a1,1,0,0,0,1.09,1.11,1.59,1.59,0,0,0,1.55-1.07,1.21,1.21,0,0,0,.07-.37Z"/><path class="cls-1" d="M113.41,32.92a3,3,0,0,0,1.53.46c.85,0,1.25-.42,1.25-1s-.33-.86-1.19-1.17c-1.15-.41-1.7-1.05-1.7-1.82a2,2,0,0,1,2.21-1.87,3.25,3.25,0,0,1,1.58.39l-.29.85a2.52,2.52,0,0,0-1.31-.37c-.69,0-1.07.4-1.07.87s.38.77,1.21,1.09c1.11.42,1.68,1,1.68,1.93,0,1.12-.87,1.91-2.39,1.91a3.71,3.71,0,0,1-1.8-.43Z"/><path class="cls-1" d="M119.12,31.12a2.06,2.06,0,0,0,2.2,2.23,4.13,4.13,0,0,0,1.77-.34l.2.84a5.3,5.3,0,0,1-2.13.39A3,3,0,0,1,118,31c0-1.93,1.14-3.45,3-3.45,2.09,0,2.65,1.83,2.65,3a5.05,5.05,0,0,1,0,.54Zm3.42-.83a1.66,1.66,0,0,0-1.62-1.89,1.92,1.92,0,0,0-1.78,1.89Z"/><path class="cls-1" d="M130.28,27.71c0,.46-.05,1-.05,1.76v3.72a3.7,3.7,0,0,1-.91,2.92,3.4,3.4,0,0,1-2.33.77,4.18,4.18,0,0,1-2.13-.53l.29-.89A3.6,3.6,0,0,0,127,36c1.19,0,2.06-.62,2.06-2.23V33h0a2.29,2.29,0,0,1-2,1.08A2.86,2.86,0,0,1,124.31,31c0-2.16,1.41-3.39,2.88-3.39a2.14,2.14,0,0,1,2,1.11h0l.06-1Zm-1.2,2.53a1.48,1.48,0,0,0-.07-.53,1.67,1.67,0,0,0-1.62-1.23c-1.11,0-1.91.94-1.91,2.42,0,1.25.64,2.3,1.9,2.3A1.7,1.7,0,0,0,129,32a2.21,2.21,0,0,0,.09-.62Z"/><path class="cls-1" d="M137.19,32.37c0,.66,0,1.24.05,1.74h-1l-.07-1h0A2.43,2.43,0,0,1,134,34.26c-1,0-2.21-.56-2.21-2.81V27.71H133v3.55c0,1.21.37,2,1.42,2a1.68,1.68,0,0,0,1.54-1.06,1.82,1.82,0,0,0,.1-.59V27.71h1.17Z"/><path class="cls-1" d="M138.79,29.71c0-.76,0-1.4-.06-2h1l0,1.26h.06a1.91,1.91,0,0,1,1.77-1.4,1.15,1.15,0,0,1,.33,0V28.7a2.25,2.25,0,0,0-.4,0,1.64,1.64,0,0,0-1.56,1.5,2.92,2.92,0,0,0-.05.54v3.41h-1.15Z"/><path class="cls-1" d="M148.44,30.86a3.13,3.13,0,0,1-3.19,3.4,3,3,0,0,1-3.06-3.3,3.12,3.12,0,0,1,3.17-3.39A3,3,0,0,1,148.44,30.86Zm-5.08.07c0,1.4.81,2.45,1.95,2.45s1.94-1,1.94-2.48c0-1.09-.54-2.46-1.92-2.46S143.36,29.71,143.36,30.93Z"/><path class="cls-1" d="M149.42,32.92a3,3,0,0,0,1.53.46c.85,0,1.25-.42,1.25-1s-.33-.86-1.19-1.17c-1.15-.41-1.7-1.05-1.7-1.82a2,2,0,0,1,2.21-1.87,3.25,3.25,0,0,1,1.58.39l-.29.85a2.52,2.52,0,0,0-1.31-.37c-.69,0-1.07.4-1.07.87s.38.77,1.21,1.09c1.11.42,1.68,1,1.68,1.93,0,1.12-.87,1.91-2.39,1.91a3.71,3.71,0,0,1-1.8-.43Z"/><path class="cls-1" d="M37.82,37.48a15.86,15.86,0,0,1,2.72-.19,4.33,4.33,0,0,1,2.73.71,2.62,2.62,0,0,1,.95,2.07,2.83,2.83,0,0,1-.82,2.11,4.14,4.14,0,0,1-2.9.94,4.44,4.44,0,0,1-.68,0v3.19h-2Zm2,4a2.94,2.94,0,0,0,.67.06c1.07,0,1.73-.55,1.73-1.46s-.57-1.31-1.57-1.31a3.34,3.34,0,0,0-.83.08Z"/><path class="cls-1" d="M46.34,43.68c.06.83.88,1.23,1.82,1.23A5.52,5.52,0,0,0,50,44.64L50.21,46a6.48,6.48,0,0,1-2.34.39,3.1,3.1,0,0,1-3.45-3.29,3.24,3.24,0,0,1,3.27-3.45c2.08,0,2.88,1.62,2.88,3.22a4.4,4.4,0,0,1-.07.8ZM48.7,42.3A1.17,1.17,0,0,0,47.57,41a1.33,1.33,0,0,0-1.25,1.31Z"/><path class="cls-1" d="M51.44,41.93c0-1,0-1.57,0-2.13h1.73L53.19,41h.05A1.89,1.89,0,0,1,55,39.66a2.75,2.75,0,0,1,.42,0v1.9a2.61,2.61,0,0,0-.54-.06,1.3,1.3,0,0,0-1.38,1,2.09,2.09,0,0,0,0,.45v3.28h-2Z"/><path class="cls-1" d="M56.12,44.51a3.87,3.87,0,0,0,1.73.49c.61,0,.86-.21.86-.54s-.19-.49-1-.74c-1.33-.45-1.85-1.18-1.84-1.95,0-1.2,1-2.11,2.64-2.11a4.31,4.31,0,0,1,1.82.37L60,41.42a3.13,3.13,0,0,0-1.4-.37c-.49,0-.77.19-.77.53s.26.46,1,.74c1.23.42,1.75,1,1.76,2,0,1.21-.95,2.09-2.81,2.09A4.46,4.46,0,0,1,55.77,46Z"/><path class="cls-1" d="M67.93,43a3.25,3.25,0,0,1-3.41,3.46,3.18,3.18,0,0,1-3.35-3.34,3.23,3.23,0,0,1,3.46-3.42A3.14,3.14,0,0,1,67.93,43ZM63.25,43c0,1.11.46,1.94,1.32,1.94s1.29-.78,1.29-1.94c0-1-.37-1.94-1.29-1.94S63.25,42.08,63.25,43Z"/><path class="cls-1" d="M68.84,41.87c0-.81,0-1.5,0-2.07h1.75l.09.89h0a2.37,2.37,0,0,1,2-1c1.32,0,2.31.87,2.31,2.78v3.83H73V42.69c0-.84-.29-1.41-1-1.41a1.09,1.09,0,0,0-1,.76,1.46,1.46,0,0,0-.08.5v3.73h-2Z"/><path class="cls-1" d="M79.94,46.27l-.12-.65h0a2.31,2.31,0,0,1-1.85.8,2,2,0,0,1-2.09-2c0-1.68,1.51-2.48,3.8-2.47v-.09c0-.35-.19-.84-1.18-.84a3.73,3.73,0,0,0-1.79.49l-.37-1.29a5.38,5.38,0,0,1,2.52-.57,2.52,2.52,0,0,1,2.84,2.79V44.7a10.87,10.87,0,0,0,.09,1.57Zm-.24-3.05c-1.06,0-1.88.23-1.88,1a.73.73,0,0,0,.8.77,1.09,1.09,0,0,0,1-.74,1.27,1.27,0,0,0,0-.34Z"/><path class="cls-1" d="M82.92,36.88h2v9.39h-2Z"/><path class="cls-1" d="M87.77,43.68c.06.83.88,1.23,1.82,1.23a5.48,5.48,0,0,0,1.79-.27L91.64,46a6.45,6.45,0,0,1-2.34.39,3.1,3.1,0,0,1-3.45-3.29,3.24,3.24,0,0,1,3.27-3.45c2.09,0,2.88,1.62,2.88,3.22a4.4,4.4,0,0,1-.07.8Zm2.37-1.38A1.17,1.17,0,0,0,89,41a1.31,1.31,0,0,0-1.24,1.31Z"/><path class="cls-1" d="M92.86,44.51a3.87,3.87,0,0,0,1.73.49c.61,0,.86-.21.86-.54s-.2-.49-1-.74c-1.34-.45-1.85-1.18-1.84-1.95,0-1.2,1-2.11,2.63-2.11a4.33,4.33,0,0,1,1.83.37l-.36,1.39a3.13,3.13,0,0,0-1.4-.37c-.49,0-.77.19-.77.53s.25.46,1,.74c1.23.42,1.74,1,1.76,2,0,1.21-1,2.09-2.81,2.09A4.53,4.53,0,0,1,92.5,46Z"/><path class="cls-3" d="M10.45,11.17A19.37,19.37,0,0,1,13.84,0H0V10.41A22.36,22.36,0,0,1,10.45,11.17Z"/><path class="cls-4" d="M10.45,11.17a22.1,22.1,0,0,1,12.3,10,25.55,25.55,0,0,1,11.41-.29V0H13.84A19.37,19.37,0,0,0,10.45,11.17Z"/><path class="cls-5" d="M6.54,34.15a25.43,25.43,0,0,1,9.11-9.94,19.35,19.35,0,0,1-5.2-13A22.36,22.36,0,0,0,0,10.41V34.15Z"/><path class="cls-3" d="M25.57,30a22.66,22.66,0,0,1,0,4.2h8.57V30A19.76,19.76,0,0,1,25.57,30Z"/><path class="cls-6" d="M25.57,30l-.38-.09a.5.5,0,0,0-.13,0l-.4-.11-.22-.07-.38-.11-.16-.05-.21-.07-.16-.06-.37-.13L23,29.15c-.41-.15-.81-.33-1.21-.51a.8.8,0,0,1-.16-.08l-.24-.11-.12-.06-.17-.09-.18-.09-.16-.08-.51-.29h0l-.45-.27-.18-.11-.33-.21-.08-.06c-.46-.3-.89-.62-1.32-1l-.7-.58L17,25.5l-.08-.08L16.4,25s0,0,0,0c-.25-.25-.5-.5-.74-.76a25.43,25.43,0,0,0-9.11,9.94H25.59A22.66,22.66,0,0,0,25.57,30Z"/><path class="cls-7" d="M29.09,20.35a25.5,25.5,0,0,0-6.34.8.41.41,0,0,1,.05.09c0,.07.09.14.13.22s.12.22.17.33a.33.33,0,0,1,.06.1l.15.29c.05.11.11.21.16.32a.61.61,0,0,1,.05.12c.05.09.09.18.13.27a.93.93,0,0,1,.05.1c.06.12.11.25.17.38l.09.21c.06.14.12.29.17.43a.42.42,0,0,1,0,.1,2.29,2.29,0,0,1,.1.23c0,.13.09.26.14.39s.11.34.17.51.05.16.08.24.09.29.13.44l0,.08.18.66a.19.19,0,0,0,0,.07c0,.12.05.23.08.35a.06.06,0,0,0,0,0h0s0,0,0,.05l.06.26c0,.17.07.34.11.51s0,.21.05.31.05.27.07.4a.07.07,0,0,0,0,.05l.06.47h0c0,.13,0,.26,0,.39s0,.25,0,.37a19.76,19.76,0,0,0,8.59,0V20.86A25.64,25.64,0,0,0,29.09,20.35Z"/><path class="cls-8" d="M10.45,11.17a19.35,19.35,0,0,0,5.2,13,25.39,25.39,0,0,1,7.1-3.06A22.1,22.1,0,0,0,10.45,11.17Z"/><path class="cls-9" d="M16.22,24.8c.13.13.26.26.4.38s.33.31.5.46l0,0,.09.09.48.39a21.07,21.07,0,0,0,1.83,1.31l.5.3.13.08.58.32c.19.11.39.2.58.3l.05,0c.27.13.54.26.81.37A19,19,0,0,0,25.57,30c0-.16,0-.32-.05-.48s0-.19,0-.29a.22.22,0,0,0,0-.08c0-.13,0-.26,0-.39l-.06-.34c0-.28-.1-.55-.16-.82l-.09-.42h0c-.06-.24-.12-.49-.19-.74l0-.12v0c-.06-.22-.12-.44-.19-.65A19.22,19.22,0,0,0,24,23.7c-.15-.37-.31-.72-.48-1.08h0c-.23-.5-.49-1-.77-1.47a25.39,25.39,0,0,0-7.1,3.06Z"/><text class="cls-10" transform="translate(37.46 55.31)"><tspan class="cls-11">P</tspan><tspan class="cls-12" x="4.07" y="0">r</tspan><tspan x="6.57" y="0">o</tspan><tspan class="cls-13" x="10.9" y="0">t</tspan><tspan x="13.46" y="0">e</tspan><tspan class="cls-14" x="17.41" y="0">g</tspan><tspan x="21.77" y="0">iendo a la </tspan><tspan class="cls-15" x="55.19" y="0">F</tspan><tspan class="cls-16" x="58.67" y="0">amilia </tspan><tspan class="cls-17" x="80.07" y="0">B</tspan><tspan x="84.37" y="0">oliviana</tspan></text></g></g></svg>