<svg xmlns="http://www.w3.org/2000/svg" viewBox="0 0 612.11 424.26"><defs><style>.cls-1{fill:#fff;}</style></defs><g id="Capa_2" data-name="Capa 2"><g id="Capa_1-2" data-name="Capa 1"><path class="cls-1" d="M67.18,369.75a21.31,21.31,0,0,1,10.54,4,19.1,19.1,0,0,1,7.1,8.78,29.38,29.38,0,0,1,2.06,10.76q0,13-8.78,20.84t-25,7.87H0V319.67H53q14.06,0,22.52,7.71T84,347.61a26.08,26.08,0,0,1-1.91,9.69,18.43,18.43,0,0,1-6.34,8.1,17.89,17.89,0,0,1-8.55,3.74Zm-42-7.79h22a12.6,12.6,0,0,0,8.93-3.2,10.79,10.79,0,0,0,3.44-8.25A9.8,9.8,0,0,0,56.27,343a11.74,11.74,0,0,0-8.17-3H25.19Zm23.52,39.7q6,0,9.23-3.13a11,11,0,0,0,3.29-8.32,10.22,10.22,0,0,0-3.36-7.94,12.42,12.42,0,0,0-8.71-3h-24v22.44Z"/><path class="cls-1" d="M173.22,321.5a53.56,53.56,0,0,1,29.16,28.78,52.21,52.21,0,0,1,4.2,20.69,51.61,51.61,0,0,1-4.2,20.61,52.65,52.65,0,0,1-11.68,17.1,54.12,54.12,0,0,1-17.48,11.46,56.32,56.32,0,0,1-42.29,0,54.27,54.27,0,0,1-17.49-11.46,53,53,0,0,1-11.68-17.1A51.61,51.61,0,0,1,97.57,371a52.2,52.2,0,0,1,4.19-20.69,53.53,53.53,0,0,1,29.17-28.78,56.32,56.32,0,0,1,42.29,0Zm-9.62,77.41a28.06,28.06,0,0,0,15.58-16A32.5,32.5,0,0,0,181.39,371a36.69,36.69,0,0,0-1.45-9.92,29.09,29.09,0,0,0-5.57-10.31A26.14,26.14,0,0,0,164.21,343a30.46,30.46,0,0,0-12.14-2.6,31.92,31.92,0,0,0-9.39,1.53,28.67,28.67,0,0,0-9.92,5.73,26.18,26.18,0,0,0-7.48,10.53A34.3,34.3,0,0,0,122.76,371,32.5,32.5,0,0,0,125,382.88a28.06,28.06,0,0,0,15.58,16,30.15,30.15,0,0,0,23,0Z"/><path class="cls-1" d="M296.36,422H220.78V319.67H246V400h50.38Z"/><path class="cls-1" d="M310.41,422V319.67H335.6V422Z"/><path class="cls-1" d="M413.32,422H389l-43.51-102.3h27.78l27.79,67.79L429,319.67h27.79Z"/><path class="cls-1" d="M466.76,422V319.67H492V422Z"/><path class="cls-1" d="M585.24,422l-7.17-18.63H535L527.83,422h-27l42.75-102.3h25.8L612.11,422Zm-28.7-73.9-13,33.59h26.11Z"/><path class="cls-1" d="M19.94,240.53a12.62,12.62,0,0,1,5.3,1.12,13.87,13.87,0,0,1,4.23,3A14.2,14.2,0,0,1,32.3,249a12.8,12.8,0,0,1,1,5.06,13.52,13.52,0,0,1-1.7,6.66,13.11,13.11,0,0,1-4.7,4.91,14,14,0,0,1,5.83,5.34,14.56,14.56,0,0,1-2,17.91,15.18,15.18,0,0,1-4.56,3.11,13.5,13.5,0,0,1-5.56,1.15H0V240.53Zm9.89,13.4a9.47,9.47,0,0,0-.8-3.87,11,11,0,0,0-2.11-3.15,9.43,9.43,0,0,0-3.15-2.11,10.06,10.06,0,0,0-3.83-.76H3.51v20H19.94a9.4,9.4,0,0,0,3.83-.8,9.84,9.84,0,0,0,3.15-2.15A10.51,10.51,0,0,0,29,257.88,10,10,0,0,0,29.83,253.93Zm-9.25,35.65a11,11,0,0,0,4.22-.83,10.42,10.42,0,0,0,3.47-2.36,11,11,0,0,0,3.15-7.81,11,11,0,0,0-.83-4.23,11.13,11.13,0,0,0-2.32-3.51,10.81,10.81,0,0,0-3.47-2.39,10.3,10.3,0,0,0-4.22-.88H3.51v22Z"/><path class="cls-1" d="M48.33,240.53v52.56H44.66V240.53Z"/><path class="cls-1" d="M100.65,286.71a30.83,30.83,0,0,1-8.45,5.07,26,26,0,0,1-9.57,1.79,25.58,25.58,0,0,1-10.45-2.15,27.81,27.81,0,0,1-8.5-5.78,26.88,26.88,0,0,1,0-37.89,27.18,27.18,0,0,1,8.5-5.74,25.89,25.89,0,0,1,10.45-2.11,25.45,25.45,0,0,1,8.49,1.47,32.66,32.66,0,0,1,8.09,4.27l-2.79,2.15a23.69,23.69,0,0,0-13.79-4.39,22.66,22.66,0,0,0-9.1,1.84,23.64,23.64,0,0,0-7.37,5,22.88,22.88,0,0,0-4.95,7.41,23.9,23.9,0,0,0,0,18.15,22.88,22.88,0,0,0,4.95,7.41,24.28,24.28,0,0,0,7.37,5,22.19,22.19,0,0,0,9.1,1.87,21.64,21.64,0,0,0,8.29-1.63,28.25,28.25,0,0,0,7.5-4.59Z"/><path class="cls-1" d="M107.51,293.09V240.53h30V244H111v16.35h17.86v3.51H111v25.68h28.31v3.51Z"/><path class="cls-1" d="M184.71,240.53v55.83l-36.05-47.85v44.58h-3.51v-55l36,47.85V240.53Z"/><path class="cls-1" d="M236.47,240.53V244H215.74v49h-3.51V244h-20.9v-3.51Z"/><path class="cls-1" d="M243.49,293.09V240.53h30V244H247v16.35h17.86v3.51H247v25.68h28.31v3.51Z"/><path class="cls-1" d="M320.69,240.53v55.83l-36.05-47.85v44.58h-3.51v-55l36.05,47.85V240.53Z"/><path class="cls-1" d="M350,239.58l21.61,53.35a9.7,9.7,0,0,0-1.63.44,9.82,9.82,0,0,1-1.64.44l-9-21.37H340.55l-4.39,10.76c-.74,1.81-1.49,3.63-2.23,5.47s-1.46,3.6-2.15,5.3l-.84-.16a6,6,0,0,1-.92-.24l-1.51-.4Zm8,29.9a15.37,15.37,0,0,1-.64-1.68c-.22-.64-.43-1.25-.64-1.84-.59-1.49-1.14-2.95-1.68-4.36s-1.06-2.84-1.59-4.28L350,247.87l-8.21,21.61Z"/><path class="cls-1" d="M382.5,272.6v20.49H379V240.53h14.76a14.74,14.74,0,0,1,6.26,1.36,17.22,17.22,0,0,1,5.06,3.55,15.84,15.84,0,0,1,3.35,5.06,15.39,15.39,0,0,1,1.2,6,16.17,16.17,0,0,1-2.71,9.06,14.85,14.85,0,0,1-7.58,5.86q1.91,2.55,4.07,5.34c1.43,1.86,2.87,3.72,4.3,5.59s2.86,3.7,4.27,5.54l4,5.22h-4.47L395.74,272.6Zm0-28.56v25h11.25a11.87,11.87,0,0,0,4.86-1,12.75,12.75,0,0,0,3.91-2.71,13,13,0,0,0,2.63-4,12.61,12.61,0,0,0,0-9.65,12.88,12.88,0,0,0-2.63-4,12.75,12.75,0,0,0-3.91-2.71,11.71,11.71,0,0,0-4.86-1Z"/><path class="cls-1" d="M426.84,240.53v52.56h-3.67V240.53Z"/><path class="cls-1" d="M465.6,240.05A25.72,25.72,0,0,1,476,242.17a27,27,0,0,1,14.24,14.24,26.81,26.81,0,0,1,0,20.85A26.93,26.93,0,0,1,476,291.54a26.71,26.71,0,0,1-20.81,0,26.93,26.93,0,0,1-14.24-14.28,26.81,26.81,0,0,1,0-20.85,27,27,0,0,1,14.24-14.24A25.88,25.88,0,0,1,465.6,240.05Zm23.21,26.8a22.64,22.64,0,0,0-1.83-9.09,23.44,23.44,0,0,0-12.36-12.36,23.2,23.2,0,0,0-18.11,0,23.35,23.35,0,0,0-12.36,12.36,23.27,23.27,0,0,0,0,18.14,23.39,23.39,0,0,0,5,7.42,23.75,23.75,0,0,0,7.38,5,23.32,23.32,0,0,0,18.11,0A23.4,23.4,0,0,0,487,275.9,22.7,22.7,0,0,0,488.81,266.85Z"/><path class="cls-1" d="M544.43,240.53a25.39,25.39,0,0,1,10.23,2.08,26.41,26.41,0,0,1,8.35,5.66,27,27,0,0,1,5.63,8.37,26.1,26.1,0,0,1,0,20.42,26.33,26.33,0,0,1-14,14,25.56,25.56,0,0,1-10.23,2.07h-16V240.53Zm22.78,26.32a22.15,22.15,0,0,0-1.79-8.85,23.28,23.28,0,0,0-4.91-7.26,23,23,0,0,0-7.26-4.9,22,22,0,0,0-8.85-1.8H532v45.54H544.4a22,22,0,0,0,8.85-1.79,23.45,23.45,0,0,0,7.26-4.87,22.6,22.6,0,0,0,4.91-7.21A22.2,22.2,0,0,0,567.21,266.85Z"/><path class="cls-1" d="M580.29,293.09V240.53h30V244H583.8v16.35h17.87v3.51H583.8v25.68h28.31v3.51Z"/><path class="cls-1" d="M518.38,60.45l-7.76,9.6-3.48,4.3L490.26,95.23l16.88,20.08,3.48,4.13,7.52,8.95,12.09-14.09,16.18-18.84-16.18-20.2Zm11.85,43.9-12.14,15.41-7.47-9.7-3.48-4.52-8-10.38,8-10.82,3.48-4.7,7.61-10.29,12,16.36,7.08,9.65Z"/><path class="cls-1" d="M547.88,62.53,530.23,41.38,519.1,28l-8.48,10.1-3.48,4.15-39.45,47-.44.51-.43.52L462.91,95l3.91,4.48.43.5.44.49,39.45,45.25,3.48,4,8.13,9.33,11.48-12.91,17.65-19.85,24-27,3.44-3.87-3.44-4.13Zm0,53.84-17.65,20.57-11.57,13.5-8-9.56-3.48-4.14-35.2-41.88,35.2-43.5,3.48-4.3L519,36.71l11.24,14,17.65,22L566,95.28Z"/><path class="cls-1" d="M530.23,59.46,519,45.45l-8.37,10.38-3.48,4.31L479,95l28.15,33.48,3.48,4.14,8.12,9.65,11.49-13.4,17.65-20.59,11.12-13L547.88,81.47ZM547.88,101l-17.65,20.58-11.39,13.28-8.22-9.78-3.48-4.14-21.87-26,21.87-27.1,3.48-4.3L519,53.12l11.23,14,17.65,22,4.92,6.13Z"/><path class="cls-1" d="M604.08,0H432.54a8,8,0,0,0-8,8V179.57a8,8,0,0,0,8,8H604.08a8,8,0,0,0,8-8V8A8,8,0,0,0,604.08,0ZM592.16,117.89H569.09l2.76,4.33,9.23,14.45L592.16,154H538.24l9.64,10.09,4,4.18H485.63L498.91,154H445.69l14.08-21.72,7.05-10.87.43-.67.44-.66,1.42-2.21H444.47l11.71-22.56L445.78,70H469.2l-1.51-2.4-.44-.68-.43-.69-7.05-11.13L445.78,33H499L485.72,19h67.81l-5.65,5.18L538.24,33h52.61l-9.77,16.62-9.23,15.69L569.09,70h23.07l-10,25.32Z"/><path class="cls-1" d="M392.57,0h-64.7a2.24,2.24,0,0,1-3.57,2.65A2.22,2.22,0,0,1,323.93,0H219.32a7.18,7.18,0,0,0-7.18,7.18V180.42a7.18,7.18,0,0,0,7.18,7.18H392.57a7.17,7.17,0,0,0,7.17-7.18V7.18A7.17,7.17,0,0,0,392.57,0ZM356.86,18.13a4.53,4.53,0,1,1,0,6.41A4.53,4.53,0,0,1,356.86,18.13Zm-9.61-7.47a3.78,3.78,0,1,1,0,5.34A3.78,3.78,0,0,1,347.25,10.66ZM336,3.72A3,3,0,1,1,336,8,3,3,0,0,1,336,3.72Zm35.23,155.87a92.51,92.51,0,0,1-65.66,27.22,90.73,90.73,0,0,1-65.12-26.69A92.08,92.08,0,0,1,213.8,95c.53-20.82,8-40,22.95-55a79,79,0,0,1,55-23c20.81.54,40,8,55,23a79,79,0,0,1,22.95,55,64.06,64.06,0,1,1-128.11,0,49.2,49.2,0,0,1,49.11-49.11,49.21,49.21,0,0,1,49.64,49.64,35.23,35.23,0,1,1-70.46,0c.53-5.87,2.13-10.67,6.41-14.94a21.07,21.07,0,0,1,14.94-6.41c5.87.54,10.68,2.14,14.95,6.41a21.07,21.07,0,0,1,6.4,14.94,6.41,6.41,0,1,1-12.81,0,7.47,7.47,0,1,0-14.94,0,21.89,21.89,0,1,0,43.77,0,36.3,36.3,0,0,0-72.6,0,48,48,0,0,0,14.41,35.77c9.61,9.61,21.89,14.41,35.77,14.42,28.29-.54,50.71-23,50.71-50.71-.53-17.63-6.94-33.64-19.22-45.92a65.11,65.11,0,0,0-45.9-19.21c-17.62.53-33.63,6.94-45.91,19.21A65.11,65.11,0,0,0,226.61,95a79,79,0,1,0,158,0,95.09,95.09,0,0,0-21.36-59.79c-2.13-3.2-2.13-7.47,1.07-9.6s7.48-2.14,9.61,1.06c15.48,18.69,24,43.25,24,67.8S388.89,142,371.27,159.59Z"/><path class="cls-1" d="M180.91,0H6.69A6.7,6.7,0,0,0,0,6.69V19.18H0v21A6.69,6.69,0,0,0,6.69,46.9H134a6.7,6.7,0,0,1,6.21,4.21,6.8,6.8,0,0,1,.48,2.48V63.66a6.57,6.57,0,0,1-.13,1.26,2.07,2.07,0,0,1,0,.22A6.69,6.69,0,0,1,134,70.35H6.69A6.7,6.7,0,0,0,0,77V180.91a6.7,6.7,0,0,0,6.69,6.69H180.91a6.7,6.7,0,0,0,6.69-6.69V147.39a6.69,6.69,0,0,0-6.69-6.69H53.59A6.69,6.69,0,0,1,47.2,136a6.49,6.49,0,0,1-.3-2V123.94a6.69,6.69,0,0,1,6.69-6.69H180.91a6.7,6.7,0,0,0,6.69-6.69V6.69A6.7,6.7,0,0,0,180.91,0Z"/></g></g></svg>