<?xml version="1.0" encoding="iso-8859-1"?>
<!-- Uploaded to: SVG Repo, www.svgrepo.com, Generator: SVG Repo Mixer Tools -->
<svg fill="#000000" height="800px" width="800px" version="1.1" id="Layer_1" xmlns="http://www.w3.org/2000/svg" xmlns:xlink="http://www.w3.org/1999/xlink" 
	 viewBox="0 0 512 512" xml:space="preserve">
<g>
	<g>
		<path d="M485.735,199.489h-37.75c-3.998-13.649-9.447-26.804-16.271-39.281l26.694-26.694c10.258-10.256,10.258-26.887,0-37.143
			l-42.777-42.777c-10.258-10.256-26.887-10.256-37.143,0l-26.695,26.694c-12.478-6.824-25.633-12.274-39.281-16.271v-37.75
			c0-14.506-11.759-26.265-26.265-26.265h-60.494c-14.506,0-26.265,11.759-26.265,26.265v37.75
			c-13.649,3.997-26.804,9.446-39.281,16.27l-26.694-26.694c-10.258-10.256-26.887-10.256-37.143,0L53.592,96.37
			c-10.258,10.256-10.258,26.887,0,37.143l26.694,26.694c-6.824,12.478-12.274,25.633-16.271,39.281h-37.75
			C11.759,199.489,0,211.248,0,225.752v60.495c0,14.506,11.759,26.265,26.265,26.265h37.75c3.997,13.649,9.446,26.804,16.271,39.281
			l-26.694,26.694c-10.258,10.256-10.258,26.887,0,37.143l42.777,42.777c10.258,10.256,26.887,10.256,37.143,0l26.694-26.694
			c12.478,6.824,25.633,12.274,39.281,16.27v37.75c0,14.506,11.759,26.265,26.265,26.265h60.494
			c14.506,0,26.265-11.759,26.265-26.265v-37.75c13.649-3.997,26.805-9.446,39.281-16.271l26.694,26.694
			c10.256,10.256,26.887,10.256,37.143,0l42.777-42.777c10.258-10.256,10.258-26.887,0-37.143l-26.694-26.694
			c6.824-12.477,12.275-25.633,16.271-39.281h37.75c14.506,0,26.265-11.759,26.265-26.265v-60.495
			C512,211.248,500.24,199.489,485.735,199.489z M255.999,87.21c9.265,0,16.776,7.511,16.776,16.776s-7.511,16.776-16.776,16.776
			s-16.775-7.511-16.775-16.776S246.735,87.21,255.999,87.21z M136.647,136.648c6.55-6.552,17.173-6.552,23.723,0
			c6.552,6.552,6.552,17.173,0,23.723c-6.552,6.552-17.173,6.552-23.723,0C130.096,153.82,130.096,143.198,136.647,136.648z
			 M103.985,272.776c-9.265,0-16.776-7.511-16.776-16.776s7.511-16.776,16.776-16.776c9.264,0,16.775,7.511,16.775,16.776
			S113.249,272.776,103.985,272.776z M160.371,375.353c-6.552,6.552-17.173,6.552-23.723,0c-6.552-6.552-6.552-17.173,0-23.723
			c6.552-6.552,17.173-6.552,23.723,0C166.922,358.18,166.922,368.802,160.371,375.353z M255.999,424.791
			c-9.264-0.001-16.775-7.512-16.775-16.776c0-9.265,7.511-16.776,16.775-16.776c9.265,0,16.776,7.511,16.776,16.776
			S265.264,424.791,255.999,424.791z M256,359.98c-57.469,0-103.98-46.506-103.98-103.98c0-57.469,46.505-103.98,103.98-103.98
			c57.467,0,103.981,46.504,103.981,103.98C359.98,313.468,313.475,359.98,256,359.98z M375.353,375.353
			c-6.552,6.55-17.173,6.55-23.724,0c-6.552-6.552-6.552-17.173,0-23.723c6.552-6.552,17.173-6.552,23.724,0
			C381.904,358.181,381.904,368.803,375.353,375.353z M375.353,160.371c-6.552,6.552-17.173,6.552-23.724,0
			c-6.552-6.55-6.552-17.173,0-23.723c6.552-6.552,17.173-6.552,23.724,0C381.904,143.199,381.904,153.821,375.353,160.371z
			 M408.015,272.776c-9.265,0-16.775-7.511-16.775-16.776s7.511-16.776,16.775-16.776c9.264,0,16.775,7.511,16.775,16.776
			S417.279,272.776,408.015,272.776z"/>
	</g>
</g>
</svg>