<svg xmlns="http://www.w3.org/2000/svg" viewBox="0 0 87.08 71.88"><defs><style>.cls-1{fill:#fff;}</style></defs><g id="Sobre_Nosotros" data-name="Sobre Nosotros"><path class="cls-1" d="M66.68,71.88h-.2a3.53,3.53,0,0,1-3.33-3.54l0-10.51a4.27,4.27,0,0,0-2.06-3.64l-7.62-4.54-6.06,8a6.64,6.64,0,0,1-2.69,2.09L28.4,66.57a3.36,3.36,0,0,1-4.12-1.27l-.38-.59a3.35,3.35,0,0,1,1.25-4.79l14.33-7.6a4.23,4.23,0,0,0,1.85-2l5.74-12.43a1.17,1.17,0,0,1,1.57-.58,1.19,1.19,0,0,1,.58,1.57L43.48,51.35a6.64,6.64,0,0,1-2.89,3.06L26.26,62a1,1,0,0,0-.5.63,1,1,0,0,0,.13.78l.38.59a1,1,0,0,0,1.22.38l16.33-6.88a4.18,4.18,0,0,0,1.73-1.33l6.69-8.8a1.18,1.18,0,0,1,1.55-.3l8.53,5.08a6.63,6.63,0,0,1,3.22,5.68l0,10.51a1.16,1.16,0,0,0,1.1,1.16,1.18,1.18,0,0,0,1.22-1l1.74-12.57a4.2,4.2,0,0,0-1.36-3.73l-7.28-6.5A6.75,6.75,0,0,1,59,38.46l5.56-16a1.18,1.18,0,0,1,.78-.74,1.19,1.19,0,0,1,1.06.19,35.42,35.42,0,0,0,14.78,6.56l2.32.43a1,1,0,0,0,1-.42A1,1,0,0,0,84,26.94l-4.49-1.45a37.36,37.36,0,0,1-9.91-4.89l-7.35-5.74a1.2,1.2,0,0,1-.2-1.67,1.19,1.19,0,0,1,1.66-.2L71,18.69a35.44,35.44,0,0,0,9.23,4.55l4.5,1.44a3.36,3.36,0,0,1-1.65,6.5l-2.31-.43A38,38,0,0,1,66.32,24.7l-5,14.53a4.37,4.37,0,0,0,1.23,4.71l7.27,6.51a6.58,6.58,0,0,1,2.14,5.82L70.18,68.84A3.55,3.55,0,0,1,66.68,71.88Z"/><path class="cls-1" d="M48.15,39.61a1.15,1.15,0,0,1-.26,0,1.18,1.18,0,0,1-.9-1.41l3.33-15.31a64.37,64.37,0,0,0-10.51,8.77l-1.54,1.59a3.32,3.32,0,0,1-2.76,1A3.38,3.38,0,0,1,33,32.67l-.35-.56A3.36,3.36,0,0,1,33,28L34,27A62.29,62.29,0,0,1,52,13.5l3.5-1.75a1.19,1.19,0,0,1,1.06,2.12l-3.5,1.75a60,60,0,0,0-17.32,13l-1,1a1,1,0,0,0-.11,1.2l.35.56a1,1,0,0,0,.74.46,1,1,0,0,0,.81-.3L38.11,30A66.35,66.35,0,0,1,51.47,19.33a1.2,1.2,0,0,1,1.3.05,1.18,1.18,0,0,1,.47,1.22L49.3,38.67A1.18,1.18,0,0,1,48.15,39.61Z"/><path class="cls-1" d="M61.25,15.36l-.44,0a7.68,7.68,0,0,1-7.23-8.09,7.68,7.68,0,1,1,15.33.86h0a7.69,7.69,0,0,1-7.66,7.25Zm0-13a5.31,5.31,0,0,0-3.95,8.85A5.31,5.31,0,0,0,66.54,8h0a5.3,5.3,0,0,0-5-5.6Z"/><path class="cls-1" d="M23.12,50.81H1.18a1.19,1.19,0,0,1,0-2.37H23.12a1.19,1.19,0,1,1,0,2.37Z"/><path class="cls-1" d="M35.52,42.1H18a1.19,1.19,0,1,1,0-2.37H35.52a1.19,1.19,0,0,1,0,2.37Z"/></g></svg>