<svg xmlns="http://www.w3.org/2000/svg" viewBox="0 0 44.62 71.62"><defs><style>.cls-1{fill:#fff;}</style></defs><g id="Sobre_Nosotros" data-name="Sobre Nosotros"><path class="cls-1" d="M38.26,71.62H6.36A6.36,6.36,0,0,1,0,65.26V6.36A6.36,6.36,0,0,1,6.36,0h31.9a6.36,6.36,0,0,1,6.36,6.36v58.9A6.36,6.36,0,0,1,38.26,71.62ZM6.36,2.37a4,4,0,0,0-4,4v58.9a4,4,0,0,0,4,4h31.9a4,4,0,0,0,4-4V6.36a4,4,0,0,0-4-4Z"/><path class="cls-1" d="M43.43,60.28H1.18A1.18,1.18,0,0,1,0,59.1v-48A1.18,1.18,0,0,1,1.18,9.91H43.43a1.18,1.18,0,0,1,1.19,1.18v48A1.18,1.18,0,0,1,43.43,60.28ZM2.37,57.91H42.25V12.27H2.37Z"/><path class="cls-1" d="M23,66.12H21.67a1.19,1.19,0,0,1,0-2.37H23a1.19,1.19,0,0,1,0,2.37Z"/><path class="cls-1" d="M22.31,46.51a13.1,13.1,0,1,1,13.1-13.09A13.11,13.11,0,0,1,22.31,46.51Zm0-24.55A11.46,11.46,0,1,0,33.77,33.42,11.47,11.47,0,0,0,22.31,22Z"/><path class="cls-1" d="M15.55,38.68v-11H20a4.11,4.11,0,0,1,2.62.75,2.57,2.57,0,0,1,.93,2.12,2.52,2.52,0,0,1-.6,1.72,2.88,2.88,0,0,1-1.63.9V33a3.22,3.22,0,0,1,1.34.45,2.3,2.3,0,0,1,.86.92,2.81,2.81,0,0,1,.3,1.33,3.08,3.08,0,0,1-.43,1.66,2.67,2.67,0,0,1-1.24,1,5,5,0,0,1-2,.35Zm1.25-6.09h3a3,3,0,0,0,1.85-.49,2,2,0,0,0,0-2.9,3,3,0,0,0-1.85-.49h-3Zm0,5.06H20a4.94,4.94,0,0,0,.9-.08,2.34,2.34,0,0,0,.69-.24,2,2,0,0,0,.5-.4,1.67,1.67,0,0,0,.3-.56,2.79,2.79,0,0,0,0-1.48,1.77,1.77,0,0,0-.3-.56,1.61,1.61,0,0,0-.5-.39,2.34,2.34,0,0,0-.69-.24,4.94,4.94,0,0,0-.9-.08H16.8Z"/><path class="cls-1" d="M27.38,38.82a5.44,5.44,0,0,1-2.17-.45,3.17,3.17,0,0,1-.82-.51L24.8,37a4.16,4.16,0,0,0,.81.49,4.29,4.29,0,0,0,1.81.38,2.28,2.28,0,0,0,1.34-.33,1,1,0,0,0,.45-.89.86.86,0,0,0-.3-.69,2.07,2.07,0,0,0-.93-.4l-1.42-.31a2.78,2.78,0,0,1-1.46-.7,1.8,1.8,0,0,1-.48-1.3A2,2,0,0,1,25,32a2.28,2.28,0,0,1,1-.79A3.92,3.92,0,0,1,27.59,31a4.17,4.17,0,0,1,1,.11,3.93,3.93,0,0,1,.91.32,2.52,2.52,0,0,1,.74.52l-.42.89a2.72,2.72,0,0,0-.67-.48,3.28,3.28,0,0,0-.77-.29,3.09,3.09,0,0,0-.8-.11,2.15,2.15,0,0,0-1.33.35,1.08,1.08,0,0,0-.45.9,1,1,0,0,0,.28.72,1.68,1.68,0,0,0,.87.4l1.42.3a3.26,3.26,0,0,1,1.52.69,1.69,1.69,0,0,1,.51,1.29A1.92,1.92,0,0,1,30,37.76a2.29,2.29,0,0,1-1.05.78A4.28,4.28,0,0,1,27.38,38.82Z"/></g></svg>