<svg id="Capa_1" data-name="Capa 1" xmlns="http://www.w3.org/2000/svg" viewBox="0 0 80.16 96.64"><defs><style>.cls-1{fill:#fff;}</style></defs><path class="cls-1" d="M73.91,19H58a1.57,1.57,0,0,1-1.57-1.57V1.57A1.57,1.57,0,0,1,59.14.46L75,16.33a1.61,1.61,0,0,1,.34,1.72A1.58,1.58,0,0,1,73.91,19ZM59.6,15.87H70.12L59.6,5.36Z"/><path class="cls-1" d="M73.91,96.64H1.57A1.57,1.57,0,0,1,0,95.07V1.57A1.57,1.57,0,0,1,1.57,0H58a1.57,1.57,0,0,1,1.11.46L75,16.33a1.61,1.61,0,0,1,.46,1.11V82.05a1.57,1.57,0,0,1-3.14,0v-64l-15-14.95H3.14V93.5h69.2V92.3a1.57,1.57,0,0,1,3.14,0v2.77A1.57,1.57,0,0,1,73.91,96.64Z"/><path class="cls-1" d="M38.07,78.94A27.17,27.17,0,1,1,65.23,51.78,27.19,27.19,0,0,1,38.07,78.94Zm0-51.19a24,24,0,1,0,24,24A24.06,24.06,0,0,0,38.07,27.75Z"/><path class="cls-1" d="M74.73,93.87a5.35,5.35,0,0,1-3.82-1.58L52.12,73.51a1.58,1.58,0,0,1,0-2.22,1.56,1.56,0,0,1,2.22,0L73.13,90.07a2.29,2.29,0,0,0,3.19,0,2.27,2.27,0,0,0,0-3.23l-18-18a1.57,1.57,0,0,1,2.22-2.22l18,18a5.43,5.43,0,0,1-3.85,9.25Z"/><path class="cls-1" d="M54.37,61.42H21.76a1.57,1.57,0,0,1,0-3.14H54.37a1.57,1.57,0,0,1,0,3.14Z"/><path class="cls-1" d="M33.72,61.42H25a1.57,1.57,0,0,1-1.57-1.57V52.08A1.57,1.57,0,0,1,25,50.51h8.7a1.58,1.58,0,0,1,1.57,1.57v7.77A1.57,1.57,0,0,1,33.72,61.42Zm-7.13-3.14h5.56V53.65H26.59Z"/><path class="cls-1" d="M42.41,61.42H33.72a1.57,1.57,0,0,1-1.57-1.57v-13a1.57,1.57,0,0,1,1.57-1.57h8.69A1.57,1.57,0,0,1,44,46.86v13A1.57,1.57,0,0,1,42.41,61.42Zm-7.12-3.14h5.55V48.43H35.29Z"/><path class="cls-1" d="M51.11,61.42h-8.7a1.57,1.57,0,0,1-1.57-1.57V41.64a1.57,1.57,0,0,1,1.57-1.56h8.7a1.56,1.56,0,0,1,1.57,1.56V59.85A1.57,1.57,0,0,1,51.11,61.42ZM44,58.28h5.56V43.21H44Z"/></svg>