<svg id="Capa_1" data-name="Capa 1" xmlns="http://www.w3.org/2000/svg" viewBox="0 0 55.12 55.12"><defs><style>.cls-1{fill:#fff;}</style></defs><path class="cls-1" d="M27.56,55.12A27.56,27.56,0,1,1,46,7.11a.85.85,0,1,1-1.14,1.27,25.85,25.85,0,1,0,8.52,19.18.86.86,0,1,1,1.71,0A27.59,27.59,0,0,1,27.56,55.12Z"/><path class="cls-1" d="M38.87,9.36A.87.87,0,0,1,38,8.59a.85.85,0,0,1,.77-.94L44.57,7,44,1.15A.85.85,0,1,1,45.65,1l.72,6.73a.86.86,0,0,1-.76.94L39,9.35Z"/><path class="cls-1" d="M27.56,46.32A18.76,18.76,0,1,1,46.32,27.56,18.79,18.79,0,0,1,27.56,46.32Zm0-35.8a17,17,0,1,0,17,17A17.05,17.05,0,0,0,27.56,10.52Z"/><path class="cls-1" d="M27.56,12.56a.86.86,0,0,1-.86-.86v-2a.86.86,0,1,1,1.72,0v2A.86.86,0,0,1,27.56,12.56Z"/><path class="cls-1" d="M19.63,14.69a.87.87,0,0,1-.74-.43l-1-1.77a.86.86,0,1,1,1.48-.86l1,1.77a.85.85,0,0,1-.31,1.17A.82.82,0,0,1,19.63,14.69Z"/><path class="cls-1" d="M13.83,20.49a.82.82,0,0,1-.43-.12l-1.77-1a.86.86,0,0,1,.86-1.48l1.77,1a.86.86,0,0,1-.43,1.6Z"/><path class="cls-1" d="M11.7,28.42h-2a.86.86,0,0,1,0-1.72h2a.86.86,0,1,1,0,1.72Z"/><path class="cls-1" d="M12.06,37.37a.86.86,0,0,1-.74-.43.85.85,0,0,1,.31-1.17l1.77-1a.86.86,0,0,1,.86,1.48l-1.77,1A.88.88,0,0,1,12.06,37.37Z"/><path class="cls-1" d="M18.61,43.92a.86.86,0,0,1-.74-1.29l1-1.77a.86.86,0,1,1,1.48.86l-1,1.77A.84.84,0,0,1,18.61,43.92Z"/><path class="cls-1" d="M27.56,46.32a.87.87,0,0,1-.86-.86v-2a.86.86,0,0,1,1.72,0v2A.87.87,0,0,1,27.56,46.32Z"/><path class="cls-1" d="M36.51,43.92a.84.84,0,0,1-.74-.43l-1-1.77a.86.86,0,1,1,1.48-.86l1,1.77a.86.86,0,0,1-.74,1.29Z"/><path class="cls-1" d="M43.06,37.37a.88.88,0,0,1-.43-.12l-1.77-1a.86.86,0,0,1,.86-1.48l1.77,1a.86.86,0,0,1-.43,1.6Z"/><path class="cls-1" d="M45.46,28.42h-2a.86.86,0,1,1,0-1.72h2a.86.86,0,0,1,0,1.72Z"/><path class="cls-1" d="M41.29,20.49a.86.86,0,0,1-.43-1.6l1.77-1a.86.86,0,0,1,.86,1.48l-1.77,1A.82.82,0,0,1,41.29,20.49Z"/><path class="cls-1" d="M35.49,14.69a.82.82,0,0,1-.43-.12.85.85,0,0,1-.31-1.17l1-1.77a.86.86,0,1,1,1.48.86l-1,1.77A.87.87,0,0,1,35.49,14.69Z"/><path class="cls-1" d="M31.82,31.22a.83.83,0,0,1-.47-.14l-4.26-2.8a.87.87,0,0,1-.39-.72V16.09a.86.86,0,1,1,1.72,0v11l3.88,2.55a.86.86,0,0,1,.24,1.19A.85.85,0,0,1,31.82,31.22Z"/></svg>