<svg id="Capa_1" data-name="Capa 1" xmlns="http://www.w3.org/2000/svg" viewBox="0 0 58.41 58.41"><defs><style>.cls-1{fill:#fff;}</style></defs><path class="cls-1" d="M26.72,41.21a1,1,0,0,1-.68-.28L14.65,29.54a1,1,0,0,1,0-1.35l4-4a1,1,0,0,1,1.35,0L26.72,31,38.44,19.24a1,1,0,0,1,.68-.28h0a.93.93,0,0,1,.67.28l4,4a1,1,0,0,1,0,1.35L27.39,40.93A1,1,0,0,1,26.72,41.21Zm-10-12.34,10,10,15-15-2.61-2.61L27.39,33A1,1,0,0,1,26,33l-6.75-6.75Z"/><path class="cls-1" d="M29.21,58.41a5.1,5.1,0,0,1-3.64-1.5,3.22,3.22,0,0,0-3.52-.7,5.13,5.13,0,0,1-6.72-2.76l-.05-.11a3.22,3.22,0,0,0-3-2h-.11a5.14,5.14,0,0,1-5.14-5.14,3.22,3.22,0,0,0-2-3,5.13,5.13,0,0,1-2.8-6.7l0-.12a3.21,3.21,0,0,0-.7-3.5l-.09-.08a5.14,5.14,0,0,1,0-7.27,3.22,3.22,0,0,0,.69-3.52A5.14,5.14,0,0,1,5,15.33l.11-.05a3.22,3.22,0,0,0,2-3v-.12a5.14,5.14,0,0,1,5.14-5.14,3.22,3.22,0,0,0,3-2,5.14,5.14,0,0,1,6.71-2.8l.1,0a3.22,3.22,0,0,0,3.51-.7l.08-.08a5.13,5.13,0,0,1,7.27,0,3.22,3.22,0,0,0,3.52.69A5.16,5.16,0,0,1,43.09,5l0,.11a3.22,3.22,0,0,0,3,2h.11a5.14,5.14,0,0,1,5.14,5.14,3.22,3.22,0,0,0,2,3,5.16,5.16,0,0,1,2.81,6.71l-.05.1a3.24,3.24,0,0,0,.7,3.51l.09.08a5.15,5.15,0,0,1,0,7.27h0a3.22,3.22,0,0,0-.7,3.52,5.15,5.15,0,0,1-2.76,6.73l-.1,0a3.22,3.22,0,0,0-2,3v.11a5.14,5.14,0,0,1-5.14,5.14,3.22,3.22,0,0,0-3,2,5.15,5.15,0,0,1-6.71,2.81l-.1-.05a3.24,3.24,0,0,0-3.51.7l-.08.09A5.1,5.1,0,0,1,29.21,58.41ZM23.3,54a5.17,5.17,0,0,1,3.63,1.51,3.17,3.17,0,0,0,2.28,1,3.21,3.21,0,0,0,2.28-1l.08-.08a5.12,5.12,0,0,1,5.58-1.12l.11,0a3.23,3.23,0,0,0,4.21-1.75,5.11,5.11,0,0,1,4.75-3.19,3.23,3.23,0,0,0,3.23-3.23v-.11a5.12,5.12,0,0,1,3.16-4.74l.1,0a3.22,3.22,0,0,0,1.73-4.22,5.13,5.13,0,0,1,1.11-5.61,3.22,3.22,0,0,0,0-4.56l-.08-.09a5.12,5.12,0,0,1-1.12-5.58l0-.11a3.23,3.23,0,0,0-1.75-4.21,5.11,5.11,0,0,1-3.19-4.75A3.23,3.23,0,0,0,46.22,9h-.11a5.11,5.11,0,0,1-4.74-3.15l0-.11A3.23,3.23,0,0,0,37.1,4a5.11,5.11,0,0,1-5.61-1.11,3.22,3.22,0,0,0-4.56,0l-.09.08a5.12,5.12,0,0,1-5.58,1.12l-.11,0a3.16,3.16,0,0,0-2.47,0,3.21,3.21,0,0,0-1.74,1.75A5.12,5.12,0,0,1,12.19,9,3.23,3.23,0,0,0,9,12.19v.12a5.14,5.14,0,0,1-3.15,4.74l-.11,0A3.21,3.21,0,0,0,4,18.84a3.16,3.16,0,0,0,0,2.47,5.14,5.14,0,0,1-1.11,5.62,3.22,3.22,0,0,0,0,4.56l.08.08a5.12,5.12,0,0,1,1.12,5.58l0,.11a3.22,3.22,0,0,0,1.76,4.21A5.12,5.12,0,0,1,9,46.22a3.23,3.23,0,0,0,3.23,3.23h.11a5.14,5.14,0,0,1,4.75,3.16l0,.1a3.24,3.24,0,0,0,4.22,1.74A5.14,5.14,0,0,1,23.3,54Z"/></svg>