<svg xmlns="http://www.w3.org/2000/svg" viewBox="0 0 22.96 19.61"><defs><style>.cls-1{fill:#fff;}</style></defs><g id="Sobre_Nosotros" data-name="Sobre Nosotros"><path class="cls-1" d="M18.47,19.61a1.26,1.26,0,0,1-.89-.37l-3.67-3.67H1.28A1.28,1.28,0,0,1,0,14.29v-13A1.28,1.28,0,0,1,1.28,0H21.69A1.27,1.27,0,0,1,23,1.28v13a1.27,1.27,0,0,1-1.27,1.28H19.75v2.76A1.25,1.25,0,0,1,19,19.51,1.27,1.27,0,0,1,18.47,19.61ZM1.28.78a.5.5,0,0,0-.5.5v13a.5.5,0,0,0,.5.5H14.07a.43.43,0,0,1,.28.11l3.78,3.79a.49.49,0,0,0,.54.1.49.49,0,0,0,.3-.46V15.18a.39.39,0,0,1,.39-.39h2.33a.49.49,0,0,0,.49-.5v-13a.49.49,0,0,0-.49-.5Z"/><path class="cls-1" d="M13.83,5.12H5a.38.38,0,0,1-.39-.39A.39.39,0,0,1,5,4.34h8.85a.4.4,0,0,1,.39.39A.39.39,0,0,1,13.83,5.12Z"/><path class="cls-1" d="M18,8.24H5a.39.39,0,0,1,0-.78H18a.39.39,0,0,1,0,.78Z"/><path class="cls-1" d="M18,11.36H5A.39.39,0,0,1,4.59,11,.38.38,0,0,1,5,10.58H18a.38.38,0,0,1,.39.39A.39.39,0,0,1,18,11.36Z"/></g></svg>