<?xml version="1.0" encoding="iso-8859-1"?>
<svg fill="hsl(360, 100%, 43%)" height="800px" width="800px" version="1.1" id="Layer_1" xmlns="http://www.w3.org/2000/svg" xmlns:xlink="http://www.w3.org/1999/xlink" 
	 viewBox="0 0 512 512" xml:space="preserve">
<g>
	<g>
		<path d="M251.951,127.17V94.754c0-13.915-11.281-25.196-25.196-25.196H45.352c-13.915,0-25.196,11.281-25.196,25.196v32.417
			C8.657,129.505,0,139.672,0,151.862c0,13.915,11.281,25.195,25.196,25.195c18.022,0,68.869,0,85.661,0v240.189
			c0,13.915,11.281,25.195,25.196,25.195c13.915,0,25.196-11.28,25.196-25.195V177.057c16.792,0,67.639,0,85.661,0
			c13.915,0,25.195-11.28,25.195-25.195C272.105,139.672,263.45,129.505,251.951,127.17z"/>
	</g>
</g>
<g>
	<g>
		<path d="M511.966,206.989c-0.512-62.183-51.257-112.615-113.559-112.615c-62.62,0-113.564,50.945-113.564,113.564
			c0,0.115,27.064,219.649,27.078,219.762c1.038,8.418,8.19,14.742,16.671,14.742h139.627c8.482,0,15.634-6.325,16.671-14.742
			C513.602,194.774,512.032,208.186,511.966,206.989z M320.213,191.14c7.738-36.058,39.858-63.171,78.194-63.171
			s70.456,27.113,78.193,63.171H320.213z"/>
	</g>
</g>
</svg>