<?xml version="1.0" encoding="iso-8859-1"?>
<!DOCTYPE svg PUBLIC "-//W3C//DTD SVG 1.1//EN" "http://www.w3.org/Graphics/SVG/1.1/DTD/svg11.dtd">
<svg fill="hsl(360, 100%, 43%)" height="800px" width="800px" version="1.1" id="Capa_1" xmlns="http://www.w3.org/2000/svg" xmlns:xlink="http://www.w3.org/1999/xlink" 
	 viewBox="0 0 354.721 354.721" xml:space="preserve">
<path d="M244.452,67.091c-21.036,0-40.712,5.924-57.455,16.187c-0.075,0.016-0.151,0.027-0.227,0.044
	c-1.4-8.47-7.022-15.893-15.257-19.396c-3.195-1.359-6.564-2.048-10.013-2.048c-5.799,0-11.356,1.987-15.804,5.463
	c-4.399-7.947-12.882-13.248-22.428-13.248c-8.939,0-17.016,4.626-21.623,11.864c-4.301-3.066-9.515-4.785-14.901-4.785
	c-3.284,0-6.505,0.627-9.572,1.864C68.312,66.609,62.427,74.7,61.323,83.72c-2.307-0.668-4.709-1.016-7.128-1.016
	c-6.834,0-13.258,2.661-18.09,7.493c-6.314,6.314-8.747,15.29-6.881,23.665c-8.559,1.412-15.917,7.087-19.39,15.254
	c-3.735,8.783-2.179,18.661,3.41,25.819C5.298,159.335,0,167.816,0,177.361c0,8.936,4.622,17.009,11.854,21.616
	c-4.985,6.978-6.252,16.193-2.911,24.481c3.539,8.776,11.46,14.755,20.677,15.854c-2.508,8.728-0.262,18.467,6.484,25.213
	c4.829,4.829,11.25,7.488,18.082,7.488c1.884,0,3.755-0.207,5.579-0.613c1.4,8.469,7.022,15.893,15.257,19.396
	c3.195,1.359,6.564,2.048,10.013,2.048c5.799,0,11.356-1.986,15.804-5.463c4.399,7.947,12.882,13.248,22.428,13.248
	c8.939,0,17.016-4.626,21.622-11.864c4.301,3.065,9.515,4.784,14.901,4.784c3.284,0,6.505-0.627,9.572-1.864
	c8.859-3.572,14.744-11.664,15.849-20.684c0.593,0.172,1.192,0.321,1.795,0.449c16.74,10.258,36.413,16.179,57.444,16.179
	c60.803,0,110.27-49.467,110.27-110.27S305.254,67.091,244.452,67.091z M184.941,231.167
	c-12.893-14.247-20.758-33.124-20.758-53.806s7.865-39.56,20.758-53.806c12.583,14.404,20.231,33.223,20.231,53.806
	S197.523,216.763,184.941,231.167z M161.399,249.815c-11.397,6.022-24.368,9.45-38.131,9.45c-45.163,0-81.905-36.742-81.905-81.905
	s36.742-81.905,81.905-81.905c13.762,0,26.734,3.427,38.131,9.45c-16.939,19.392-27.216,44.745-27.216,72.455
	S144.46,230.424,161.399,249.815z M244.452,257.63c-9.601,0-18.811-1.699-27.352-4.804c1.003-3.893,1.097-7.996,0.213-11.967
	c8.56-1.411,15.916-7.087,19.39-15.254c3.735-8.783,2.179-18.661-3.41-25.819c7.945-4.4,13.243-12.88,13.243-22.425
	c0-8.935-4.622-17.008-11.854-21.616c4.985-6.978,6.253-16.193,2.911-24.48c-3.539-8.777-11.46-14.756-20.677-15.854
	c1.27-4.419,1.316-9.096,0.181-13.513c8.542-3.106,17.753-4.805,27.355-4.805c44.261,0,80.27,36.009,80.27,80.27
	S288.712,257.63,244.452,257.63z"/>
</svg>