<svg xmlns="http://www.w3.org/2000/svg" viewBox="0 0 18.35 27.12"><defs><style>.cls-1{fill:#fff;}</style></defs><g id="Sobre_Nosotros" data-name="Sobre Nosotros"><path class="cls-1" d="M12.3,27.12a.42.42,0,0,1-.4-.28l-1.51-4.11L7,24.49a.45.45,0,0,1-.42,0,.43.43,0,0,1-.2-.36v-17a.42.42,0,0,1,.75-.27L18.25,20.15a.42.42,0,0,1-.25.69l-4,.74,1.5,4a.4.4,0,0,1,0,.34.45.45,0,0,1-.25.22l-2.84.92Zm-1.67-5.41a.4.4,0,0,1,.15,0A.44.44,0,0,1,11,22l1.53,4.17,2-.66-1.53-4.1a.38.38,0,0,1,0-.36.45.45,0,0,1,.29-.21l3.76-.69L7.19,8.27V23.41l3.24-1.66A.45.45,0,0,1,10.63,21.71Z"/><path class="cls-1" d="M6.77,3.4A.43.43,0,0,1,6.34,3V.43a.43.43,0,1,1,.85,0V3A.42.42,0,0,1,6.77,3.4Z"/><path class="cls-1" d="M2.85,6.25a.35.35,0,0,1-.14,0L.3,5.44A.43.43,0,0,1,0,4.9a.42.42,0,0,1,.54-.27L3,5.41a.43.43,0,0,1-.13.84Z"/><path class="cls-1" d="M2.85,12.91a.38.38,0,0,1-.25-.08.43.43,0,0,1-.1-.6L4,10.18a.43.43,0,1,1,.69.5l-1.5,2.06A.42.42,0,0,1,2.85,12.91Z"/><path class="cls-1" d="M6.77,14.19a.43.43,0,0,1-.43-.43V11.21a.43.43,0,0,1,.85,0v2.55A.43.43,0,0,1,6.77,14.19Z"/><path class="cls-1" d="M10.69,6.25a.43.43,0,0,1-.14-.84L13,4.63a.42.42,0,0,1,.54.27.43.43,0,0,1-.27.54l-2.42.78Z"/></g></svg>