<svg xmlns="http://www.w3.org/2000/svg" viewBox="0 0 42.76 57.14"><defs><style>.cls-1{fill:none;stroke:#000;stroke-linecap:round;stroke-linejoin:round;stroke-width:2px;}</style></defs><g id="Layer_2" data-name="Layer 2"><g id="Layer_1-2" data-name="Layer 1"><path class="cls-1" d="M12.59,1H30.17a2,2,0,0,1,2,2V8.19a0,0,0,0,1,0,0H10.59a0,0,0,0,1,0,0V3a2,2,0,0,1,2-2Z"/><polyline class="cls-1" points="36.96 5.79 41.76 5.79 41.76 56.14 1 56.14 1 5.79 5.79 5.79"/><polyline class="cls-1" points="5.79 22.58 10.59 27.37 17.78 20.18"/><line class="cls-1" x1="24.97" y1="24.97" x2="34.56" y2="24.97"/><polyline class="cls-1" points="5.79 36.96 10.59 41.76 17.78 34.56"/><line class="cls-1" x1="24.97" y1="39.36" x2="34.56" y2="39.36"/></g></g></svg>