<svg id="Capa_1" data-name="Capa 1" xmlns="http://www.w3.org/2000/svg" viewBox="0 0 65.72 55.67"><defs><style>.cls-1{fill:#fff;}</style></defs><path class="cls-1" d="M43.57,55.67H1.05a1,1,0,0,1-1-1V1.05A1,1,0,0,1,1.05,0H43.57a1,1,0,0,1,1,1.05V18.23a1,1,0,0,1-2.09,0V2.09H2.09V53.58H42.52V32.63a1,1,0,1,1,2.09,0v22A1,1,0,0,1,43.57,55.67Z"/><path class="cls-1" d="M18.24,24.38H9.78a1,1,0,0,1-1-1.05V14.87a1,1,0,0,1,1-1h8.46a1,1,0,0,1,1,1v8.46A1,1,0,0,1,18.24,24.38Zm-7.41-2.1h6.36V15.92H10.83Z"/><path class="cls-1" d="M18.24,41.85H9.78a1,1,0,0,1-1-1.05V32.34a1,1,0,0,1,1-1h8.46a1,1,0,0,1,1,1V40.8A1,1,0,0,1,18.24,41.85Zm-7.41-2.1h6.36V33.39H10.83Z"/><path class="cls-1" d="M32.21,24.38H24.13a1.05,1.05,0,0,1,0-2.1h8.08a1,1,0,1,1,0,2.1Z"/><path class="cls-1" d="M32.21,41.85H24.13a1.05,1.05,0,0,1,0-2.1h8.08a1,1,0,0,1,0,2.1Z"/><path class="cls-1" d="M32.23,37.42a1.05,1.05,0,0,1-.74-.31,1,1,0,0,1-.26-1l2.55-8.81a1,1,0,0,1,.27-.45L53,7.88a1,1,0,0,1,1.48,0l6.26,6.25a1.05,1.05,0,0,1,.3.74,1.09,1.09,0,0,1-.3.74L41.78,34.55a1,1,0,0,1-.45.27l-8.81,2.55A.93.93,0,0,1,32.23,37.42Zm3.49-9.31-1.95,6.72,6.72-1.95,18-18L53.73,10.1Z"/><path class="cls-1" d="M41,34.86a1,1,0,0,1-.74-.31L34.05,28.3a1,1,0,0,1,1.48-1.48l6.25,6.25a1,1,0,0,1,0,1.48A1,1,0,0,1,41,34.86Z"/><path class="cls-1" d="M60,15.91a1.08,1.08,0,0,1-.74-.3L53,9.36a1.09,1.09,0,0,1-.3-.74,1.05,1.05,0,0,1,.3-.74l4.69-4.69a1,1,0,0,1,1.48,0l6.25,6.25a1,1,0,0,1,.31.74,1,1,0,0,1-.31.74l-4.68,4.69A1.08,1.08,0,0,1,60,15.91ZM55.21,8.62,60,13.39l3.21-3.21L58.42,5.41Z"/></svg>