<svg id="Capa_1" data-name="Capa 1" xmlns="http://www.w3.org/2000/svg" viewBox="0 0 75.55 58.19"><defs><style>.cls-1{fill:#fff;}</style></defs><path class="cls-1" d="M74.32,58.19H1.24a1.24,1.24,0,1,1,0-2.47H74.32a1.24,1.24,0,0,1,0,2.47Z"/><path class="cls-1" d="M1.24,58.19A1.23,1.23,0,0,1,0,57V2.75a1.24,1.24,0,1,1,2.47,0V57A1.23,1.23,0,0,1,1.24,58.19Z"/><path class="cls-1" d="M18.74,53.16H7.36a1.23,1.23,0,0,1-1.23-1.23v-8.8A1.23,1.23,0,0,1,7.36,41.9H18.74A1.23,1.23,0,0,1,20,43.13v8.8A1.23,1.23,0,0,1,18.74,53.16ZM8.6,50.69h8.9V44.37H8.6Z"/><path class="cls-1" d="M35.22,53.16H23.85a1.24,1.24,0,0,1-1.24-1.23v-17a1.24,1.24,0,0,1,1.24-1.23H35.22a1.24,1.24,0,0,1,1.24,1.23v17A1.24,1.24,0,0,1,35.22,53.16ZM25.08,50.69H34V36.13H25.08Z"/><path class="cls-1" d="M51.71,53.16H40.33a1.23,1.23,0,0,1-1.23-1.23V26.65a1.24,1.24,0,0,1,1.23-1.24H51.71a1.24,1.24,0,0,1,1.23,1.24V51.93A1.23,1.23,0,0,1,51.71,53.16ZM41.57,50.69h8.9V27.89h-8.9Z"/><path class="cls-1" d="M68.19,53.16H56.82a1.23,1.23,0,0,1-1.24-1.23V18.41a1.23,1.23,0,0,1,1.24-1.24H68.19a1.24,1.24,0,0,1,1.24,1.24V51.93A1.24,1.24,0,0,1,68.19,53.16ZM58.05,50.69H67v-31h-8.9Z"/><path class="cls-1" d="M7.36,37.26a1.24,1.24,0,0,1-.58-2.33L67.61,2.55a1.24,1.24,0,0,1,1.8,1.31l-1.13,6.32a1.23,1.23,0,1,1-2.43-.44l.68-3.81L7.94,37.12A1.18,1.18,0,0,1,7.36,37.26Z"/><path class="cls-1" d="M68.19,4.88a1.17,1.17,0,0,1-.45-.09l-6.08-2.4a1.24,1.24,0,0,1,.91-2.3l6.08,2.4a1.24,1.24,0,0,1-.46,2.39Z"/></svg>