<svg id="Capa_1" data-name="Capa 1" xmlns="http://www.w3.org/2000/svg" viewBox="0 0 72.47 55.42"><defs><style>.cls-1{fill:#fff;}</style></defs><path class="cls-1" d="M47.35,8.57H25.12A1.15,1.15,0,0,1,24,7.41V4.56A4.56,4.56,0,0,1,28.52,0H44A4.56,4.56,0,0,1,48.5,4.56V7.41A1.16,1.16,0,0,1,47.35,8.57ZM26.28,6.26H46.19V4.56A2.25,2.25,0,0,0,44,2.31H28.52a2.24,2.24,0,0,0-2.24,2.25Z"/><path class="cls-1" d="M64.92,55.42H7.55a4.69,4.69,0,0,1-4.68-4.68V29.61a1.15,1.15,0,0,1,1.37-1.13l13.1,2.45a1.16,1.16,0,0,1,.95,1.13v6h3.94V33.23A1.15,1.15,0,0,1,23.6,32.1l12.63,2.36L48.87,32.1a1.15,1.15,0,0,1,1,.24,1.18,1.18,0,0,1,.42.89v4.88h3.94v-6a1.16,1.16,0,0,1,1-1.13l13.09-2.45a1.15,1.15,0,0,1,1,.24,1.17,1.17,0,0,1,.41.89V50.74A4.68,4.68,0,0,1,64.92,55.42ZM5.19,31V50.74a2.37,2.37,0,0,0,2.36,2.37H64.92a2.37,2.37,0,0,0,2.36-2.37V31L56.5,33v6.25a1.16,1.16,0,0,1-1.16,1.16H49.08a1.16,1.16,0,0,1-1.16-1.16V34.63L36.45,36.78a1.55,1.55,0,0,1-.43,0L24.54,34.63v4.64a1.15,1.15,0,0,1-1.15,1.16H17.13A1.16,1.16,0,0,1,16,39.27V33Z"/><path class="cls-1" d="M36.23,36.8l-.21,0L23.17,34.37a1.16,1.16,0,0,1-.94-1.14V28.37H18.29v3.69a1.16,1.16,0,0,1-1.37,1.14L3.82,30.75A4.68,4.68,0,0,1,0,26.15V10.94A4.69,4.69,0,0,1,4.68,6.26H67.79a4.69,4.69,0,0,1,4.68,4.68V26.15a4.68,4.68,0,0,1-3.82,4.6L55.55,33.2a1.16,1.16,0,0,1-1.37-1.14V28.37H50.24v4.86a1.16,1.16,0,0,1-1,1.14L36.45,36.78ZM24.54,32.27l11.69,2.19,11.69-2.19V27.22a1.16,1.16,0,0,1,1.16-1.16h6.26a1.16,1.16,0,0,1,1.16,1.16v3.45l11.72-2.19a2.37,2.37,0,0,0,1.93-2.33V10.94a2.37,2.37,0,0,0-2.36-2.37H4.68a2.37,2.37,0,0,0-2.37,2.37V26.15a2.38,2.38,0,0,0,1.93,2.33L16,30.67V27.22a1.16,1.16,0,0,1,1.16-1.16h6.26a1.15,1.15,0,0,1,1.15,1.16Z"/><path class="cls-1" d="M36.23,36.8a1.15,1.15,0,0,1-1.13-.95.75.75,0,0,1,0-.21A1.16,1.16,0,0,1,36,34.5l12.85-2.4a1.15,1.15,0,0,1,1.35.92,1.64,1.64,0,0,1,0,.22,1.15,1.15,0,0,1-1,1.13L36.45,36.78Z"/><path class="cls-1" d="M17.13,33.22a.75.75,0,0,1-.21,0L3.82,30.75a1.16,1.16,0,0,1-.95-1.14,1.49,1.49,0,0,1,0-.21,1.15,1.15,0,0,1,1.35-.92l13.1,2.45a1.15,1.15,0,0,1,.95,1.13,1.64,1.64,0,0,1,0,.22A1.17,1.17,0,0,1,17.13,33.22Z"/><path class="cls-1" d="M36.23,36.8l-.21,0L23.17,34.37a1.15,1.15,0,0,1-.94-1.13,1.64,1.64,0,0,1,0-.22,1.15,1.15,0,0,1,1.35-.92l12.85,2.4a1.17,1.17,0,0,1,.94,1.14,1.49,1.49,0,0,1,0,.21A1.16,1.16,0,0,1,36.23,36.8Z"/><path class="cls-1" d="M55.34,33.22a1.17,1.17,0,0,1-1.14-.94,1.64,1.64,0,0,1,0-.22,1.15,1.15,0,0,1,1-1.13l13.09-2.45a1.14,1.14,0,0,1,1.35.92.75.75,0,0,1,0,.21,1.15,1.15,0,0,1-.94,1.14L55.55,33.2A.75.75,0,0,1,55.34,33.22Z"/><path class="cls-1" d="M23.39,40.43H17.13A1.16,1.16,0,0,1,16,39.27V27.22a1.16,1.16,0,0,1,1.16-1.16h6.26a1.15,1.15,0,0,1,1.15,1.16V39.27A1.15,1.15,0,0,1,23.39,40.43Zm-5.1-2.32h3.94V28.37H18.29Z"/></svg>