<svg id="Capa_1" data-name="Capa 1" xmlns="http://www.w3.org/2000/svg" viewBox="0 0 58.45 58.27"><defs><style>.cls-1{fill:#fff;}</style></defs><path class="cls-1" d="M49.32,42a.9.9,0,0,1-.91-.91V21A19.19,19.19,0,0,0,10,21V41.09a.91.91,0,0,1-1.82,0V21a21,21,0,0,1,42,0V41.09A.9.9,0,0,1,49.32,42Z"/><path class="cls-1" d="M9.13,42H4.39A4.4,4.4,0,0,1,0,37.61V29.06a4.4,4.4,0,0,1,4.39-4.39H9.13a.91.91,0,0,1,.91.91V41.09A.91.91,0,0,1,9.13,42ZM4.39,26.49a2.57,2.57,0,0,0-2.57,2.57v8.55a2.58,2.58,0,0,0,2.57,2.58H8.22V26.49Z"/><path class="cls-1" d="M54.06,42H49.32a.9.9,0,0,1-.91-.91V25.58a.91.91,0,0,1,.91-.91h4.74a4.4,4.4,0,0,1,4.39,4.39v8.55A4.4,4.4,0,0,1,54.06,42Zm-3.84-1.81h3.84a2.58,2.58,0,0,0,2.57-2.58V29.06a2.57,2.57,0,0,0-2.57-2.57H50.22Z"/><path class="cls-1" d="M26.26,58.27a3.94,3.94,0,1,1,3.94-3.93A3.93,3.93,0,0,1,26.26,58.27Zm0-6.05a2.12,2.12,0,1,0,2.12,2.12A2.12,2.12,0,0,0,26.26,52.22Z"/><path class="cls-1" d="M23.23,55.25h-.86A14.17,14.17,0,0,1,8.22,41.09a.91.91,0,0,1,1.82,0A12.34,12.34,0,0,0,22.37,53.43h.86a.91.91,0,0,1,0,1.82Z"/></svg>