<svg id="Capa_1" data-name="Capa 1" xmlns="http://www.w3.org/2000/svg" viewBox="0 0 33.33 75.25"><defs><style>.cls-1{fill:#fff;}</style></defs><path class="cls-1" d="M16.67,71a1.24,1.24,0,0,1-1.24-1.23V48.92a1.24,1.24,0,0,1,2.47,0v20.8A1.23,1.23,0,0,1,16.67,71Z"/><path class="cls-1" d="M21,75.25a5.51,5.51,0,0,1-4.3-2,5.53,5.53,0,0,1-9.83-3.48V46.4a4.54,4.54,0,0,1-1.74.54,4.7,4.7,0,0,1-3.58-1.19A4.64,4.64,0,0,1,0,42.31v-18A8.08,8.08,0,0,1,8.07,16.2h17.2a8.07,8.07,0,0,1,8.06,8.07v18a4.64,4.64,0,0,1-1.52,3.44,4.69,4.69,0,0,1-3.58,1.19,4.44,4.44,0,0,1-1.73-.54V69.72A5.54,5.54,0,0,1,21,75.25Zm-4.3-6.77a1.24,1.24,0,0,1,1.23,1.24,3.07,3.07,0,0,0,6.13,0V42.17a1.23,1.23,0,0,1,1.23-1.23h0a1.23,1.23,0,0,1,1.23,1.23,2.28,2.28,0,0,0,2,2.31,2.16,2.16,0,0,0,1.69-.55,2.2,2.2,0,0,0,.72-1.62v-18a5.6,5.6,0,0,0-5.6-5.6H8.07a5.6,5.6,0,0,0-5.6,5.6v18a2.23,2.23,0,0,0,.71,1.62,2.16,2.16,0,0,0,1.69.55,2.28,2.28,0,0,0,2-2.32,1.23,1.23,0,0,1,2.46,0V69.72a3.07,3.07,0,0,0,6.13,0A1.25,1.25,0,0,1,16.67,68.48Z"/><path class="cls-1" d="M25.27,18.67H8.07a1.24,1.24,0,0,1,0-2.47h17.2a1.24,1.24,0,0,1,0,2.47Z"/><path class="cls-1" d="M8.07,43.4a1.24,1.24,0,0,1-1.23-1.24V29.78a1.23,1.23,0,0,1,2.46,0V42.16A1.24,1.24,0,0,1,8.07,43.4Z"/><path class="cls-1" d="M25.26,43.4A1.24,1.24,0,0,1,24,42.16V29.78a1.24,1.24,0,0,1,2.47,0V42.16A1.25,1.25,0,0,1,25.26,43.4Z"/><path class="cls-1" d="M16.67,14a7,7,0,1,1,7-7A7,7,0,0,1,16.67,14Zm0-11.54A4.54,4.54,0,1,0,21.21,7,4.54,4.54,0,0,0,16.67,2.47Z"/></svg>