<svg id="Capa_1" data-name="Capa 1" xmlns="http://www.w3.org/2000/svg" viewBox="0 0 54.9 54.52"><defs><style>.cls-1{fill:#fff;}</style></defs><path class="cls-1" d="M26.32,54.52a5.86,5.86,0,1,1,5.86-5.86A5.87,5.87,0,0,1,26.32,54.52Zm0-9.85a4,4,0,1,0,4,4A4,4,0,0,0,26.32,44.67Z"/><path class="cls-1" d="M24.6,44.67a.94.94,0,0,1-.88-.63L10.36,6.23H.94a.94.94,0,1,1,0-1.87H11a1,1,0,0,1,.89.62L25.49,43.42a.94.94,0,0,1-.57,1.19A.91.91,0,0,1,24.6,44.67Z"/><path class="cls-1" d="M31.24,47.61a.94.94,0,0,1-.31-1.82l22.73-8a.93.93,0,1,1,.62,1.76l-22.72,8A.91.91,0,0,1,31.24,47.61Z"/><path class="cls-1" d="M30.47,41.09a.94.94,0,0,1-.88-.62L23.7,23.81a.92.92,0,0,1,.57-1.19l16.65-5.9a1,1,0,0,1,.72,0,1,1,0,0,1,.48.53L48,34a.93.93,0,0,1-.57,1.19L30.78,41A1.06,1.06,0,0,1,30.47,41.09Zm-4.7-17L31,39l14.89-5.27L40.66,18.8Z"/><path class="cls-1" d="M24.57,24.42a.93.93,0,0,1-.88-.62L17.79,7.14A.93.93,0,0,1,18.36,6L35,.05a.94.94,0,0,1,1.19.57L42.1,17.28a.92.92,0,0,1-.56,1.19l-16.66,5.9A1.12,1.12,0,0,1,24.57,24.42Zm-4.7-17,5.27,14.89L40,17,34.76,2.13Z"/></svg>