<svg id="Capa_1" data-name="Capa 1" xmlns="http://www.w3.org/2000/svg" viewBox="0 0 68.98 54.19"><defs><style>.cls-1{fill:#fff;}</style></defs><path class="cls-1" d="M64.56,46.55H4.42A4.42,4.42,0,0,1,0,42.13V4.42A4.42,4.42,0,0,1,4.42,0H64.56A4.42,4.42,0,0,1,69,4.42V42.13A4.42,4.42,0,0,1,64.56,46.55ZM4.42,1.83A2.59,2.59,0,0,0,1.83,4.42V42.13a2.59,2.59,0,0,0,2.59,2.59H64.56a2.58,2.58,0,0,0,2.58-2.59V4.42a2.58,2.58,0,0,0-2.58-2.59Z"/><path class="cls-1" d="M38.92,54.19H30.05a.92.92,0,0,1-.91-.92V45.63a.91.91,0,0,1,.91-.91h8.87a.92.92,0,0,1,.92.91v7.64A.92.92,0,0,1,38.92,54.19Zm-8-1.84h7v-5.8H31Z"/><path class="cls-1" d="M68.06,38.46H.92a.92.92,0,0,1,0-1.84H68.06a.92.92,0,0,1,0,1.84Z"/><path class="cls-1" d="M45.7,54.19H23.28a.92.92,0,1,1,0-1.84H45.7a.92.92,0,0,1,0,1.84Z"/><path class="cls-1" d="M41.4,23.6A.92.92,0,0,1,40.77,22L51.54,11.88a.92.92,0,1,1,1.26,1.33L42,23.35A1,1,0,0,1,41.4,23.6Z"/><path class="cls-1" d="M37.47,24.21a.92.92,0,0,1-.42-.1l-9.31-4.78a.92.92,0,0,1,.84-1.63l9.31,4.78a.91.91,0,0,1,.4,1.23A.93.93,0,0,1,37.47,24.21Z"/><path class="cls-1" d="M16.73,28a.92.92,0,0,1-.66-1.56l7.76-8a.92.92,0,1,1,1.32,1.28l-7.76,8A.94.94,0,0,1,16.73,28Z"/><path class="cls-1" d="M15.11,31.84H15a3.21,3.21,0,0,1-3.06-3.35,3.21,3.21,0,0,1,5.57-2,3.16,3.16,0,0,1,.83,2.31,3.21,3.21,0,0,1-3.19,3.06Zm0-4.58a1.37,1.37,0,0,0-1.37,1.31,1.34,1.34,0,0,0,.36,1A1.38,1.38,0,0,0,15,30a1.44,1.44,0,0,0,1-.36,1.38,1.38,0,0,0-.87-2.39Z"/><path class="cls-1" d="M26.11,20.61H26a2.86,2.86,0,1,1,.14,0Zm0-4.58a1.37,1.37,0,0,0-.06,2.74,1.37,1.37,0,0,0,1.43-1.31A1.38,1.38,0,0,0,26.17,16Z"/><path class="cls-1" d="M39.71,27.71h-.15a3.2,3.2,0,0,1-3.05-3.34,3.13,3.13,0,0,1,1-2.23,3.2,3.2,0,0,1,4.52.21,3.16,3.16,0,0,1,.84,2.3h0A3.22,3.22,0,0,1,39.71,27.71Zm0-4.58a1.34,1.34,0,0,0-.93.36,1.31,1.31,0,0,0-.44,1,1.37,1.37,0,0,0,1.31,1.43,1.38,1.38,0,0,0,1.43-1.31,1.41,1.41,0,0,0-.36-1,1.37,1.37,0,0,0-.95-.44ZM42,24.6h0Z"/><path class="cls-1" d="M53.88,13.93h-.15a3.21,3.21,0,0,1-2-5.57A3.26,3.26,0,0,1,54,7.52a3.21,3.21,0,0,1,2.22,1,3.16,3.16,0,0,1,.84,2.3,3.21,3.21,0,0,1-3.2,3.07Zm0-4.58a1.36,1.36,0,0,0-1.36,1.31,1.37,1.37,0,0,0,1.3,1.43,1.38,1.38,0,0,0,1-.36,1.36,1.36,0,0,0,.45-1h0a1.41,1.41,0,0,0-.36-1,1.39,1.39,0,0,0-1-.44Z"/></svg>