<svg id="Capa_1" data-name="Capa 1" xmlns="http://www.w3.org/2000/svg" viewBox="0 0 57.36 57.36"><defs><style>.cls-1{fill:#fff;}</style></defs><path class="cls-1" d="M24.35,48.22A15.22,15.22,0,1,1,39.57,33,15.23,15.23,0,0,1,24.35,48.22Zm0-28.61A13.4,13.4,0,1,0,37.75,33,13.41,13.41,0,0,0,24.35,19.61Z"/><path class="cls-1" d="M24.35,39.09A6.08,6.08,0,1,1,30.43,33,6.09,6.09,0,0,1,24.35,39.09Zm0-10.34A4.26,4.26,0,1,0,28.61,33,4.26,4.26,0,0,0,24.35,28.75Z"/><path class="cls-1" d="M24.35,57.36A24.35,24.35,0,1,1,48.7,33,24.37,24.37,0,0,1,24.35,57.36Zm0-46.88A22.53,22.53,0,1,0,46.88,33,22.56,22.56,0,0,0,24.35,10.48Z"/><path class="cls-1" d="M24.35,33.92a.91.91,0,0,1-.64-1.55L50.88,5.19a.91.91,0,0,1,1.29,0,.89.89,0,0,1,0,1.28L25,33.65A.89.89,0,0,1,24.35,33.92Z"/><path class="cls-1" d="M44.22,14.05a.91.91,0,0,1-.91-.91v-8a.91.91,0,1,1,1.82,0v8A.91.91,0,0,1,44.22,14.05Z"/><path class="cls-1" d="M48.43,9.84a.9.9,0,0,1-.91-.91v-8a.91.91,0,1,1,1.81,0v8A.9.9,0,0,1,48.43,9.84Z"/><path class="cls-1" d="M52.24,14.05h-8a.91.91,0,0,1,0-1.82h8a.91.91,0,0,1,0,1.82Z"/><path class="cls-1" d="M56.45,9.84h-8a.91.91,0,0,1,0-1.82h8a.91.91,0,0,1,0,1.82Z"/></svg>