<svg id="Capa_1" data-name="Capa 1" xmlns="http://www.w3.org/2000/svg" viewBox="0 0 56.79 66.65"><defs><style>.cls-1{fill:#fff;}</style></defs><path class="cls-1" d="M28.39,17a1,1,0,0,1-1-1V15a1,1,0,1,1,2.09,0v1A1,1,0,0,1,28.39,17Z"/><path class="cls-1" d="M17.25,20a1.07,1.07,0,0,1-.91-.52l-.47-.83a1,1,0,0,1,.38-1.42,1,1,0,0,1,1.43.38l.47.82a1,1,0,0,1-.38,1.43A1.07,1.07,0,0,1,17.25,20Z"/><path class="cls-1" d="M9.09,28.16A1.07,1.07,0,0,1,8.57,28l-.83-.48a1,1,0,0,1-.38-1.42,1,1,0,0,1,1.43-.39l.82.48a1,1,0,0,1-.52,1.95Z"/><path class="cls-1" d="M6.1,39.3H5.15a1,1,0,0,1,0-2.09H6.1a1,1,0,1,1,0,2.09Z"/><path class="cls-1" d="M8.27,50.92a1,1,0,0,1-.91-.52A1,1,0,0,1,7.74,49l.83-.47a1,1,0,0,1,1.42.38,1,1,0,0,1-.38,1.43l-.82.47A1,1,0,0,1,8.27,50.92Z"/><path class="cls-1" d="M16.77,59.43a1,1,0,0,1-.52-.14,1,1,0,0,1-.38-1.43l.47-.82a1,1,0,1,1,1.81,1.05l-.47.82A1.07,1.07,0,0,1,16.77,59.43Z"/><path class="cls-1" d="M28.39,62.55a1,1,0,0,1-1-1v-1a1,1,0,1,1,2.09,0v1A1,1,0,0,1,28.39,62.55Z"/><path class="cls-1" d="M40,59.43a1,1,0,0,1-.91-.52l-.48-.82A1.06,1.06,0,0,1,39,56.66a1,1,0,0,1,1.42.38l.48.82a1,1,0,0,1-.38,1.43A1,1,0,0,1,40,59.43Z"/><path class="cls-1" d="M48.52,50.92a1,1,0,0,1-.52-.14l-.82-.47a1,1,0,1,1,1-1.81L49,49a1.06,1.06,0,0,1,.39,1.43A1,1,0,0,1,48.52,50.92Z"/><path class="cls-1" d="M51.63,39.3h-1a1,1,0,0,1,0-2.09h1a1,1,0,1,1,0,2.09Z"/><path class="cls-1" d="M47.7,28.16a1.07,1.07,0,0,1-.91-.52,1,1,0,0,1,.39-1.43l.82-.48a1,1,0,1,1,1,1.81l-.82.48A1.07,1.07,0,0,1,47.7,28.16Z"/><path class="cls-1" d="M39.54,20a1.05,1.05,0,0,1-.91-1.57l.48-.82a1,1,0,0,1,1.43-.38,1,1,0,0,1,.38,1.42l-.48.83A1,1,0,0,1,39.54,20Z"/><path class="cls-1" d="M34.51,42.69a1.11,1.11,0,0,1-.5-.12l-6.23-3.39a1.06,1.06,0,0,1-.55-.92V23.62a1,1,0,1,1,2.09,0v14L35,40.73a1,1,0,0,1-.5,2Z"/><path class="cls-1" d="M28.39,66.65a28.39,28.39,0,1,1,28.4-28.39A28.43,28.43,0,0,1,28.39,66.65Zm0-54.69A26.3,26.3,0,1,0,54.7,38.26,26.33,26.33,0,0,0,28.39,12Z"/><path class="cls-1" d="M34.51,7.33H22a1,1,0,0,1-1.05-1V1A1,1,0,0,1,22,0H34.51a1,1,0,0,1,1.05,1V6.29A1,1,0,0,1,34.51,7.33ZM23.08,5.24H33.47V2.09H23.08Z"/><path class="cls-1" d="M30.91,12H25.64a1,1,0,0,1-1-1.05V6.29a1,1,0,0,1,1-1h5.27a1,1,0,0,1,1.05,1v4.62A1,1,0,0,1,30.91,12ZM26.69,9.87h3.18V7.33H26.69Z"/><path class="cls-1" d="M46.91,19.18a1.05,1.05,0,0,1-.74-1.79l3.68-3.68a1,1,0,1,1,1.48,1.48l-3.69,3.68A1,1,0,0,1,46.91,19.18Z"/><path class="cls-1" d="M52.71,16.86a1.06,1.06,0,0,1-.74-.3L48.46,13a1,1,0,0,1,0-1.48,1.06,1.06,0,0,1,1.48,0l3.51,3.52a1,1,0,0,1-.74,1.78Z"/></svg>