<svg id="Capa_1" data-name="Capa 1" xmlns="http://www.w3.org/2000/svg" viewBox="0 0 46.84 69.77"><defs><style>.cls-1{fill:#fff;}</style></defs><path class="cls-1" d="M35.38,69.77a5.12,5.12,0,0,1-4-1.9,5.13,5.13,0,0,1-9.11-3.22V39.13A1.15,1.15,0,0,1,23.41,38a1.17,1.17,0,0,1,1.15,1.13,2.13,2.13,0,0,0,1.82,2.12,2,2,0,0,0,2.23-2V22.5a5.18,5.18,0,0,0-4.69-5.17A1.14,1.14,0,0,1,24,15.05H39.36a7.49,7.49,0,0,1,7.48,7.48V39.24a4.31,4.31,0,0,1-4.73,4.29A4,4,0,0,1,40.5,43V64.65A5.13,5.13,0,0,1,35.38,69.77Zm-2.85-5.12a2.85,2.85,0,0,0,5.69,0V39.2s0-.06,0-.09V27.63a1.15,1.15,0,0,1,2.29,0V39.11a2.13,2.13,0,0,0,1.82,2.15,2,2,0,0,0,2.23-2V22.53a5.2,5.2,0,0,0-5.19-5.2H28.84a7.48,7.48,0,0,1,2.05,5.17V39.21a4.31,4.31,0,0,1-4.73,4.29,4,4,0,0,1-1.6-.49V64.65a2.85,2.85,0,0,0,5.69,0V45.37a1.14,1.14,0,1,1,2.28,0Z"/><path class="cls-1" d="M31.39,13a6.5,6.5,0,1,1,6.49-6.5A6.5,6.5,0,0,1,31.39,13Zm0-10.7a4.21,4.21,0,1,0,4.21,4.2A4.21,4.21,0,0,0,31.39,2.32Z"/><path class="cls-1" d="M15.45,13a6.5,6.5,0,1,1,6.49-6.5A6.51,6.51,0,0,1,15.45,13Zm0-10.7a4.21,4.21,0,1,0,4.21,4.2A4.21,4.21,0,0,0,15.45,2.29Z"/><path class="cls-1" d="M19.43,69.74a5.12,5.12,0,0,1-4-1.9,5.13,5.13,0,0,1-9.11-3.22V43a4,4,0,0,1-1.61.5A4.31,4.31,0,0,1,0,39.21V22.5A7.48,7.48,0,0,1,7.48,15H23.42q.36,0,.72,0a7.44,7.44,0,0,1,6.75,7.45V39.21a4.31,4.31,0,0,1-4.73,4.29,4,4,0,0,1-1.6-.49V64.62A5.13,5.13,0,0,1,19.43,69.74Zm-4-6.27a1.14,1.14,0,0,1,1.14,1.15,2.84,2.84,0,1,0,5.68,0V39.09a1.16,1.16,0,0,1,1.15-1.15,1.14,1.14,0,0,1,1.12.94.9.9,0,0,1,0,.23,2.13,2.13,0,0,0,1.82,2.12,2,2,0,0,0,2.23-2V22.5a5.18,5.18,0,0,0-4.69-5.17h0a4.07,4.07,0,0,0-.5,0H7.48a5.19,5.19,0,0,0-5.19,5.2V39.21a2,2,0,0,0,2.22,2,2.12,2.12,0,0,0,1.83-2.15,1.14,1.14,0,1,1,2.28,0V64.62a2.85,2.85,0,0,0,5.69,0A1.14,1.14,0,0,1,15.45,63.47Z"/><path class="cls-1" d="M7.48,40.22a1.14,1.14,0,0,1-1.14-1.14V27.63a1.14,1.14,0,1,1,2.28,0V39.08A1.14,1.14,0,0,1,7.48,40.22Z"/><path class="cls-1" d="M23.42,40.27a1.14,1.14,0,0,1-1.14-1.14V27.6a1.14,1.14,0,1,1,2.28,0V39.13A1.14,1.14,0,0,1,23.42,40.27Z"/><path class="cls-1" d="M15.45,65.76a1.14,1.14,0,0,1-1.14-1.14V45.08a1.14,1.14,0,0,1,2.28,0V64.62A1.14,1.14,0,0,1,15.45,65.76Z"/></svg>