<svg id="Capa_1" data-name="Capa 1" xmlns="http://www.w3.org/2000/svg" viewBox="0 0 68.1 68.1"><defs><style>.cls-1{fill:#fff;}</style></defs><path class="cls-1" d="M34.05,52.09a18,18,0,1,1,18-18A18.06,18.06,0,0,1,34.05,52.09Zm0-33.87A15.83,15.83,0,1,0,49.87,34.05,15.85,15.85,0,0,0,34.05,18.22Z"/><path class="cls-1" d="M36,68.1H32.1A5.07,5.07,0,0,1,27,63V59.69a26.42,26.42,0,0,1-6.17-2.55L18.51,59.5a5.08,5.08,0,0,1-7.16,0L8.6,56.75a5.07,5.07,0,0,1,0-7.17L11,47.22a26.17,26.17,0,0,1-2.55-6.16H5.07A5.07,5.07,0,0,1,0,36V32.1A5.07,5.07,0,0,1,5.07,27H8.41A26.42,26.42,0,0,1,11,20.87L8.6,18.51a5,5,0,0,1,0-7.16L11.35,8.6a5.06,5.06,0,0,1,7.16,0L20.87,11A26.42,26.42,0,0,1,27,8.41V5.07A5.07,5.07,0,0,1,32.1,0H36a5.07,5.07,0,0,1,5.07,5.07V8.41A26.17,26.17,0,0,1,47.22,11L49.58,8.6a5.07,5.07,0,0,1,7.17,0l2.75,2.75a5.07,5.07,0,0,1,0,7.16l-2.36,2.36A26.42,26.42,0,0,1,59.69,27H63A5.07,5.07,0,0,1,68.1,32.1V36A5.08,5.08,0,0,1,63,41.06H59.69a26.17,26.17,0,0,1-2.55,6.16l2.36,2.36a5.09,5.09,0,0,1,0,7.17L56.75,59.5a5.07,5.07,0,0,1-7.17,0l-2.36-2.36a26.35,26.35,0,0,1-6.16,2.55V63A5.08,5.08,0,0,1,36,68.1ZM20.7,54.64a1,1,0,0,1,.58.17,24.3,24.3,0,0,0,7.12,2.94,1.11,1.11,0,0,1,.85,1.08V63a2.86,2.86,0,0,0,2.85,2.85H36A2.86,2.86,0,0,0,38.85,63v-4.2a1.11,1.11,0,0,1,.85-1.08,24.41,24.41,0,0,0,7.12-2.94,1.09,1.09,0,0,1,1.42.22l2.91,2.91a2.85,2.85,0,0,0,4,0l2.75-2.76a2.84,2.84,0,0,0,0-4L55,48.24a1.12,1.12,0,0,1-.23-1.42,24.16,24.16,0,0,0,3-7.12,1.11,1.11,0,0,1,1.08-.85H63A2.86,2.86,0,0,0,65.88,36V32.1A2.86,2.86,0,0,0,63,29.25h-4.2a1.11,1.11,0,0,1-1.08-.85,24.3,24.3,0,0,0-2.94-7.12A1.09,1.09,0,0,1,55,19.92l3-3a2.85,2.85,0,0,0,.84-2,2.88,2.88,0,0,0-.83-2l-2.76-2.75a2.85,2.85,0,0,0-4,0l-3,3a1.1,1.1,0,0,1-1.36.16,24.16,24.16,0,0,0-7.12-2.95,1.1,1.1,0,0,1-.85-1.07V5.07A2.86,2.86,0,0,0,36,2.21H32.1a2.86,2.86,0,0,0-2.85,2.86v4.2a1.1,1.1,0,0,1-.85,1.07,24.05,24.05,0,0,0-7.12,2.95,1.1,1.1,0,0,1-1.36-.16l-3-3a2.87,2.87,0,0,0-4,0l-2.75,2.75a2.87,2.87,0,0,0,0,4l3,3a1.1,1.1,0,0,1,.16,1.36,24.05,24.05,0,0,0-2.95,7.12,1.1,1.1,0,0,1-1.07.85H5.07A2.86,2.86,0,0,0,2.21,32.1V36a2.86,2.86,0,0,0,2.86,2.86h4.2a1.1,1.1,0,0,1,1.07.85,24.16,24.16,0,0,0,2.95,7.12,1.1,1.1,0,0,1-.22,1.42l-2.91,2.91a2.85,2.85,0,0,0,0,4l2.75,2.76a2.87,2.87,0,0,0,4,0L19.87,55A1.11,1.11,0,0,1,20.7,54.64Z"/></svg>