<?xml version="1.0" encoding="utf-8"?>
<!-- Generator: Adobe Illustrator 25.2.3, SVG Export Plug-In . SVG Version: 6.00 Build 0)  -->
<svg version="1.1" id="Capa_1" xmlns="http://www.w3.org/2000/svg" xmlns:xlink="http://www.w3.org/1999/xlink" x="0px" y="0px"
	 viewBox="0 0 41.7 41.7" style="enable-background:new 0 0 41.7 41.7;" xml:space="preserve">
<style type="text/css">
	.st0{fill:#FFFFFF;}
	.st1{fill-rule:evenodd;clip-rule:evenodd;fill:#FFFFFF;}
	.st2{fill:#040000;}
	.st3{fill-rule:evenodd;clip-rule:evenodd;fill:#040000;}
	.st4{fill-rule:evenodd;clip-rule:evenodd;}
</style>
<g>
	<path class="st3" d="M20.8,0C9.3,0,0,9.3,0,20.8c0,11.5,9.3,20.8,20.8,20.8c11.5,0,20.8-9.3,20.8-20.8C41.7,9.3,32.4,0,20.8,0
		L20.8,0z M25.7,15.2l0,0.7h0v9c0,2.2-0.8,4.2-2.4,5.7c-1.5,1.5-3.6,2.4-5.7,2.4c-2.2,0-4.2-0.8-5.7-2.4c-1.5-1.5-2.4-3.6-2.4-5.7
		c0-2.2,0.8-4.2,2.4-5.7c1.5-1.5,3.6-2.4,5.7-2.4h1.5v4.2h-1.5c-1,0-2,0.4-2.7,1.1c-0.7,0.7-1.1,1.7-1.1,2.7c0,1,0.4,2,1.1,2.7
		c0.7,0.7,1.7,1.1,2.7,1.1c1,0,2-0.4,2.7-1.1c0.7-0.7,1.1-1.7,1.1-2.7V8.7h4.2l0.2,0.4c0.7,1.2,1.5,2.4,2.6,3.2
		c0.9,0.7,1.8,1.1,2.9,1.3l0.8,0.1l-0.8,4.1l-0.7-0.1c-0.9-0.2-1.7-0.4-2.5-0.8C27.2,16.5,26.4,15.9,25.7,15.2z"/>
</g>
</svg>
