<svg xmlns="http://www.w3.org/2000/svg" xmlns:xlink="http://www.w3.org/1999/xlink" viewBox="0 0 18.42 23.01"><defs><style>.cls-1{fill:none;}.cls-2{fill:#82242c;}.cls-3{clip-path:url(#clip-path);}.cls-4{fill:#ca2a23;}.cls-5{fill:url(#ROJO_DELAPAZ);}</style><clipPath id="clip-path"><rect class="cls-1" x="71.55" y="-4390.82" width="1920" height="5800.9"/></clipPath><pattern id="ROJO_DELAPAZ" data-name="ROJO DELAPAZ" width="144.14" height="144.14" patternTransform="translate(552.9 242.19) scale(0.78 1.01)" patternUnits="userSpaceOnUse" viewBox="0 0 144.14 144.14"><rect class="cls-1" width="144.14" height="144.14"/><rect class="cls-2" width="144.14" height="144.14"/></pattern></defs><g id="Sobre_Nosotros" data-name="Sobre Nosotros"><g class="cls-3"><path class="cls-4" d="M240.15-324S1306.48-197.44,1908.42,619.09C1339.49,313.16,1126,390.19,1122.7,432c-5.5,57.22,14.31,361,7.71,353.24-695.48-709.78-1452.58-723-2169-819.83,419.27-46.21,834.13-73.73,1394.26,7.71C451.44-12.57,240.15-324,240.15-324Z"/></g><path class="cls-5" d="M9.21,23a.44.44,0,0,1-.34-.16l-6.76-8A9,9,0,0,1,9,0h.4a9,9,0,0,1,6.9,14.81h0l-6.75,8A.48.48,0,0,1,9.21,23ZM9,.9A8.11,8.11,0,0,0,2.8,14.23l6.41,7.64,6.41-7.64A8.11,8.11,0,0,0,9.41.9Zm7,13.62Z"/><path class="cls-5" d="M9.21,14.46A5.45,5.45,0,1,1,14.66,9,5.46,5.46,0,0,1,9.21,14.46Zm0-10A4.55,4.55,0,1,0,13.76,9,4.55,4.55,0,0,0,9.21,4.46Z"/></g></svg>