<?xml version="1.0" encoding="utf-8"?>
<!-- Generator: Adobe Illustrator 25.2.3, SVG Export Plug-In . SVG Version: 6.00 Build 0)  -->
<svg version="1.1" id="Capa_1" xmlns="http://www.w3.org/2000/svg" xmlns:xlink="http://www.w3.org/1999/xlink" x="0px" y="0px"
	 viewBox="0 0 41.7 41.9" style="enable-background:new 0 0 41.7 41.9;" xml:space="preserve">
<style type="text/css">
	.st0{fill:#FFFFFF;}
	.st1{fill-rule:evenodd;clip-rule:evenodd;fill:#FFFFFF;}
	.st2{fill:#040000;}
	.st3{fill-rule:evenodd;clip-rule:evenodd;fill:#040000;}
	.st4{fill-rule:evenodd;clip-rule:evenodd;}
</style>
<path class="st4" d="M35.6,6.1C31.7,2.2,26.5,0,20.9,0C9.5,0,0.2,9.3,0.2,20.8c0,3.7,1,7.2,2.8,10.4L0,41.9L11,39
	c3,1.7,6.4,2.5,9.9,2.5h0c11.4,0,20.8-9.3,20.8-20.8C41.7,15.2,39.5,10,35.6,6.1L35.6,6.1z M20.9,38L20.9,38c-3.1,0-6.1-0.8-8.8-2.4
	l-0.6-0.4L5,37l1.7-6.4l-0.4-0.7c-1.7-2.7-2.6-5.9-2.6-9.2c0-9.5,7.7-17.3,17.3-17.3c4.6,0,8.9,1.8,12.2,5.1c3.3,3.3,5.1,7.6,5,12.2
	C38.2,30.3,30.4,38,20.9,38L20.9,38z M30.4,25.1c-0.5-0.3-3.1-1.5-3.5-1.7c-0.5-0.2-0.8-0.3-1.2,0.3c-0.3,0.5-1.3,1.7-1.6,2
	c-0.3,0.3-0.6,0.4-1.1,0.1c-0.5-0.3-2.2-0.8-4.2-2.6c-1.5-1.4-2.6-3.1-2.9-3.6c-0.3-0.5,0-0.8,0.2-1.1c0.2-0.2,0.5-0.6,0.8-0.9
	c0.3-0.3,0.3-0.5,0.5-0.9c0.2-0.3,0.1-0.6,0-0.9c-0.1-0.3-1.2-2.8-1.6-3.9c-0.4-1-0.8-0.9-1.2-0.9c-0.3,0-0.6,0-1,0
	s-0.9,0.1-1.4,0.6c-0.5,0.5-1.8,1.8-1.8,4.3s1.9,5,2.1,5.4c0.3,0.3,3.7,5.6,8.9,7.8c1.2,0.5,2.2,0.9,3,1.1c1.2,0.4,2.4,0.3,3.3,0.2
	c1-0.1,3.1-1.3,3.5-2.5c0.4-1.2,0.4-2.3,0.3-2.5C31.3,25.5,30.9,25.4,30.4,25.1L30.4,25.1z"/>
</svg>
