<?xml version="1.0" encoding="utf-8"?>
<!-- Generator: Adobe Illustrator 25.2.3, SVG Export Plug-In . SVG Version: 6.00 Build 0)  -->
<svg version="1.1" id="Capa_1" xmlns="http://www.w3.org/2000/svg" xmlns:xlink="http://www.w3.org/1999/xlink" x="0px" y="0px"
	 viewBox="0 0 52.8 41.6" style="enable-background:new 0 0 52.8 41.6;" xml:space="preserve">
<style type="text/css">
	.st0{fill:#FFFFFF;}
	.st1{fill-rule:evenodd;clip-rule:evenodd;fill:#FFFFFF;}
	.st2{fill:#040000;}
	.st3{fill-rule:evenodd;clip-rule:evenodd;fill:#040000;}
	.st4{fill-rule:evenodd;clip-rule:evenodd;}
</style>
<g id="_x38_JvnWZ.tif_1_">
	<g>
		<g>
			<path d="M52.8,18.5c0,1.5,0,3,0,4.5c0,0.3-0.1,0.5-0.1,0.8c-0.3,3.2-0.6,6.4-1,9.6c-0.5,3.4-3.1,6.1-6.4,6.7
				C39.9,41,34.4,41.4,29,41.5c-6.9,0.2-13.8-0.3-20.7-1.3c-4-0.6-6.6-3-7.3-7c-1.4-8.4-1.4-16.8,0-25.2c0.5-3.3,3-6,6.3-6.5
				c4.8-0.9,9.6-1.2,14.5-1.4c7.5-0.3,15,0.2,22.4,1.2c4,0.6,6.7,2.9,7.4,6.7c0.4,2.2,0.6,4.5,0.9,6.8C52.6,16,52.7,17.3,52.8,18.5z
				 M26.5,3.8c-5.9,0-11.8,0.5-17.7,1.3C6.3,5.5,5.1,6.6,4.7,9c-0.3,1.7-0.5,3.4-0.7,5.2c-0.6,6.2-0.4,12.5,0.7,18.7
				c0.3,1.9,1.7,3.3,3.6,3.6c5.3,0.8,10.6,1.2,16,1.3c6.7,0.1,13.3-0.4,19.9-1.3c1.9-0.3,3.4-1.6,3.7-3.5c0.3-1.8,0.5-3.7,0.7-5.6
				C49.2,21.1,49,14.9,48,8.7c-0.3-1.9-1.8-3.3-3.7-3.6C38.3,4.2,32.4,3.8,26.5,3.8z"/>
			<path d="M37.7,20.8c-6.3,3.2-12.5,6.3-18.8,9.4c0-6.3,0-12.5,0-18.9C25.1,14.5,31.3,17.6,37.7,20.8z"/>
		</g>
	</g>
</g>
</svg>
